<svg width="30" height="30" viewBox="0 0 30 30" fill="none" xmlns="http://www.w3.org/2000/svg">
<path d="M19.6338 5.36623C19.8681 5.60064 19.9997 5.91852 19.9997 6.24998C19.9997 6.58143 19.8681 6.89932 19.6338 7.13373L11.7675 15L19.6338 22.8662C19.8615 23.102 19.9874 23.4177 19.9846 23.7455C19.9818 24.0732 19.8503 24.3867 19.6185 24.6185C19.3868 24.8503 19.0733 24.9817 18.7455 24.9846C18.4178 24.9874 18.102 24.8614 17.8663 24.6337L9.11626 15.8837C8.88192 15.6493 8.75027 15.3314 8.75027 15C8.75027 14.6685 8.88192 14.3506 9.11626 14.1162L17.8663 5.36623C18.1007 5.13189 18.4186 5.00024 18.75 5.00024C19.0815 5.00024 19.3993 5.13189 19.6338 5.36623Z" fill="#212121"/>
</svg>
