<svg width="328" height="367" viewBox="0 0 328 367" fill="none" xmlns="http://www.w3.org/2000/svg">
<rect width="328" height="367" rx="21" fill="white"/>
<path d="M164 39C143.65 39 127 55.65 127 76C127 96.35 143.65 113 164 113C184.35 113 201 96.35 201 76C201 55.65 184.35 39 164 39Z" fill="#E16E6E"/>
<path d="M164 83.4C161.78 83.4 160.3 81.92 160.3 79.7V54.91C160.3 52.69 161.78 51.21 164 51.21C166.22 51.21 167.7 52.69 167.7 54.91V79.7C167.7 81.55 166.22 83.4 164 83.4Z" fill="white"/>
<path d="M164 100.79C161.78 100.79 160.3 99.31 160.3 97.09V93.39C160.3 91.17 161.78 89.69 164 89.69C166.22 89.69 167.7 91.17 167.7 93.39V97.09C167.7 99.31 166.22 100.79 164 100.79Z" fill="white"/>
<g filter="url(#filter0_dd_574_1590)">
<rect x="35.5" y="289.5" width="124" height="49" rx="5.97293" stroke="#E16E6E"/>
<path d="M90.5329 318V315.012L87.7129 309.6H89.4529L91.3129 313.476L93.1609 309.6H94.8769L92.0689 315.012V318H90.5329ZM97.6505 318.144C97.0505 318.144 96.5185 318.016 96.0545 317.76C95.5905 317.504 95.2265 317.144 94.9625 316.68C94.6985 316.216 94.5665 315.68 94.5665 315.072C94.5665 314.456 94.6945 313.908 94.9505 313.428C95.2145 312.948 95.5745 312.576 96.0305 312.312C96.4945 312.04 97.0385 311.904 97.6625 311.904C98.2465 311.904 98.7625 312.032 99.2105 312.288C99.6585 312.544 100.007 312.896 100.255 313.344C100.511 313.784 100.639 314.276 100.639 314.82C100.639 314.908 100.635 315 100.627 315.096C100.627 315.192 100.623 315.292 100.615 315.396H96.0905C96.1225 315.86 96.2825 316.224 96.5705 316.488C96.8665 316.752 97.2225 316.884 97.6385 316.884C97.9505 316.884 98.2105 316.816 98.4185 316.68C98.6345 316.536 98.7945 316.352 98.8985 316.128H100.459C100.347 316.504 100.159 316.848 99.8945 317.16C99.6385 317.464 99.3185 317.704 98.9345 317.88C98.5585 318.056 98.1305 318.144 97.6505 318.144ZM97.6625 313.152C97.2865 313.152 96.9545 313.26 96.6665 313.476C96.3785 313.684 96.1945 314.004 96.1145 314.436H99.0785C99.0545 314.044 98.9105 313.732 98.6465 313.5C98.3825 313.268 98.0545 313.152 97.6625 313.152ZM104.39 318.144C103.862 318.144 103.398 318.06 102.998 317.892C102.598 317.716 102.278 317.476 102.038 317.172C101.798 316.868 101.654 316.516 101.606 316.116H103.154C103.202 316.348 103.33 316.548 103.538 316.716C103.754 316.876 104.03 316.956 104.366 316.956C104.702 316.956 104.946 316.888 105.098 316.752C105.258 316.616 105.338 316.46 105.338 316.284C105.338 316.028 105.226 315.856 105.002 315.768C104.778 315.672 104.466 315.58 104.066 315.492C103.81 315.436 103.55 315.368 103.286 315.288C103.022 315.208 102.778 315.108 102.554 314.988C102.338 314.86 102.162 314.7 102.026 314.508C101.89 314.308 101.822 314.064 101.822 313.776C101.822 313.248 102.03 312.804 102.446 312.444C102.87 312.084 103.462 311.904 104.222 311.904C104.926 311.904 105.486 312.068 105.902 312.396C106.326 312.724 106.578 313.176 106.658 313.752H105.206C105.118 313.312 104.786 313.092 104.21 313.092C103.922 313.092 103.698 313.148 103.538 313.26C103.386 313.372 103.31 313.512 103.31 313.68C103.31 313.856 103.426 313.996 103.658 314.1C103.89 314.204 104.198 314.3 104.582 314.388C104.998 314.484 105.378 314.592 105.722 314.712C106.074 314.824 106.354 314.996 106.562 315.228C106.77 315.452 106.874 315.776 106.874 316.2C106.882 316.568 106.786 316.9 106.586 317.196C106.386 317.492 106.098 317.724 105.722 317.892C105.346 318.06 104.902 318.144 104.39 318.144Z" fill="#E16E6E"/>
</g>
<path d="M61.8786 197.992L58.5666 204.371V208H56.925V204.371L53.5986 197.992H55.4274L57.7458 202.902L60.0642 197.992H61.8786ZM66.4567 208.13C65.7079 208.13 65.0311 207.962 64.4263 207.626C63.8215 207.28 63.3463 206.8 63.0007 206.186C62.6551 205.562 62.4823 204.842 62.4823 204.026C62.4823 203.219 62.6599 202.504 63.0151 201.88C63.3703 201.256 63.8551 200.776 64.4695 200.44C65.0839 200.104 65.7703 199.936 66.5287 199.936C67.2871 199.936 67.9735 200.104 68.5879 200.44C69.2023 200.776 69.6871 201.256 70.0423 201.88C70.3975 202.504 70.5751 203.219 70.5751 204.026C70.5751 204.832 70.3927 205.547 70.0279 206.171C69.6631 206.795 69.1639 207.28 68.5303 207.626C67.9063 207.962 67.2151 208.13 66.4567 208.13ZM66.4567 206.704C66.8791 206.704 67.2727 206.603 67.6375 206.402C68.0119 206.2 68.3143 205.898 68.5447 205.494C68.7751 205.091 68.8903 204.602 68.8903 204.026C68.8903 203.45 68.7799 202.965 68.5591 202.571C68.3383 202.168 68.0455 201.866 67.6807 201.664C67.3159 201.462 66.9223 201.362 66.4999 201.362C66.0775 201.362 65.6839 201.462 65.3191 201.664C64.9639 201.866 64.6807 202.168 64.4695 202.571C64.2583 202.965 64.1527 203.45 64.1527 204.026C64.1527 204.88 64.3687 205.542 64.8007 206.013C65.2423 206.474 65.7943 206.704 66.4567 206.704ZM79.2172 200.066V208H77.5756V207.064C77.3164 207.39 76.9756 207.65 76.5532 207.842C76.1404 208.024 75.6988 208.115 75.2284 208.115C74.6044 208.115 74.0428 207.986 73.5436 207.726C73.054 207.467 72.6652 207.083 72.3772 206.574C72.0988 206.066 71.9596 205.451 71.9596 204.731V200.066H73.5868V204.486C73.5868 205.197 73.7644 205.744 74.1196 206.128C74.4748 206.502 74.9596 206.69 75.574 206.69C76.1884 206.69 76.6732 206.502 77.0284 206.128C77.3932 205.744 77.5756 205.197 77.5756 204.486V200.066H79.2172ZM97.8232 197.992L94.8568 208H92.9992L90.8968 200.426L88.6648 208L86.8216 208.014L83.9848 197.992H85.7272L87.8008 206.142L90.0472 197.992H91.8904L93.9784 206.099L96.0664 197.992H97.8232ZM98.4637 203.997C98.4637 203.2 98.6269 202.494 98.9533 201.88C99.2893 201.266 99.7405 200.79 100.307 200.454C100.883 200.109 101.516 199.936 102.208 199.936C102.832 199.936 103.374 200.061 103.835 200.31C104.305 200.55 104.68 200.853 104.958 201.218V200.066H106.614V208H104.958V206.819C104.68 207.194 104.3 207.506 103.82 207.755C103.34 208.005 102.793 208.13 102.179 208.13C101.497 208.13 100.873 207.957 100.307 207.611C99.7405 207.256 99.2893 206.766 98.9533 206.142C98.6269 205.509 98.4637 204.794 98.4637 203.997ZM104.958 204.026C104.958 203.478 104.843 203.003 104.612 202.6C104.392 202.197 104.099 201.89 103.734 201.678C103.369 201.467 102.976 201.362 102.553 201.362C102.131 201.362 101.737 201.467 101.372 201.678C101.008 201.88 100.71 202.182 100.48 202.586C100.259 202.979 100.148 203.45 100.148 203.997C100.148 204.544 100.259 205.024 100.48 205.437C100.71 205.85 101.008 206.166 101.372 206.387C101.747 206.598 102.14 206.704 102.553 206.704C102.976 206.704 103.369 206.598 103.734 206.387C104.099 206.176 104.392 205.869 104.612 205.466C104.843 205.053 104.958 204.573 104.958 204.026ZM112.607 199.936C113.231 199.936 113.788 200.066 114.278 200.325C114.777 200.584 115.166 200.968 115.444 201.477C115.722 201.986 115.862 202.6 115.862 203.32V208H114.234V203.565C114.234 202.854 114.057 202.312 113.702 201.938C113.346 201.554 112.862 201.362 112.247 201.362C111.633 201.362 111.143 201.554 110.778 201.938C110.423 202.312 110.246 202.854 110.246 203.565V208H108.604V200.066H110.246V200.973C110.514 200.646 110.855 200.392 111.268 200.21C111.69 200.027 112.137 199.936 112.607 199.936ZM119.704 201.405V205.797C119.704 206.094 119.772 206.31 119.906 206.445C120.05 206.57 120.29 206.632 120.626 206.632H121.634V208H120.338C119.599 208 119.032 207.827 118.639 207.482C118.245 207.136 118.048 206.574 118.048 205.797V201.405H117.112V200.066H118.048V198.093H119.704V200.066H121.634V201.405H119.704ZM133.971 197.992L130.659 204.371V208H129.017V204.371L125.691 197.992H127.52L129.838 202.902L132.157 197.992H133.971ZM138.549 208.13C137.8 208.13 137.124 207.962 136.519 207.626C135.914 207.28 135.439 206.8 135.093 206.186C134.748 205.562 134.575 204.842 134.575 204.026C134.575 203.219 134.752 202.504 135.108 201.88C135.463 201.256 135.948 200.776 136.562 200.44C137.176 200.104 137.863 199.936 138.621 199.936C139.38 199.936 140.066 200.104 140.68 200.44C141.295 200.776 141.78 201.256 142.135 201.88C142.49 202.504 142.668 203.219 142.668 204.026C142.668 204.832 142.485 205.547 142.12 206.171C141.756 206.795 141.256 207.28 140.623 207.626C139.999 207.962 139.308 208.13 138.549 208.13ZM138.549 206.704C138.972 206.704 139.365 206.603 139.73 206.402C140.104 206.2 140.407 205.898 140.637 205.494C140.868 205.091 140.983 204.602 140.983 204.026C140.983 203.45 140.872 202.965 140.652 202.571C140.431 202.168 140.138 201.866 139.773 201.664C139.408 201.462 139.015 201.362 138.592 201.362C138.17 201.362 137.776 201.462 137.412 201.664C137.056 201.866 136.773 202.168 136.562 202.571C136.351 202.965 136.245 203.45 136.245 204.026C136.245 204.88 136.461 205.542 136.893 206.013C137.335 206.474 137.887 206.704 138.549 206.704ZM151.31 200.066V208H149.668V207.064C149.409 207.39 149.068 207.65 148.646 207.842C148.233 208.024 147.791 208.115 147.321 208.115C146.697 208.115 146.135 207.986 145.636 207.726C145.146 207.467 144.758 207.083 144.47 206.574C144.191 206.066 144.052 205.451 144.052 204.731V200.066H145.679V204.486C145.679 205.197 145.857 205.744 146.212 206.128C146.567 206.502 147.052 206.69 147.666 206.69C148.281 206.69 148.766 206.502 149.121 206.128C149.486 205.744 149.668 205.197 149.668 204.486V200.066H151.31ZM154.951 201.218C155.191 200.814 155.508 200.502 155.901 200.282C156.305 200.051 156.78 199.936 157.327 199.936V201.635H156.909C156.266 201.635 155.777 201.798 155.441 202.125C155.114 202.451 154.951 203.018 154.951 203.824V208H153.309V200.066H154.951V201.218ZM165.513 197.992C166.578 197.992 167.51 198.198 168.306 198.611C169.113 199.014 169.732 199.6 170.164 200.368C170.606 201.126 170.826 202.014 170.826 203.032C170.826 204.05 170.606 204.933 170.164 205.682C169.732 206.43 169.113 207.006 168.306 207.41C167.51 207.803 166.578 208 165.513 208H162.244V197.992H165.513ZM165.513 206.661C166.684 206.661 167.582 206.344 168.206 205.71C168.83 205.077 169.142 204.184 169.142 203.032C169.142 201.87 168.83 200.963 168.206 200.31C167.582 199.658 166.684 199.331 165.513 199.331H163.886V206.661H165.513ZM179.559 203.838C179.559 204.136 179.54 204.405 179.501 204.645H173.439C173.487 205.278 173.722 205.787 174.145 206.171C174.567 206.555 175.085 206.747 175.7 206.747C176.583 206.747 177.207 206.378 177.572 205.638H179.343C179.103 206.368 178.666 206.968 178.033 207.438C177.409 207.899 176.631 208.13 175.7 208.13C174.941 208.13 174.26 207.962 173.655 207.626C173.06 207.28 172.589 206.8 172.244 206.186C171.908 205.562 171.74 204.842 171.74 204.026C171.74 203.21 171.903 202.494 172.229 201.88C172.565 201.256 173.031 200.776 173.626 200.44C174.231 200.104 174.922 199.936 175.7 199.936C176.449 199.936 177.116 200.099 177.701 200.426C178.287 200.752 178.743 201.213 179.069 201.808C179.396 202.394 179.559 203.07 179.559 203.838ZM177.845 203.32C177.836 202.715 177.62 202.23 177.197 201.866C176.775 201.501 176.252 201.318 175.628 201.318C175.061 201.318 174.577 201.501 174.173 201.866C173.77 202.221 173.53 202.706 173.453 203.32H177.845ZM182.65 201.246C182.928 200.862 183.307 200.55 183.787 200.31C184.277 200.061 184.819 199.936 185.415 199.936C186.115 199.936 186.749 200.104 187.315 200.44C187.882 200.776 188.328 201.256 188.655 201.88C188.981 202.494 189.144 203.2 189.144 203.997C189.144 204.794 188.981 205.509 188.655 206.142C188.328 206.766 187.877 207.256 187.301 207.611C186.735 207.957 186.106 208.13 185.415 208.13C184.8 208.13 184.253 208.01 183.773 207.77C183.303 207.53 182.928 207.222 182.65 206.848V208H181.008V197.344H182.65V201.246ZM187.474 203.997C187.474 203.45 187.359 202.979 187.128 202.586C186.907 202.182 186.61 201.88 186.235 201.678C185.871 201.467 185.477 201.362 185.055 201.362C184.642 201.362 184.248 201.467 183.874 201.678C183.509 201.89 183.211 202.197 182.981 202.6C182.76 203.003 182.65 203.478 182.65 204.026C182.65 204.573 182.76 205.053 182.981 205.466C183.211 205.869 183.509 206.176 183.874 206.387C184.248 206.598 184.642 206.704 185.055 206.704C185.477 206.704 185.871 206.598 186.235 206.387C186.61 206.166 186.907 205.85 187.128 205.437C187.359 205.024 187.474 204.544 187.474 203.997ZM191.437 199.014C191.139 199.014 190.889 198.914 190.688 198.712C190.486 198.51 190.385 198.261 190.385 197.963C190.385 197.666 190.486 197.416 190.688 197.214C190.889 197.013 191.139 196.912 191.437 196.912C191.725 196.912 191.969 197.013 192.171 197.214C192.373 197.416 192.473 197.666 192.473 197.963C192.473 198.261 192.373 198.51 192.171 198.712C191.969 198.914 191.725 199.014 191.437 199.014ZM192.243 200.066V208H190.601V200.066H192.243ZM196.147 201.405V205.797C196.147 206.094 196.214 206.31 196.349 206.445C196.493 206.57 196.733 206.632 197.069 206.632H198.077V208H196.781C196.042 208 195.475 207.827 195.082 207.482C194.688 207.136 194.491 206.574 194.491 205.797V201.405H193.555V200.066H194.491V198.093H196.147V200.066H198.077V201.405H196.147ZM202.451 202.974C202.451 201.995 202.676 201.117 203.127 200.339C203.588 199.562 204.207 198.957 204.985 198.525C205.772 198.083 206.631 197.862 207.563 197.862C208.628 197.862 209.574 198.126 210.399 198.654C211.235 199.173 211.839 199.912 212.214 200.872H210.241C209.982 200.344 209.622 199.95 209.161 199.691C208.7 199.432 208.167 199.302 207.563 199.302C206.9 199.302 206.31 199.451 205.791 199.749C205.273 200.046 204.865 200.474 204.567 201.03C204.279 201.587 204.135 202.235 204.135 202.974C204.135 203.714 204.279 204.362 204.567 204.918C204.865 205.475 205.273 205.907 205.791 206.214C206.31 206.512 206.9 206.661 207.563 206.661C208.167 206.661 208.7 206.531 209.161 206.272C209.622 206.013 209.982 205.619 210.241 205.091H212.214C211.839 206.051 211.235 206.79 210.399 207.309C209.574 207.827 208.628 208.086 207.563 208.086C206.622 208.086 205.763 207.87 204.985 207.438C204.207 206.997 203.588 206.387 203.127 205.61C202.676 204.832 202.451 203.954 202.451 202.974ZM213.422 203.997C213.422 203.2 213.585 202.494 213.911 201.88C214.247 201.266 214.699 200.79 215.265 200.454C215.841 200.109 216.475 199.936 217.166 199.936C217.79 199.936 218.332 200.061 218.793 200.31C219.263 200.55 219.638 200.853 219.916 201.218V200.066H221.572V208H219.916V206.819C219.638 207.194 219.259 207.506 218.779 207.755C218.299 208.005 217.751 208.13 217.137 208.13C216.455 208.13 215.831 207.957 215.265 207.611C214.699 207.256 214.247 206.766 213.911 206.142C213.585 205.509 213.422 204.794 213.422 203.997ZM219.916 204.026C219.916 203.478 219.801 203.003 219.571 202.6C219.35 202.197 219.057 201.89 218.692 201.678C218.327 201.467 217.934 201.362 217.511 201.362C217.089 201.362 216.695 201.467 216.331 201.678C215.966 201.88 215.668 202.182 215.438 202.586C215.217 202.979 215.107 203.45 215.107 203.997C215.107 204.544 215.217 205.024 215.438 205.437C215.668 205.85 215.966 206.166 216.331 206.387C216.705 206.598 217.099 206.704 217.511 206.704C217.934 206.704 218.327 206.598 218.692 206.387C219.057 206.176 219.35 205.869 219.571 205.466C219.801 205.053 219.916 204.573 219.916 204.026ZM225.204 201.218C225.444 200.814 225.76 200.502 226.154 200.282C226.557 200.051 227.032 199.936 227.58 199.936V201.635H227.162C226.519 201.635 226.029 201.798 225.693 202.125C225.367 202.451 225.204 203.018 225.204 203.824V208H223.562V200.066H225.204V201.218ZM228.375 203.997C228.375 203.2 228.538 202.494 228.865 201.88C229.201 201.266 229.652 200.79 230.218 200.454C230.794 200.109 231.433 199.936 232.134 199.936C232.652 199.936 233.161 200.051 233.66 200.282C234.169 200.502 234.572 200.8 234.87 201.174V197.344H236.526V208H234.87V206.805C234.601 207.189 234.226 207.506 233.746 207.755C233.276 208.005 232.734 208.13 232.119 208.13C231.428 208.13 230.794 207.957 230.218 207.611C229.652 207.256 229.201 206.766 228.865 206.142C228.538 205.509 228.375 204.794 228.375 203.997ZM234.87 204.026C234.87 203.478 234.754 203.003 234.524 202.6C234.303 202.197 234.01 201.89 233.646 201.678C233.281 201.467 232.887 201.362 232.465 201.362C232.042 201.362 231.649 201.467 231.284 201.678C230.919 201.88 230.622 202.182 230.391 202.586C230.17 202.979 230.06 203.45 230.06 203.997C230.06 204.544 230.17 205.024 230.391 205.437C230.622 205.85 230.919 206.166 231.284 206.387C231.658 206.598 232.052 206.704 232.465 206.704C232.887 206.704 233.281 206.598 233.646 206.387C234.01 206.176 234.303 205.869 234.524 205.466C234.754 205.053 234.87 204.573 234.87 204.026ZM248.555 197.992V199.331H245.891V208H244.25V199.331H241.571V197.992H248.555ZM253.493 208.13C252.744 208.13 252.068 207.962 251.463 207.626C250.858 207.28 250.383 206.8 250.037 206.186C249.692 205.562 249.519 204.842 249.519 204.026C249.519 203.219 249.696 202.504 250.052 201.88C250.407 201.256 250.892 200.776 251.506 200.44C252.12 200.104 252.807 199.936 253.565 199.936C254.324 199.936 255.01 200.104 255.624 200.44C256.239 200.776 256.724 201.256 257.079 201.88C257.434 202.504 257.612 203.219 257.612 204.026C257.612 204.832 257.429 205.547 257.064 206.171C256.7 206.795 256.2 207.28 255.567 207.626C254.943 207.962 254.252 208.13 253.493 208.13ZM253.493 206.704C253.916 206.704 254.309 206.603 254.674 206.402C255.048 206.2 255.351 205.898 255.581 205.494C255.812 205.091 255.927 204.602 255.927 204.026C255.927 203.45 255.816 202.965 255.596 202.571C255.375 202.168 255.082 201.866 254.717 201.664C254.352 201.462 253.959 201.362 253.536 201.362C253.114 201.362 252.72 201.462 252.356 201.664C252 201.866 251.717 202.168 251.506 202.571C251.295 202.965 251.189 203.45 251.189 204.026C251.189 204.88 251.405 205.542 251.837 206.013C252.279 206.474 252.831 206.704 253.493 206.704ZM264.284 201.246C264.562 200.862 264.942 200.55 265.422 200.31C265.911 200.061 266.454 199.936 267.049 199.936C267.75 199.936 268.383 200.104 268.95 200.44C269.516 200.776 269.962 201.256 270.289 201.88C270.615 202.494 270.778 203.2 270.778 203.997C270.778 204.794 270.615 205.509 270.289 206.142C269.962 206.766 269.511 207.256 268.935 207.611C268.369 207.957 267.74 208.13 267.049 208.13C266.434 208.13 265.887 208.01 265.407 207.77C264.937 207.53 264.562 207.222 264.284 206.848V208H262.642V197.344H264.284V201.246ZM269.108 203.997C269.108 203.45 268.993 202.979 268.762 202.586C268.542 202.182 268.244 201.88 267.87 201.678C267.505 201.467 267.111 201.362 266.689 201.362C266.276 201.362 265.882 201.467 265.508 201.678C265.143 201.89 264.846 202.197 264.615 202.6C264.394 203.003 264.284 203.478 264.284 204.026C264.284 204.573 264.394 205.053 264.615 205.466C264.846 205.869 265.143 206.176 265.508 206.387C265.882 206.598 266.276 206.704 266.689 206.704C267.111 206.704 267.505 206.598 267.87 206.387C268.244 206.166 268.542 205.85 268.762 205.437C268.993 205.024 269.108 204.544 269.108 203.997ZM279.508 203.838C279.508 204.136 279.488 204.405 279.45 204.645H273.388C273.436 205.278 273.671 205.787 274.093 206.171C274.516 206.555 275.034 206.747 275.648 206.747C276.532 206.747 277.156 206.378 277.52 205.638H279.292C279.052 206.368 278.615 206.968 277.981 207.438C277.357 207.899 276.58 208.13 275.648 208.13C274.89 208.13 274.208 207.962 273.604 207.626C273.008 207.28 272.538 206.8 272.192 206.186C271.856 205.562 271.688 204.842 271.688 204.026C271.688 203.21 271.852 202.494 272.178 201.88C272.514 201.256 272.98 200.776 273.575 200.44C274.18 200.104 274.871 199.936 275.648 199.936C276.397 199.936 277.064 200.099 277.65 200.426C278.236 200.752 278.692 201.213 279.018 201.808C279.344 202.394 279.508 203.07 279.508 203.838ZM277.794 203.32C277.784 202.715 277.568 202.23 277.146 201.866C276.724 201.501 276.2 201.318 275.576 201.318C275.01 201.318 274.525 201.501 274.122 201.866C273.719 202.221 273.479 202.706 273.402 203.32H277.794ZM98.3489 224.859C98.8865 224.955 99.3425 225.238 99.7169 225.709C100.091 226.179 100.279 226.712 100.279 227.307C100.279 227.816 100.144 228.277 99.8753 228.69C99.6161 229.093 99.2369 229.414 98.7377 229.654C98.2385 229.885 97.6577 230 96.9953 230H92.9921V219.992H96.8081C97.4897 219.992 98.0753 220.107 98.5649 220.338C99.0545 220.568 99.4241 220.88 99.6737 221.274C99.9233 221.658 100.048 222.09 100.048 222.57C100.048 223.146 99.8945 223.626 99.5873 224.01C99.2801 224.394 98.8673 224.677 98.3489 224.859ZM94.6337 224.197H96.6641C97.2017 224.197 97.6193 224.077 97.9169 223.837C98.2241 223.587 98.3777 223.232 98.3777 222.771C98.3777 222.32 98.2241 221.97 97.9169 221.72C97.6193 221.461 97.2017 221.331 96.6641 221.331H94.6337V224.197ZM96.8513 228.661C97.4081 228.661 97.8449 228.526 98.1617 228.258C98.4785 227.989 98.6369 227.614 98.6369 227.134C98.6369 226.645 98.4689 226.256 98.1329 225.968C97.7969 225.68 97.3505 225.536 96.7937 225.536H94.6337V228.661H96.8513ZM103.538 219.344V230H101.896V219.344H103.538ZM108.968 230.13C108.22 230.13 107.543 229.962 106.938 229.626C106.333 229.28 105.858 228.8 105.512 228.186C105.167 227.562 104.994 226.842 104.994 226.026C104.994 225.219 105.172 224.504 105.527 223.88C105.882 223.256 106.367 222.776 106.981 222.44C107.596 222.104 108.282 221.936 109.04 221.936C109.799 221.936 110.485 222.104 111.1 222.44C111.714 222.776 112.199 223.256 112.554 223.88C112.909 224.504 113.087 225.219 113.087 226.026C113.087 226.832 112.904 227.547 112.54 228.171C112.175 228.795 111.676 229.28 111.042 229.626C110.418 229.962 109.727 230.13 108.968 230.13ZM108.968 228.704C109.391 228.704 109.784 228.603 110.149 228.402C110.524 228.2 110.826 227.898 111.056 227.494C111.287 227.091 111.402 226.602 111.402 226.026C111.402 225.45 111.292 224.965 111.071 224.571C110.85 224.168 110.557 223.866 110.192 223.664C109.828 223.462 109.434 223.362 109.012 223.362C108.589 223.362 108.196 223.462 107.831 223.664C107.476 223.866 107.192 224.168 106.981 224.571C106.77 224.965 106.664 225.45 106.664 226.026C106.664 226.88 106.88 227.542 107.312 228.013C107.754 228.474 108.306 228.704 108.968 228.704ZM113.996 226.026C113.996 225.21 114.159 224.494 114.486 223.88C114.822 223.256 115.282 222.776 115.868 222.44C116.454 222.104 117.126 221.936 117.884 221.936C118.844 221.936 119.636 222.166 120.26 222.627C120.894 223.078 121.321 223.726 121.542 224.571H119.77C119.626 224.178 119.396 223.87 119.079 223.65C118.762 223.429 118.364 223.318 117.884 223.318C117.212 223.318 116.674 223.558 116.271 224.038C115.878 224.509 115.681 225.171 115.681 226.026C115.681 226.88 115.878 227.547 116.271 228.027C116.674 228.507 117.212 228.747 117.884 228.747C118.834 228.747 119.463 228.33 119.77 227.494H121.542C121.311 228.301 120.879 228.944 120.246 229.424C119.612 229.894 118.825 230.13 117.884 230.13C117.126 230.13 116.454 229.962 115.868 229.626C115.282 229.28 114.822 228.8 114.486 228.186C114.159 227.562 113.996 226.842 113.996 226.026ZM126.151 226.04L129.808 230H127.591L124.653 226.587V230H123.011V219.344H124.653V225.536L127.533 222.066H129.808L126.151 226.04ZM138.09 225.838C138.09 226.136 138.071 226.405 138.033 226.645H131.97C132.018 227.278 132.254 227.787 132.676 228.171C133.098 228.555 133.617 228.747 134.231 228.747C135.114 228.747 135.738 228.378 136.103 227.638H137.874C137.634 228.368 137.198 228.968 136.564 229.438C135.94 229.899 135.162 230.13 134.231 230.13C133.473 230.13 132.791 229.962 132.186 229.626C131.591 229.28 131.121 228.8 130.775 228.186C130.439 227.562 130.271 226.842 130.271 226.026C130.271 225.21 130.434 224.494 130.761 223.88C131.097 223.256 131.562 222.776 132.158 222.44C132.762 222.104 133.454 221.936 134.231 221.936C134.98 221.936 135.647 222.099 136.233 222.426C136.818 222.752 137.274 223.213 137.601 223.808C137.927 224.394 138.09 225.07 138.09 225.838ZM136.377 225.32C136.367 224.715 136.151 224.23 135.729 223.866C135.306 223.501 134.783 223.318 134.159 223.318C133.593 223.318 133.108 223.501 132.705 223.866C132.302 224.221 132.062 224.706 131.985 225.32H136.377ZM138.992 225.997C138.992 225.2 139.156 224.494 139.482 223.88C139.818 223.266 140.269 222.79 140.836 222.454C141.412 222.109 142.05 221.936 142.751 221.936C143.269 221.936 143.778 222.051 144.277 222.282C144.786 222.502 145.189 222.8 145.487 223.174V219.344H147.143V230H145.487V228.805C145.218 229.189 144.844 229.506 144.364 229.755C143.893 230.005 143.351 230.13 142.736 230.13C142.045 230.13 141.412 229.957 140.836 229.611C140.269 229.256 139.818 228.766 139.482 228.142C139.156 227.509 138.992 226.794 138.992 225.997ZM145.487 226.026C145.487 225.478 145.372 225.003 145.141 224.6C144.92 224.197 144.628 223.89 144.263 223.678C143.898 223.467 143.504 223.362 143.082 223.362C142.66 223.362 142.266 223.467 141.901 223.678C141.536 223.88 141.239 224.182 141.008 224.586C140.788 224.979 140.677 225.45 140.677 225.997C140.677 226.544 140.788 227.024 141.008 227.437C141.239 227.85 141.536 228.166 141.901 228.387C142.276 228.598 142.669 228.704 143.082 228.704C143.504 228.704 143.898 228.598 144.263 228.387C144.628 228.176 144.92 227.869 145.141 227.466C145.372 227.053 145.487 226.573 145.487 226.026ZM159.173 219.992V221.331H156.509V230H154.867V221.331H152.189V219.992H159.173ZM167.941 225.838C167.941 226.136 167.922 226.405 167.883 226.645H161.821C161.869 227.278 162.104 227.787 162.527 228.171C162.949 228.555 163.467 228.747 164.082 228.747C164.965 228.747 165.589 228.378 165.954 227.638H167.725C167.485 228.368 167.048 228.968 166.415 229.438C165.791 229.899 165.013 230.13 164.082 230.13C163.323 230.13 162.642 229.962 162.037 229.626C161.442 229.28 160.971 228.8 160.626 228.186C160.29 227.562 160.122 226.842 160.122 226.026C160.122 225.21 160.285 224.494 160.611 223.88C160.947 223.256 161.413 222.776 162.008 222.44C162.613 222.104 163.304 221.936 164.082 221.936C164.831 221.936 165.498 222.099 166.083 222.426C166.669 222.752 167.125 223.213 167.451 223.808C167.778 224.394 167.941 225.07 167.941 225.838ZM166.227 225.32C166.218 224.715 166.002 224.23 165.579 223.866C165.157 223.501 164.634 223.318 164.01 223.318C163.443 223.318 162.959 223.501 162.555 223.866C162.152 224.221 161.912 224.706 161.835 225.32H166.227ZM178.995 221.936C179.619 221.936 180.176 222.066 180.665 222.325C181.165 222.584 181.553 222.968 181.832 223.477C182.12 223.986 182.264 224.6 182.264 225.32V230H180.637V225.565C180.637 224.854 180.459 224.312 180.104 223.938C179.749 223.554 179.264 223.362 178.649 223.362C178.035 223.362 177.545 223.554 177.181 223.938C176.825 224.312 176.648 224.854 176.648 225.565V230H175.021V225.565C175.021 224.854 174.843 224.312 174.488 223.938C174.133 223.554 173.648 223.362 173.033 223.362C172.419 223.362 171.929 223.554 171.565 223.938C171.209 224.312 171.032 224.854 171.032 225.565V230H169.39V222.066H171.032V222.973C171.301 222.646 171.641 222.392 172.054 222.21C172.467 222.027 172.909 221.936 173.379 221.936C174.013 221.936 174.579 222.07 175.078 222.339C175.577 222.608 175.961 222.997 176.23 223.506C176.47 223.026 176.845 222.646 177.353 222.368C177.862 222.08 178.409 221.936 178.995 221.936ZM185.828 223.232C186.106 222.867 186.486 222.56 186.966 222.31C187.446 222.061 187.988 221.936 188.593 221.936C189.284 221.936 189.913 222.109 190.479 222.454C191.055 222.79 191.506 223.266 191.833 223.88C192.159 224.494 192.322 225.2 192.322 225.997C192.322 226.794 192.159 227.509 191.833 228.142C191.506 228.766 191.055 229.256 190.479 229.611C189.913 229.957 189.284 230.13 188.593 230.13C187.988 230.13 187.45 230.01 186.98 229.77C186.51 229.52 186.126 229.213 185.828 228.848V233.773H184.186V222.066H185.828V223.232ZM190.652 225.997C190.652 225.45 190.537 224.979 190.306 224.586C190.086 224.182 189.788 223.88 189.414 223.678C189.049 223.467 188.655 223.362 188.233 223.362C187.82 223.362 187.426 223.467 187.052 223.678C186.687 223.89 186.39 224.197 186.159 224.6C185.938 225.003 185.828 225.478 185.828 226.026C185.828 226.573 185.938 227.053 186.159 227.466C186.39 227.869 186.687 228.176 187.052 228.387C187.426 228.598 187.82 228.704 188.233 228.704C188.655 228.704 189.049 228.598 189.414 228.387C189.788 228.166 190.086 227.85 190.306 227.437C190.537 227.024 190.652 226.544 190.652 225.997ZM197.221 230.13C196.472 230.13 195.795 229.962 195.191 229.626C194.586 229.28 194.111 228.8 193.765 228.186C193.419 227.562 193.247 226.842 193.247 226.026C193.247 225.219 193.424 224.504 193.779 223.88C194.135 223.256 194.619 222.776 195.234 222.44C195.848 222.104 196.535 221.936 197.293 221.936C198.051 221.936 198.738 222.104 199.352 222.44C199.967 222.776 200.451 223.256 200.807 223.88C201.162 224.504 201.339 225.219 201.339 226.026C201.339 226.832 201.157 227.547 200.792 228.171C200.427 228.795 199.928 229.28 199.295 229.626C198.671 229.962 197.979 230.13 197.221 230.13ZM197.221 228.704C197.643 228.704 198.037 228.603 198.402 228.402C198.776 228.2 199.079 227.898 199.309 227.494C199.539 227.091 199.655 226.602 199.655 226.026C199.655 225.45 199.544 224.965 199.323 224.571C199.103 224.168 198.81 223.866 198.445 223.664C198.08 223.462 197.687 223.362 197.264 223.362C196.842 223.362 196.448 223.462 196.083 223.664C195.728 223.866 195.445 224.168 195.234 224.571C195.023 224.965 194.917 225.45 194.917 226.026C194.917 226.88 195.133 227.542 195.565 228.013C196.007 228.474 196.559 228.704 197.221 228.704ZM204.438 223.218C204.678 222.814 204.994 222.502 205.388 222.282C205.791 222.051 206.266 221.936 206.814 221.936V223.635H206.396C205.753 223.635 205.263 223.798 204.927 224.125C204.601 224.451 204.438 225.018 204.438 225.824V230H202.796V222.066H204.438V223.218ZM207.609 225.997C207.609 225.2 207.772 224.494 208.099 223.88C208.435 223.266 208.886 222.79 209.452 222.454C210.028 222.109 210.662 221.936 211.353 221.936C211.977 221.936 212.519 222.061 212.98 222.31C213.451 222.55 213.825 222.853 214.103 223.218V222.066H215.759V230H214.103V228.819C213.825 229.194 213.446 229.506 212.966 229.755C212.486 230.005 211.939 230.13 211.324 230.13C210.643 230.13 210.019 229.957 209.452 229.611C208.886 229.256 208.435 228.766 208.099 228.142C207.772 227.509 207.609 226.794 207.609 225.997ZM214.103 226.026C214.103 225.478 213.988 225.003 213.758 224.6C213.537 224.197 213.244 223.89 212.879 223.678C212.515 223.467 212.121 223.362 211.699 223.362C211.276 223.362 210.883 223.467 210.518 223.678C210.153 223.88 209.855 224.182 209.625 224.586C209.404 224.979 209.294 225.45 209.294 225.997C209.294 226.544 209.404 227.024 209.625 227.437C209.855 227.85 210.153 228.166 210.518 228.387C210.892 228.598 211.286 228.704 211.699 228.704C212.121 228.704 212.515 228.598 212.879 228.387C213.244 228.176 213.537 227.869 213.758 227.466C213.988 227.053 214.103 226.573 214.103 226.026ZM219.391 223.218C219.631 222.814 219.948 222.502 220.341 222.282C220.745 222.051 221.22 221.936 221.767 221.936V223.635H221.349C220.706 223.635 220.217 223.798 219.881 224.125C219.554 224.451 219.391 225.018 219.391 225.824V230H217.749V222.066H219.391V223.218ZM223.945 221.014C223.647 221.014 223.398 220.914 223.196 220.712C222.994 220.51 222.894 220.261 222.894 219.963C222.894 219.666 222.994 219.416 223.196 219.214C223.398 219.013 223.647 218.912 223.945 218.912C224.233 218.912 224.478 219.013 224.679 219.214C224.881 219.416 224.982 219.666 224.982 219.963C224.982 220.261 224.881 220.51 224.679 220.712C224.478 220.914 224.233 221.014 223.945 221.014ZM224.751 222.066V230H223.11V222.066H224.751ZM228.382 219.344V230H226.74V219.344H228.382ZM237.513 222.066L232.646 233.73H230.947L232.56 229.87L229.435 222.066H231.264L233.496 228.114L235.814 222.066H237.513ZM241.279 219.848C242.258 219.848 243.04 220.117 243.626 220.654C244.221 221.192 244.519 221.926 244.519 222.858C244.519 223.827 244.211 224.557 243.597 225.046C242.983 225.536 242.167 225.781 241.149 225.781L241.091 226.918H239.666L239.594 224.658H240.069C241 224.658 241.711 224.533 242.2 224.283C242.699 224.034 242.949 223.558 242.949 222.858C242.949 222.349 242.8 221.95 242.503 221.662C242.215 221.374 241.811 221.23 241.293 221.23C240.775 221.23 240.367 221.37 240.069 221.648C239.771 221.926 239.623 222.315 239.623 222.814H238.082C238.082 222.238 238.211 221.725 238.471 221.274C238.73 220.822 239.099 220.472 239.579 220.222C240.069 219.973 240.635 219.848 241.279 219.848ZM240.357 230.101C240.059 230.101 239.81 230 239.608 229.798C239.407 229.597 239.306 229.347 239.306 229.05C239.306 228.752 239.407 228.502 239.608 228.301C239.81 228.099 240.059 227.998 240.357 227.998C240.645 227.998 240.89 228.099 241.091 228.301C241.293 228.502 241.394 228.752 241.394 229.05C241.394 229.347 241.293 229.597 241.091 229.798C240.89 230 240.645 230.101 240.357 230.101Z" fill="black"/>
<path d="M99.2789 170.074H93.1629L92.1509 173H88.9169L94.4389 157.622H98.0249L103.547 173H100.291L99.2789 170.074ZM98.4429 167.61L96.2209 161.186L93.9989 167.61H98.4429ZM108.506 162.704C108.902 162.059 109.416 161.553 110.046 161.186C110.692 160.819 111.425 160.636 112.246 160.636V163.87H111.432C110.464 163.87 109.731 164.097 109.232 164.552C108.748 165.007 108.506 165.799 108.506 166.928V173H105.426V160.812H108.506V162.704ZM125.466 166.642C125.466 167.082 125.437 167.478 125.378 167.83H116.468C116.541 168.71 116.849 169.399 117.392 169.898C117.935 170.397 118.602 170.646 119.394 170.646C120.538 170.646 121.352 170.155 121.836 169.172H125.158C124.806 170.345 124.131 171.313 123.134 172.076C122.137 172.824 120.912 173.198 119.46 173.198C118.287 173.198 117.231 172.941 116.292 172.428C115.368 171.9 114.642 171.159 114.114 170.206C113.601 169.253 113.344 168.153 113.344 166.906C113.344 165.645 113.601 164.537 114.114 163.584C114.627 162.631 115.346 161.897 116.27 161.384C117.194 160.871 118.257 160.614 119.46 160.614C120.619 160.614 121.653 160.863 122.562 161.362C123.486 161.861 124.197 162.572 124.696 163.496C125.209 164.405 125.466 165.454 125.466 166.642ZM122.276 165.762C122.261 164.97 121.975 164.339 121.418 163.87C120.861 163.386 120.179 163.144 119.372 163.144C118.609 163.144 117.964 163.379 117.436 163.848C116.923 164.303 116.607 164.941 116.49 165.762H122.276ZM144.797 157.644L139.605 167.654V173H136.525V167.654L131.311 157.644H134.787L138.087 164.662L141.365 157.644H144.797ZM151.8 173.198C150.627 173.198 149.571 172.941 148.632 172.428C147.694 171.9 146.953 171.159 146.41 170.206C145.882 169.253 145.618 168.153 145.618 166.906C145.618 165.659 145.89 164.559 146.432 163.606C146.99 162.653 147.745 161.919 148.698 161.406C149.652 160.878 150.715 160.614 151.888 160.614C153.062 160.614 154.125 160.878 155.078 161.406C156.032 161.919 156.78 162.653 157.322 163.606C157.88 164.559 158.158 165.659 158.158 166.906C158.158 168.153 157.872 169.253 157.3 170.206C156.743 171.159 155.98 171.9 155.012 172.428C154.059 172.941 152.988 173.198 151.8 173.198ZM151.8 170.514C152.358 170.514 152.878 170.382 153.362 170.118C153.861 169.839 154.257 169.429 154.55 168.886C154.844 168.343 154.99 167.683 154.99 166.906C154.99 165.747 154.682 164.86 154.066 164.244C153.465 163.613 152.724 163.298 151.844 163.298C150.964 163.298 150.224 163.613 149.622 164.244C149.036 164.86 148.742 165.747 148.742 166.906C148.742 168.065 149.028 168.959 149.6 169.59C150.187 170.206 150.92 170.514 151.8 170.514ZM171.739 160.812V173H168.637V171.46C168.241 171.988 167.72 172.406 167.075 172.714C166.444 173.007 165.755 173.154 165.007 173.154C164.054 173.154 163.21 172.956 162.477 172.56C161.744 172.149 161.164 171.555 160.739 170.778C160.328 169.986 160.123 169.047 160.123 167.962V160.812H163.203V167.522C163.203 168.49 163.445 169.238 163.929 169.766C164.413 170.279 165.073 170.536 165.909 170.536C166.76 170.536 167.427 170.279 167.911 169.766C168.395 169.238 168.637 168.49 168.637 167.522V160.812H171.739ZM184.952 173.154C183.882 173.154 182.914 172.971 182.048 172.604C181.198 172.237 180.523 171.709 180.024 171.02C179.526 170.331 179.269 169.517 179.254 168.578H182.554C182.598 169.209 182.818 169.707 183.214 170.074C183.625 170.441 184.182 170.624 184.886 170.624C185.605 170.624 186.17 170.455 186.58 170.118C186.991 169.766 187.196 169.311 187.196 168.754C187.196 168.299 187.057 167.925 186.778 167.632C186.5 167.339 186.148 167.111 185.722 166.95C185.312 166.774 184.74 166.583 184.006 166.378C183.009 166.085 182.195 165.799 181.564 165.52C180.948 165.227 180.413 164.794 179.958 164.222C179.518 163.635 179.298 162.858 179.298 161.89C179.298 160.981 179.526 160.189 179.98 159.514C180.435 158.839 181.073 158.326 181.894 157.974C182.716 157.607 183.654 157.424 184.71 157.424C186.294 157.424 187.578 157.813 188.56 158.59C189.558 159.353 190.108 160.423 190.21 161.802H186.822C186.793 161.274 186.566 160.841 186.14 160.504C185.73 160.152 185.18 159.976 184.49 159.976C183.889 159.976 183.405 160.13 183.038 160.438C182.686 160.746 182.51 161.193 182.51 161.78C182.51 162.191 182.642 162.535 182.906 162.814C183.185 163.078 183.522 163.298 183.918 163.474C184.329 163.635 184.901 163.826 185.634 164.046C186.632 164.339 187.446 164.633 188.076 164.926C188.707 165.219 189.25 165.659 189.704 166.246C190.159 166.833 190.386 167.603 190.386 168.556C190.386 169.377 190.174 170.14 189.748 170.844C189.323 171.548 188.7 172.113 187.878 172.538C187.057 172.949 186.082 173.154 184.952 173.154ZM204.378 160.812V173H201.276V171.46C200.88 171.988 200.359 172.406 199.714 172.714C199.083 173.007 198.394 173.154 197.646 173.154C196.693 173.154 195.849 172.956 195.116 172.56C194.383 172.149 193.803 171.555 193.378 170.778C192.967 169.986 192.762 169.047 192.762 167.962V160.812H195.842V167.522C195.842 168.49 196.084 169.238 196.568 169.766C197.052 170.279 197.712 170.536 198.548 170.536C199.399 170.536 200.066 170.279 200.55 169.766C201.034 169.238 201.276 168.49 201.276 167.522V160.812H204.378ZM210.312 162.704C210.708 162.059 211.221 161.553 211.852 161.186C212.497 160.819 213.231 160.636 214.052 160.636V163.87H213.238C212.27 163.87 211.537 164.097 211.038 164.552C210.554 165.007 210.312 165.799 210.312 166.928V173H207.232V160.812H210.312V162.704ZM227.272 166.642C227.272 167.082 227.242 167.478 227.184 167.83H218.274C218.347 168.71 218.655 169.399 219.198 169.898C219.74 170.397 220.408 170.646 221.2 170.646C222.344 170.646 223.158 170.155 223.642 169.172H226.964C226.612 170.345 225.937 171.313 224.94 172.076C223.942 172.824 222.718 173.198 221.266 173.198C220.092 173.198 219.036 172.941 218.098 172.428C217.174 171.9 216.448 171.159 215.92 170.206C215.406 169.253 215.15 168.153 215.15 166.906C215.15 165.645 215.406 164.537 215.92 163.584C216.433 162.631 217.152 161.897 218.076 161.384C219 160.871 220.063 160.614 221.266 160.614C222.424 160.614 223.458 160.863 224.368 161.362C225.292 161.861 226.003 162.572 226.502 163.496C227.015 164.405 227.272 165.454 227.272 166.642ZM224.082 165.762C224.067 164.97 223.781 164.339 223.224 163.87C222.666 163.386 221.984 163.144 221.178 163.144C220.415 163.144 219.77 163.379 219.242 163.848C218.728 164.303 218.413 164.941 218.296 165.762H224.082ZM233.625 157.116C235.151 157.116 236.375 157.534 237.299 158.37C238.238 159.191 238.707 160.328 238.707 161.78C238.707 163.217 238.245 164.317 237.321 165.08C236.397 165.828 235.173 166.202 233.647 166.202L233.559 167.896H230.853L230.743 164.156H231.733C233.009 164.156 233.992 163.987 234.681 163.65C235.371 163.313 235.715 162.697 235.715 161.802C235.715 161.157 235.525 160.643 235.143 160.262C234.777 159.881 234.271 159.69 233.625 159.69C232.951 159.69 232.423 159.873 232.041 160.24C231.675 160.607 231.491 161.113 231.491 161.758H228.587C228.573 160.863 228.763 160.064 229.159 159.36C229.555 158.656 230.135 158.106 230.897 157.71C231.675 157.314 232.584 157.116 233.625 157.116ZM232.195 173.154C231.638 173.154 231.176 172.985 230.809 172.648C230.457 172.296 230.281 171.863 230.281 171.35C230.281 170.837 230.457 170.411 230.809 170.074C231.176 169.722 231.638 169.546 232.195 169.546C232.738 169.546 233.185 169.722 233.537 170.074C233.889 170.411 234.065 170.837 234.065 171.35C234.065 171.863 233.889 172.296 233.537 172.648C233.185 172.985 232.738 173.154 232.195 173.154Z" fill="#007438"/>
<g filter="url(#filter1_dd_574_1590)">
<rect x="170" y="289" width="125" height="50" rx="6.47293" fill="#007438"/>
<path d="M225.353 318V309.6H226.889L230.837 315.516V309.6H232.373V318H230.837L226.889 312.096V318H225.353ZM236.822 318.144C236.246 318.144 235.726 318.012 235.262 317.748C234.806 317.484 234.442 317.12 234.17 316.656C233.906 316.184 233.774 315.64 233.774 315.024C233.774 314.408 233.91 313.868 234.182 313.404C234.454 312.932 234.818 312.564 235.274 312.3C235.738 312.036 236.258 311.904 236.834 311.904C237.402 311.904 237.914 312.036 238.37 312.3C238.834 312.564 239.198 312.932 239.462 313.404C239.734 313.868 239.87 314.408 239.87 315.024C239.87 315.64 239.734 316.184 239.462 316.656C239.198 317.12 238.834 317.484 238.37 317.748C237.906 318.012 237.39 318.144 236.822 318.144ZM236.822 316.812C237.222 316.812 237.57 316.664 237.866 316.368C238.162 316.064 238.31 315.616 238.31 315.024C238.31 314.432 238.162 313.988 237.866 313.692C237.57 313.388 237.226 313.236 236.834 313.236C236.426 313.236 236.074 313.388 235.778 313.692C235.49 313.988 235.346 314.432 235.346 315.024C235.346 315.616 235.49 316.064 235.778 316.368C236.074 316.664 236.422 316.812 236.822 316.812Z" fill="white"/>
</g>
<defs>
<filter id="filter0_dd_574_1590" x="31.7635" y="287.382" width="131.473" height="56.4729" filterUnits="userSpaceOnUse" color-interpolation-filters="sRGB">
<feFlood flood-opacity="0" result="BackgroundImageFix"/>
<feColorMatrix in="SourceAlpha" type="matrix" values="0 0 0 0 0 0 0 0 0 0 0 0 0 0 0 0 0 0 127 0" result="hardAlpha"/>
<feOffset dy="1.61823"/>
<feGaussianBlur stdDeviation="1.61823"/>
<feColorMatrix type="matrix" values="0 0 0 0 0.203922 0 0 0 0 0.235294 0 0 0 0 0.266667 0 0 0 0.16 0"/>
<feBlend mode="normal" in2="BackgroundImageFix" result="effect1_dropShadow_574_1590"/>
<feColorMatrix in="SourceAlpha" type="matrix" values="0 0 0 0 0 0 0 0 0 0 0 0 0 0 0 0 0 0 127 0" result="hardAlpha"/>
<feOffset/>
<feGaussianBlur stdDeviation="0.404558"/>
<feColorMatrix type="matrix" values="0 0 0 0 0.458824 0 0 0 0 0.513726 0 0 0 0 0.556863 0 0 0 0.04 0"/>
<feBlend mode="normal" in2="effect1_dropShadow_574_1590" result="effect2_dropShadow_574_1590"/>
<feBlend mode="normal" in="SourceGraphic" in2="effect2_dropShadow_574_1590" result="shape"/>
</filter>
<filter id="filter1_dd_574_1590" x="166.764" y="287.382" width="131.473" height="56.4729" filterUnits="userSpaceOnUse" color-interpolation-filters="sRGB">
<feFlood flood-opacity="0" result="BackgroundImageFix"/>
<feColorMatrix in="SourceAlpha" type="matrix" values="0 0 0 0 0 0 0 0 0 0 0 0 0 0 0 0 0 0 127 0" result="hardAlpha"/>
<feOffset dy="1.61823"/>
<feGaussianBlur stdDeviation="1.61823"/>
<feColorMatrix type="matrix" values="0 0 0 0 0.203922 0 0 0 0 0.235294 0 0 0 0 0.266667 0 0 0 0.16 0"/>
<feBlend mode="normal" in2="BackgroundImageFix" result="effect1_dropShadow_574_1590"/>
<feColorMatrix in="SourceAlpha" type="matrix" values="0 0 0 0 0 0 0 0 0 0 0 0 0 0 0 0 0 0 127 0" result="hardAlpha"/>
<feOffset/>
<feGaussianBlur stdDeviation="0.404558"/>
<feColorMatrix type="matrix" values="0 0 0 0 0.458824 0 0 0 0 0.513726 0 0 0 0 0.556863 0 0 0 0.04 0"/>
<feBlend mode="normal" in2="effect1_dropShadow_574_1590" result="effect2_dropShadow_574_1590"/>
<feBlend mode="normal" in="SourceGraphic" in2="effect2_dropShadow_574_1590" result="shape"/>
</filter>
</defs>
</svg>
