<svg width="328" height="367" viewBox="0 0 328 367" fill="none" xmlns="http://www.w3.org/2000/svg">
<rect width="328" height="367" rx="21" fill="white"/>
<rect x="22.325" y="53.325" width="283.95" height="36.45" rx="7.20523" stroke="#007438" stroke-width="1.35"/>
<path d="M48.3972 76.0798C47.8728 76.0798 47.4016 75.9886 46.9836 75.8062C46.5732 75.6162 46.2502 75.3578 46.0146 75.031C45.779 74.6966 45.6574 74.3128 45.6498 73.8796H46.7556C46.7936 74.252 46.9456 74.5674 47.2116 74.8258C47.4852 75.0766 47.8804 75.202 48.3972 75.202C48.8912 75.202 49.2788 75.0804 49.56 74.8372C49.8488 74.5864 49.9932 74.2672 49.9932 73.8796C49.9932 73.5756 49.9096 73.3286 49.7424 73.1386C49.5752 72.9486 49.3662 72.8042 49.1154 72.7054C48.8646 72.6066 48.5264 72.5002 48.1008 72.3862C47.5764 72.2494 47.1546 72.1126 46.8354 71.9758C46.5238 71.839 46.254 71.6262 46.026 71.3374C45.8056 71.041 45.6954 70.6458 45.6954 70.1518C45.6954 69.7186 45.8056 69.3348 46.026 69.0004C46.2464 68.666 46.5542 68.4076 46.9494 68.2252C47.3522 68.0428 47.812 67.9516 48.3288 67.9516C49.0736 67.9516 49.6816 68.1378 50.1528 68.5102C50.6316 68.8826 50.9014 69.3766 50.9622 69.9922H49.8222C49.7842 69.6882 49.6246 69.4222 49.3434 69.1942C49.0622 68.9586 48.6898 68.8408 48.2262 68.8408C47.793 68.8408 47.4396 68.9548 47.166 69.1828C46.8924 69.4032 46.7556 69.7148 46.7556 70.1176C46.7556 70.4064 46.8354 70.642 46.995 70.8244C47.1622 71.0068 47.3636 71.1474 47.5992 71.2462C47.8424 71.3374 48.1806 71.4438 48.6138 71.5654C49.1382 71.7098 49.56 71.8542 49.8792 71.9986C50.1984 72.1354 50.472 72.352 50.7 72.6484C50.928 72.9372 51.042 73.3324 51.042 73.834C51.042 74.2216 50.9394 74.5864 50.7342 74.9284C50.529 75.2704 50.225 75.5478 49.8222 75.7606C49.4194 75.9734 48.9444 76.0798 48.3972 76.0798ZM58.1023 72.637C58.1023 72.8346 58.0909 73.0436 58.0681 73.264H53.0749C53.1129 73.8796 53.3219 74.3622 53.7019 74.7118C54.0895 75.0538 54.5569 75.2248 55.1041 75.2248C55.5525 75.2248 55.9249 75.1222 56.2213 74.917C56.5253 74.7042 56.7381 74.423 56.8597 74.0734H57.9769C57.8097 74.6738 57.4753 75.164 56.9737 75.544C56.4721 75.9164 55.8489 76.1026 55.1041 76.1026C54.5113 76.1026 53.9793 75.9696 53.5081 75.7036C53.0445 75.4376 52.6797 75.0614 52.4137 74.575C52.1477 74.081 52.0147 73.511 52.0147 72.865C52.0147 72.219 52.1439 71.6528 52.4023 71.1664C52.6607 70.68 53.0217 70.3076 53.4853 70.0492C53.9565 69.7832 54.4961 69.6502 55.1041 69.6502C55.6969 69.6502 56.2213 69.7794 56.6773 70.0378C57.1333 70.2962 57.4829 70.6534 57.7261 71.1094C57.9769 71.5578 58.1023 72.067 58.1023 72.637ZM57.0307 72.4204C57.0307 72.0252 56.9433 71.687 56.7685 71.4058C56.5937 71.117 56.3543 70.9004 56.0503 70.756C55.7539 70.604 55.4233 70.528 55.0585 70.528C54.5341 70.528 54.0857 70.6952 53.7133 71.0296C53.3485 71.364 53.1395 71.8276 53.0863 72.4204H57.0307ZM60.5708 70.6078V74.29C60.5708 74.594 60.6354 74.8106 60.7646 74.9398C60.8938 75.0614 61.118 75.1222 61.4372 75.1222H62.201V76H61.2662C60.6886 76 60.2554 75.867 59.9666 75.601C59.6778 75.335 59.5334 74.898 59.5334 74.29V70.6078H58.724V69.7528H59.5334V68.1796H60.5708V69.7528H62.201V70.6078H60.5708ZM72.4118 76H71.3744L67.202 69.673V76H66.1646V68.0428H67.202L71.3744 74.3584V68.0428H72.4118V76ZM79.7139 72.637C79.7139 72.8346 79.7025 73.0436 79.6797 73.264H74.6865C74.7245 73.8796 74.9335 74.3622 75.3135 74.7118C75.7011 75.0538 76.1685 75.2248 76.7157 75.2248C77.1641 75.2248 77.5365 75.1222 77.8329 74.917C78.1369 74.7042 78.3497 74.423 78.4713 74.0734H79.5885C79.4213 74.6738 79.0869 75.164 78.5853 75.544C78.0837 75.9164 77.4605 76.1026 76.7157 76.1026C76.1229 76.1026 75.5909 75.9696 75.1197 75.7036C74.6561 75.4376 74.2913 75.0614 74.0253 74.575C73.7593 74.081 73.6263 73.511 73.6263 72.865C73.6263 72.219 73.7555 71.6528 74.0139 71.1664C74.2723 70.68 74.6333 70.3076 75.0969 70.0492C75.5681 69.7832 76.1077 69.6502 76.7157 69.6502C77.3085 69.6502 77.8329 69.7794 78.2889 70.0378C78.7449 70.2962 79.0945 70.6534 79.3377 71.1094C79.5885 71.5578 79.7139 72.067 79.7139 72.637ZM78.6423 72.4204C78.6423 72.0252 78.5549 71.687 78.3801 71.4058C78.2053 71.117 77.9659 70.9004 77.6619 70.756C77.3655 70.604 77.0349 70.528 76.6701 70.528C76.1457 70.528 75.6973 70.6952 75.3249 71.0296C74.9601 71.364 74.7511 71.8276 74.6979 72.4204H78.6423ZM89.239 69.7528L87.2896 76H86.218L84.7132 71.041L83.2084 76H82.1368L80.176 69.7528H81.2362L82.6726 74.9968L84.223 69.7528H85.2832L86.7994 75.0082L88.213 69.7528H89.239ZM94.0126 75.1564H96.7942V76H92.9752V68.0542H94.0126V75.1564ZM98.2654 68.7382C98.0678 68.7382 97.9006 68.6698 97.7638 68.533C97.627 68.3962 97.5586 68.229 97.5586 68.0314C97.5586 67.8338 97.627 67.6666 97.7638 67.5298C97.9006 67.393 98.0678 67.3246 98.2654 67.3246C98.4554 67.3246 98.615 67.393 98.7442 67.5298C98.881 67.6666 98.9494 67.8338 98.9494 68.0314C98.9494 68.229 98.881 68.3962 98.7442 68.533C98.615 68.6698 98.4554 68.7382 98.2654 68.7382ZM98.767 69.7528V76H97.7296V69.7528H98.767ZM107.881 69.6388C108.368 69.6388 108.801 69.7414 109.181 69.9466C109.561 70.1442 109.861 70.4444 110.082 70.8472C110.302 71.25 110.412 71.7402 110.412 72.3178V76H109.386V72.466C109.386 71.8428 109.23 71.3678 108.919 71.041C108.615 70.7066 108.201 70.5394 107.676 70.5394C107.137 70.5394 106.707 70.7142 106.388 71.0638C106.069 71.4058 105.909 71.9036 105.909 72.5572V76H104.883V72.466C104.883 71.8428 104.727 71.3678 104.416 71.041C104.112 70.7066 103.698 70.5394 103.173 70.5394C102.634 70.5394 102.204 70.7142 101.885 71.0638C101.566 71.4058 101.406 71.9036 101.406 72.5572V76H100.369V69.7528H101.406V70.6534C101.611 70.3266 101.885 70.0758 102.227 69.901C102.577 69.7262 102.96 69.6388 103.378 69.6388C103.903 69.6388 104.366 69.7566 104.769 69.9922C105.172 70.2278 105.472 70.5736 105.67 71.0296C105.845 70.5888 106.133 70.2468 106.536 70.0036C106.939 69.7604 107.387 69.6388 107.881 69.6388ZM112.483 68.7382C112.286 68.7382 112.119 68.6698 111.982 68.533C111.845 68.3962 111.777 68.229 111.777 68.0314C111.777 67.8338 111.845 67.6666 111.982 67.5298C112.119 67.393 112.286 67.3246 112.483 67.3246C112.673 67.3246 112.833 67.393 112.962 67.5298C113.099 67.6666 113.167 67.8338 113.167 68.0314C113.167 68.229 113.099 68.3962 112.962 68.533C112.833 68.6698 112.673 68.7382 112.483 68.7382ZM112.985 69.7528V76H111.948V69.7528H112.985ZM115.852 70.6078V74.29C115.852 74.594 115.917 74.8106 116.046 74.9398C116.175 75.0614 116.399 75.1222 116.719 75.1222H117.482V76H116.548C115.97 76 115.537 75.867 115.248 75.601C114.959 75.335 114.815 74.898 114.815 74.29V70.6078H114.005V69.7528H114.815V68.1796H115.852V69.7528H117.482V70.6078H115.852Z" fill="#4E4E4E"/>
<path d="M27.3776 40.1008C26.7056 40.1008 26.1008 39.9856 25.5632 39.7552C25.0256 39.5152 24.6032 39.1792 24.296 38.7472C23.9888 38.3152 23.8352 37.8112 23.8352 37.2352H25.592C25.6304 37.6672 25.7984 38.0224 26.096 38.3008C26.4032 38.5792 26.8304 38.7184 27.3776 38.7184C27.944 38.7184 28.3856 38.584 28.7024 38.3152C29.0192 38.0368 29.1776 37.6816 29.1776 37.2496C29.1776 36.9136 29.0768 36.64 28.8752 36.4288C28.6832 36.2176 28.4384 36.0544 28.1408 35.9392C27.8528 35.824 27.4496 35.6992 26.9312 35.5648C26.2784 35.392 25.7456 35.2192 25.3328 35.0464C24.9296 34.864 24.584 34.5856 24.296 34.2112C24.008 33.8368 23.864 33.3376 23.864 32.7136C23.864 32.1376 24.008 31.6336 24.296 31.2016C24.584 30.7696 24.9872 30.4384 25.5056 30.208C26.024 29.9776 26.624 29.8624 27.3056 29.8624C28.2752 29.8624 29.0672 30.1072 29.6816 30.5968C30.3056 31.0768 30.6512 31.7392 30.7184 32.584H28.904C28.8752 32.2192 28.7024 31.9072 28.3856 31.648C28.0688 31.3888 27.6512 31.2592 27.1328 31.2592C26.6624 31.2592 26.2784 31.3792 25.9808 31.6192C25.6832 31.8592 25.5344 32.2048 25.5344 32.656C25.5344 32.9632 25.6256 33.2176 25.808 33.4192C26 33.6112 26.24 33.7648 26.528 33.88C26.816 33.9952 27.2096 34.12 27.7088 34.2544C28.3712 34.4368 28.9088 34.6192 29.3216 34.8016C29.744 34.984 30.0992 35.2672 30.3872 35.6512C30.6848 36.0256 30.8336 36.5296 30.8336 37.1632C30.8336 37.672 30.6944 38.152 30.416 38.6032C30.1472 39.0544 29.7488 39.4192 29.2208 39.6976C28.7024 39.9664 28.088 40.1008 27.3776 40.1008ZM39.8763 35.8384C39.8763 36.136 39.8571 36.4048 39.8187 36.6448H33.7563C33.8043 37.2784 34.0395 37.7872 34.4619 38.1712C34.8843 38.5552 35.4027 38.7472 36.0171 38.7472C36.9003 38.7472 37.5243 38.3776 37.8891 37.6384H39.6603C39.4203 38.368 38.9835 38.968 38.3499 39.4384C37.7259 39.8992 36.9483 40.1296 36.0171 40.1296C35.2587 40.1296 34.5771 39.9616 33.9723 39.6256C33.3771 39.28 32.9067 38.8 32.5611 38.1856C32.2251 37.5616 32.0571 36.8416 32.0571 36.0256C32.0571 35.2096 32.2203 34.4944 32.5467 33.88C32.8827 33.256 33.3483 32.776 33.9435 32.44C34.5483 32.104 35.2395 31.936 36.0171 31.936C36.7659 31.936 37.4331 32.0992 38.0187 32.4256C38.6043 32.752 39.0603 33.2128 39.3867 33.808C39.7131 34.3936 39.8763 35.0704 39.8763 35.8384ZM38.1627 35.32C38.1531 34.7152 37.9371 34.2304 37.5147 33.8656C37.0923 33.5008 36.5691 33.3184 35.9451 33.3184C35.3787 33.3184 34.8939 33.5008 34.4907 33.8656C34.0875 34.2208 33.8475 34.7056 33.7707 35.32H38.1627ZM43.2407 33.4048V37.7968C43.2407 38.0944 43.3079 38.3104 43.4423 38.4448C43.5863 38.5696 43.8263 38.632 44.1623 38.632H45.1703V40H43.8743C43.1351 40 42.5687 39.8272 42.1751 39.4816C41.7815 39.136 41.5847 38.5744 41.5847 37.7968V33.4048H40.6487V32.0656H41.5847V30.0928H43.2407V32.0656H45.1703V33.4048H43.2407ZM51.733 38.6752H55.117V40H50.0914V29.992H51.733V38.6752ZM57.1587 31.0144C56.8611 31.0144 56.6115 30.9136 56.4099 30.712C56.2083 30.5104 56.1075 30.2608 56.1075 29.9632C56.1075 29.6656 56.2083 29.416 56.4099 29.2144C56.6115 29.0128 56.8611 28.912 57.1587 28.912C57.4467 28.912 57.6915 29.0128 57.8931 29.2144C58.0947 29.416 58.1955 29.6656 58.1955 29.9632C58.1955 30.2608 58.0947 30.5104 57.8931 30.712C57.6915 30.9136 57.4467 31.0144 57.1587 31.0144ZM57.9651 32.0656V40H56.3235V32.0656H57.9651ZM69.5589 31.936C70.1829 31.936 70.7397 32.0656 71.2293 32.3248C71.7285 32.584 72.1173 32.968 72.3957 33.4768C72.6837 33.9856 72.8277 34.6 72.8277 35.32V40H71.2005V35.5648C71.2005 34.8544 71.0229 34.312 70.6677 33.9376C70.3125 33.5536 69.8277 33.3616 69.2133 33.3616C68.5989 33.3616 68.1093 33.5536 67.7445 33.9376C67.3893 34.312 67.2117 34.8544 67.2117 35.5648V40H65.5845V35.5648C65.5845 34.8544 65.4069 34.312 65.0517 33.9376C64.6965 33.5536 64.2117 33.3616 63.5973 33.3616C62.9829 33.3616 62.4933 33.5536 62.1285 33.9376C61.7733 34.312 61.5957 34.8544 61.5957 35.5648V40H59.9541V32.0656H61.5957V32.9728C61.8645 32.6464 62.2053 32.392 62.6181 32.2096C63.0309 32.0272 63.4725 31.936 63.9429 31.936C64.5765 31.936 65.1429 32.0704 65.6421 32.3392C66.1413 32.608 66.5253 32.9968 66.7941 33.5056C67.0341 33.0256 67.4085 32.6464 67.9173 32.368C68.4261 32.08 68.9733 31.936 69.5589 31.936ZM75.5855 31.0144C75.2879 31.0144 75.0383 30.9136 74.8367 30.712C74.6351 30.5104 74.5343 30.2608 74.5343 29.9632C74.5343 29.6656 74.6351 29.416 74.8367 29.2144C75.0383 29.0128 75.2879 28.912 75.5855 28.912C75.8735 28.912 76.1183 29.0128 76.3199 29.2144C76.5215 29.416 76.6223 29.6656 76.6223 29.9632C76.6223 30.2608 76.5215 30.5104 76.3199 30.712C76.1183 30.9136 75.8735 31.0144 75.5855 31.0144ZM76.3919 32.0656V40H74.7503V32.0656H76.3919ZM80.2961 33.4048V37.7968C80.2961 38.0944 80.3633 38.3104 80.4977 38.4448C80.6417 38.5696 80.8817 38.632 81.2177 38.632H82.2257V40H80.9297C80.1905 40 79.6241 39.8272 79.2305 39.4816C78.8369 39.136 78.6401 38.5744 78.6401 37.7968V33.4048H77.7041V32.0656H78.6401V30.0928H80.2961V32.0656H82.2257V33.4048H80.2961Z" fill="black"/>
<path d="M24.9264 126.4C24.9264 125.301 25.1717 124.32 25.6624 123.456C26.1637 122.581 26.8411 121.904 27.6944 121.424C28.5584 120.933 29.5237 120.688 30.5904 120.688C31.8384 120.688 32.9317 121.008 33.8704 121.648C34.8091 122.288 35.4651 123.173 35.8384 124.304H33.2624C33.0064 123.771 32.6437 123.371 32.1744 123.104C31.7157 122.837 31.1824 122.704 30.5744 122.704C29.9237 122.704 29.3424 122.859 28.8304 123.168C28.3291 123.467 27.9344 123.893 27.6464 124.448C27.3691 125.003 27.2304 125.653 27.2304 126.4C27.2304 127.136 27.3691 127.787 27.6464 128.352C27.9344 128.907 28.3291 129.339 28.8304 129.648C29.3424 129.947 29.9237 130.096 30.5744 130.096C31.1824 130.096 31.7157 129.963 32.1744 129.696C32.6437 129.419 33.0064 129.013 33.2624 128.48H35.8384C35.4651 129.621 34.8091 130.512 33.8704 131.152C32.9424 131.781 31.8491 132.096 30.5904 132.096C29.5237 132.096 28.5584 131.856 27.6944 131.376C26.8411 130.885 26.1637 130.208 25.6624 129.344C25.1717 128.48 24.9264 127.499 24.9264 126.4ZM45.9349 123.136V132H43.6789V130.88C43.3909 131.264 43.0122 131.568 42.5429 131.792C42.0842 132.005 41.5829 132.112 41.0389 132.112C40.3456 132.112 39.7322 131.968 39.1989 131.68C38.6656 131.381 38.2442 130.949 37.9349 130.384C37.6362 129.808 37.4869 129.125 37.4869 128.336V123.136H39.7269V128.016C39.7269 128.72 39.9029 129.264 40.2549 129.648C40.6069 130.021 41.0869 130.208 41.6949 130.208C42.3136 130.208 42.7989 130.021 43.1509 129.648C43.5029 129.264 43.6789 128.72 43.6789 128.016V123.136H45.9349ZM50.2003 124.512C50.4883 124.043 50.8616 123.675 51.3203 123.408C51.7896 123.141 52.3229 123.008 52.9203 123.008V125.36H52.3283C51.6243 125.36 51.0909 125.525 50.7283 125.856C50.3763 126.187 50.2003 126.763 50.2003 127.584V132H47.9603V123.136H50.2003V124.512ZM56.4842 124.512C56.7722 124.043 57.1456 123.675 57.6042 123.408C58.0736 123.141 58.6069 123.008 59.2042 123.008V125.36H58.6122C57.9082 125.36 57.3749 125.525 57.0122 125.856C56.6602 126.187 56.4842 126.763 56.4842 127.584V132H54.2442V123.136H56.4842V124.512ZM68.7682 127.376C68.7682 127.696 68.7469 127.984 68.7042 128.24H62.2242C62.2776 128.88 62.5016 129.381 62.8962 129.744C63.2909 130.107 63.7762 130.288 64.3522 130.288C65.1842 130.288 65.7762 129.931 66.1282 129.216H68.5442C68.2882 130.069 67.7976 130.773 67.0722 131.328C66.3469 131.872 65.4562 132.144 64.4002 132.144C63.5469 132.144 62.7789 131.957 62.0962 131.584C61.4242 131.2 60.8962 130.661 60.5122 129.968C60.1389 129.275 59.9522 128.475 59.9522 127.568C59.9522 126.651 60.1389 125.845 60.5122 125.152C60.8856 124.459 61.4082 123.925 62.0802 123.552C62.7522 123.179 63.5256 122.992 64.4002 122.992C65.2429 122.992 65.9949 123.173 66.6562 123.536C67.3282 123.899 67.8456 124.416 68.2082 125.088C68.5816 125.749 68.7682 126.512 68.7682 127.376ZM66.4482 126.736C66.4376 126.16 66.2296 125.701 65.8242 125.36C65.4189 125.008 64.9229 124.832 64.3362 124.832C63.7816 124.832 63.3122 125.003 62.9282 125.344C62.5549 125.675 62.3256 126.139 62.2402 126.736H66.4482ZM75.1305 123.008C76.1865 123.008 77.0398 123.344 77.6905 124.016C78.3411 124.677 78.6665 125.605 78.6665 126.8V132H76.4265V127.104C76.4265 126.4 76.2505 125.861 75.8985 125.488C75.5465 125.104 75.0665 124.912 74.4585 124.912C73.8398 124.912 73.3491 125.104 72.9865 125.488C72.6345 125.861 72.4585 126.4 72.4585 127.104V132H70.2185V123.136H72.4585V124.24C72.7571 123.856 73.1358 123.557 73.5945 123.344C74.0638 123.12 74.5758 123.008 75.1305 123.008ZM83.2198 124.976V129.264C83.2198 129.563 83.2891 129.781 83.4278 129.92C83.5771 130.048 83.8225 130.112 84.1638 130.112H85.2038V132H83.7958C81.9078 132 80.9638 131.083 80.9638 129.248V124.976H79.9078V123.136H80.9638V120.944H83.2198V123.136H85.2038V124.976H83.2198ZM92.4979 130.224H96.1779V132H90.2579V120.832H92.4979V130.224ZM98.5529 122.08C98.1582 122.08 97.8275 121.957 97.5609 121.712C97.3049 121.456 97.1769 121.141 97.1769 120.768C97.1769 120.395 97.3049 120.085 97.5609 119.84C97.8275 119.584 98.1582 119.456 98.5529 119.456C98.9475 119.456 99.2729 119.584 99.5289 119.84C99.7955 120.085 99.9289 120.395 99.9289 120.768C99.9289 121.141 99.7955 121.456 99.5289 121.712C99.2729 121.957 98.9475 122.08 98.5529 122.08ZM99.6569 123.136V132H97.4169V123.136H99.6569ZM112.693 123.008C113.781 123.008 114.656 123.344 115.317 124.016C115.989 124.677 116.325 125.605 116.325 126.8V132H114.085V127.104C114.085 126.411 113.909 125.883 113.557 125.52C113.205 125.147 112.725 124.96 112.117 124.96C111.509 124.96 111.024 125.147 110.661 125.52C110.309 125.883 110.133 126.411 110.133 127.104V132H107.893V127.104C107.893 126.411 107.717 125.883 107.365 125.52C107.013 125.147 106.533 124.96 105.925 124.96C105.307 124.96 104.816 125.147 104.453 125.52C104.101 125.883 103.925 126.411 103.925 127.104V132H101.685V123.136H103.925V124.208C104.213 123.835 104.581 123.541 105.029 123.328C105.488 123.115 105.989 123.008 106.533 123.008C107.227 123.008 107.845 123.157 108.389 123.456C108.933 123.744 109.355 124.16 109.653 124.704C109.941 124.192 110.357 123.781 110.901 123.472C111.456 123.163 112.053 123.008 112.693 123.008ZM119.402 122.08C119.007 122.08 118.677 121.957 118.41 121.712C118.154 121.456 118.026 121.141 118.026 120.768C118.026 120.395 118.154 120.085 118.41 119.84C118.677 119.584 119.007 119.456 119.402 119.456C119.797 119.456 120.122 119.584 120.378 119.84C120.645 120.085 120.778 120.395 120.778 120.768C120.778 121.141 120.645 121.456 120.378 121.712C120.122 121.957 119.797 122.08 119.402 122.08ZM120.506 123.136V132H118.266V123.136H120.506ZM125.142 124.976V129.264C125.142 129.563 125.212 129.781 125.35 129.92C125.5 130.048 125.745 130.112 126.086 130.112H127.126V132H125.718C123.83 132 122.886 131.083 122.886 129.248V124.976H121.83V123.136H122.886V120.944H125.142V123.136H127.126V124.976H125.142Z" fill="black"/>
<path d="M37.6542 190.832V202H35.4142V194.736L32.4222 202H30.7262L27.7182 194.736V202H25.4782V190.832H28.0222L31.5742 199.136L35.1262 190.832H37.6542ZM39.1081 197.536C39.1081 196.64 39.2841 195.845 39.6361 195.152C39.9988 194.459 40.4841 193.925 41.0921 193.552C41.7108 193.179 42.3988 192.992 43.1561 192.992C43.8174 192.992 44.3934 193.125 44.8841 193.392C45.3854 193.659 45.7854 193.995 46.0841 194.4V193.136H48.3401V202H46.0841V200.704C45.7961 201.12 45.3961 201.467 44.8841 201.744C44.3828 202.011 43.8014 202.144 43.1401 202.144C42.3934 202.144 41.7108 201.952 41.0921 201.568C40.4841 201.184 39.9988 200.645 39.6361 199.952C39.2841 199.248 39.1081 198.443 39.1081 197.536ZM46.0841 197.568C46.0841 197.024 45.9774 196.56 45.7641 196.176C45.5508 195.781 45.2628 195.483 44.9001 195.28C44.5374 195.067 44.1481 194.96 43.7321 194.96C43.3161 194.96 42.9321 195.061 42.5801 195.264C42.2281 195.467 41.9401 195.765 41.7161 196.16C41.5028 196.544 41.3961 197.003 41.3961 197.536C41.3961 198.069 41.5028 198.539 41.7161 198.944C41.9401 199.339 42.2281 199.643 42.5801 199.856C42.9428 200.069 43.3268 200.176 43.7321 200.176C44.1481 200.176 44.5374 200.075 44.9001 199.872C45.2628 199.659 45.5508 199.36 45.7641 198.976C45.9774 198.581 46.0841 198.112 46.0841 197.568ZM55.2391 202L53.4151 199.248L51.7991 202H49.3991L52.2951 197.552L49.3671 193.136H51.8951L53.7031 195.872L55.3351 193.136H57.7351L54.8231 197.552L57.7671 202H55.2391ZM59.9349 192.08C59.5403 192.08 59.2096 191.957 58.9429 191.712C58.6869 191.456 58.5589 191.141 58.5589 190.768C58.5589 190.395 58.6869 190.085 58.9429 189.84C59.2096 189.584 59.5403 189.456 59.9349 189.456C60.3296 189.456 60.6549 189.584 60.9109 189.84C61.1776 190.085 61.3109 190.395 61.3109 190.768C61.3109 191.141 61.1776 191.456 60.9109 191.712C60.6549 191.957 60.3296 192.08 59.9349 192.08ZM61.0389 193.136V202H58.7989V193.136H61.0389ZM74.0753 193.008C75.1633 193.008 76.038 193.344 76.6993 194.016C77.3713 194.677 77.7073 195.605 77.7073 196.8V202H75.4673V197.104C75.4673 196.411 75.2913 195.883 74.9393 195.52C74.5873 195.147 74.1073 194.96 73.4993 194.96C72.8913 194.96 72.406 195.147 72.0433 195.52C71.6913 195.883 71.5153 196.411 71.5153 197.104V202H69.2753V197.104C69.2753 196.411 69.0993 195.883 68.7473 195.52C68.3953 195.147 67.9153 194.96 67.3073 194.96C66.6886 194.96 66.198 195.147 65.8353 195.52C65.4833 195.883 65.3073 196.411 65.3073 197.104V202H63.0673V193.136H65.3073V194.208C65.5953 193.835 65.9633 193.541 66.4113 193.328C66.87 193.115 67.3713 193.008 67.9153 193.008C68.6086 193.008 69.2273 193.157 69.7713 193.456C70.3153 193.744 70.7366 194.16 71.0353 194.704C71.3233 194.192 71.7393 193.781 72.2833 193.472C72.838 193.163 73.4353 193.008 74.0753 193.008ZM88.0161 193.136V202H85.7601V200.88C85.4721 201.264 85.0935 201.568 84.6241 201.792C84.1655 202.005 83.6641 202.112 83.1201 202.112C82.4268 202.112 81.8135 201.968 81.2801 201.68C80.7468 201.381 80.3255 200.949 80.0161 200.384C79.7175 199.808 79.5681 199.125 79.5681 198.336V193.136H81.8081V198.016C81.8081 198.72 81.9841 199.264 82.3361 199.648C82.6881 200.021 83.1681 200.208 83.7761 200.208C84.3948 200.208 84.8801 200.021 85.2321 199.648C85.5841 199.264 85.7601 198.72 85.7601 198.016V193.136H88.0161ZM101.05 193.008C102.138 193.008 103.012 193.344 103.674 194.016C104.346 194.677 104.682 195.605 104.682 196.8V202H102.442V197.104C102.442 196.411 102.266 195.883 101.914 195.52C101.562 195.147 101.082 194.96 100.474 194.96C99.8655 194.96 99.3802 195.147 99.0175 195.52C98.6655 195.883 98.4895 196.411 98.4895 197.104V202H96.2495V197.104C96.2495 196.411 96.0735 195.883 95.7215 195.52C95.3695 195.147 94.8895 194.96 94.2815 194.96C93.6628 194.96 93.1722 195.147 92.8095 195.52C92.4575 195.883 92.2815 196.411 92.2815 197.104V202H90.0415V193.136H92.2815V194.208C92.5695 193.835 92.9375 193.541 93.3855 193.328C93.8442 193.115 94.3455 193.008 94.8895 193.008C95.5828 193.008 96.2015 193.157 96.7455 193.456C97.2895 193.744 97.7108 194.16 98.0095 194.704C98.2975 194.192 98.7135 193.781 99.2575 193.472C99.8122 193.163 100.41 193.008 101.05 193.008ZM112.49 200.224H116.17V202H110.25V190.832H112.49V200.224ZM118.545 192.08C118.15 192.08 117.82 191.957 117.553 191.712C117.297 191.456 117.169 191.141 117.169 190.768C117.169 190.395 117.297 190.085 117.553 189.84C117.82 189.584 118.15 189.456 118.545 189.456C118.94 189.456 119.265 189.584 119.521 189.84C119.788 190.085 119.921 190.395 119.921 190.768C119.921 191.141 119.788 191.456 119.521 191.712C119.265 191.957 118.94 192.08 118.545 192.08ZM119.649 193.136V202H117.409V193.136H119.649ZM132.685 193.008C133.773 193.008 134.648 193.344 135.309 194.016C135.981 194.677 136.317 195.605 136.317 196.8V202H134.077V197.104C134.077 196.411 133.901 195.883 133.549 195.52C133.197 195.147 132.717 194.96 132.109 194.96C131.501 194.96 131.016 195.147 130.653 195.52C130.301 195.883 130.125 196.411 130.125 197.104V202H127.885V197.104C127.885 196.411 127.709 195.883 127.357 195.52C127.005 195.147 126.525 194.96 125.917 194.96C125.299 194.96 124.808 195.147 124.445 195.52C124.093 195.883 123.917 196.411 123.917 197.104V202H121.677V193.136H123.917V194.208C124.205 193.835 124.573 193.541 125.021 193.328C125.48 193.115 125.981 193.008 126.525 193.008C127.219 193.008 127.837 193.157 128.381 193.456C128.925 193.744 129.347 194.16 129.645 194.704C129.933 194.192 130.349 193.781 130.893 193.472C131.448 193.163 132.045 193.008 132.685 193.008ZM139.394 192.08C139 192.08 138.669 191.957 138.402 191.712C138.146 191.456 138.018 191.141 138.018 190.768C138.018 190.395 138.146 190.085 138.402 189.84C138.669 189.584 139 189.456 139.394 189.456C139.789 189.456 140.114 189.584 140.37 189.84C140.637 190.085 140.77 190.395 140.77 190.768C140.77 191.141 140.637 191.456 140.37 191.712C140.114 191.957 139.789 192.08 139.394 192.08ZM140.498 193.136V202H138.258V193.136H140.498ZM145.135 194.976V199.264C145.135 199.563 145.204 199.781 145.343 199.92C145.492 200.048 145.737 200.112 146.079 200.112H147.119V202H145.711C143.823 202 142.879 201.083 142.879 199.248V194.976H141.823V193.136H142.879V190.944H145.135V193.136H147.119V194.976H145.135Z" fill="black"/>
<path d="M32.8607 156.198C33.608 156.337 34.2224 156.711 34.7037 157.319C35.185 157.927 35.4257 158.624 35.4257 159.409C35.4257 160.118 35.2484 160.745 34.8937 161.29C34.5517 161.822 34.0514 162.24 33.3927 162.544C32.734 162.848 31.955 163 31.0557 163H25.3367V149.738H30.8087C31.708 149.738 32.4807 149.884 33.1267 150.175C33.7854 150.466 34.2794 150.872 34.6087 151.391C34.9507 151.91 35.1217 152.499 35.1217 153.158C35.1217 153.931 34.9127 154.577 34.4947 155.096C34.0894 155.615 33.5447 155.983 32.8607 156.198ZM27.9967 155.21H30.4287C31.062 155.21 31.5497 155.071 31.8917 154.792C32.2337 154.501 32.4047 154.089 32.4047 153.557C32.4047 153.025 32.2337 152.613 31.8917 152.322C31.5497 152.031 31.062 151.885 30.4287 151.885H27.9967V155.21ZM30.6757 160.834C31.3217 160.834 31.822 160.682 32.1767 160.378C32.544 160.074 32.7277 159.643 32.7277 159.086C32.7277 158.516 32.5377 158.073 32.1577 157.756C31.7777 157.427 31.2647 157.262 30.6187 157.262H27.9967V160.834H30.6757ZM44.2009 163L41.2749 157.832H40.0209V163H37.3609V149.738H42.3389C43.3649 149.738 44.2389 149.922 44.9609 150.289C45.6829 150.644 46.2212 151.131 46.5759 151.752C46.9432 152.36 47.1269 153.044 47.1269 153.804C47.1269 154.678 46.8736 155.47 46.3669 156.179C45.8602 156.876 45.1066 157.357 44.1059 157.623L47.2789 163H44.2009ZM40.0209 155.837H42.2439C42.9659 155.837 43.5042 155.666 43.8589 155.324C44.2136 154.969 44.3909 154.482 44.3909 153.861C44.3909 153.253 44.2136 152.784 43.8589 152.455C43.5042 152.113 42.9659 151.942 42.2439 151.942H40.0209V155.837ZM53.2726 160.302V158.212L59.4856 149.32H62.5826V157.984H64.2546V160.302H62.5826V163H59.9226V160.302H53.2726ZM60.0936 152.17L56.1986 157.984H60.0936V152.17ZM65.7633 155.894C65.7633 153.703 66.156 151.986 66.9413 150.745C67.7393 149.504 69.0567 148.883 70.8933 148.883C72.73 148.883 74.041 149.504 74.8263 150.745C75.6243 151.986 76.0233 153.703 76.0233 155.894C76.0233 158.098 75.6243 159.827 74.8263 161.081C74.041 162.335 72.73 162.962 70.8933 162.962C69.0567 162.962 67.7393 162.335 66.9413 161.081C66.156 159.827 65.7633 158.098 65.7633 155.894ZM73.4013 155.894C73.4013 154.957 73.338 154.171 73.2113 153.538C73.0973 152.892 72.8567 152.366 72.4893 151.961C72.1347 151.556 71.6027 151.353 70.8933 151.353C70.184 151.353 69.6457 151.556 69.2783 151.961C68.9237 152.366 68.683 152.892 68.5563 153.538C68.4423 154.171 68.3853 154.957 68.3853 155.894C68.3853 156.857 68.4423 157.667 68.5563 158.326C68.6703 158.972 68.911 159.498 69.2783 159.903C69.6457 160.296 70.184 160.492 70.8933 160.492C71.6027 160.492 72.141 160.296 72.5083 159.903C72.8757 159.498 73.1163 158.972 73.2303 158.326C73.3443 157.667 73.4013 156.857 73.4013 155.894ZM81.0728 160.207L78.8498 165.546H77.1398L78.3748 160.207H81.0728ZM82.5012 155.894C82.5012 153.703 82.8939 151.986 83.6792 150.745C84.4772 149.504 85.7946 148.883 87.6312 148.883C89.4679 148.883 90.7789 149.504 91.5642 150.745C92.3622 151.986 92.7612 153.703 92.7612 155.894C92.7612 158.098 92.3622 159.827 91.5642 161.081C90.7789 162.335 89.4679 162.962 87.6312 162.962C85.7946 162.962 84.4772 162.335 83.6792 161.081C82.8939 159.827 82.5012 158.098 82.5012 155.894ZM90.1392 155.894C90.1392 154.957 90.0759 154.171 89.9492 153.538C89.8352 152.892 89.5946 152.366 89.2272 151.961C88.8726 151.556 88.3406 151.353 87.6312 151.353C86.9219 151.353 86.3836 151.556 86.0162 151.961C85.6616 152.366 85.4209 152.892 85.2942 153.538C85.1802 154.171 85.1232 154.957 85.1232 155.894C85.1232 156.857 85.1802 157.667 85.2942 158.326C85.4082 158.972 85.6489 159.498 86.0162 159.903C86.3836 160.296 86.9219 160.492 87.6312 160.492C88.3406 160.492 88.8789 160.296 89.2462 159.903C89.6136 159.498 89.8542 158.972 89.9682 158.326C90.0822 157.667 90.1392 156.857 90.1392 155.894ZM94.5997 155.894C94.5997 153.703 94.9923 151.986 95.7777 150.745C96.5757 149.504 97.893 148.883 99.7297 148.883C101.566 148.883 102.877 149.504 103.663 150.745C104.461 151.986 104.86 153.703 104.86 155.894C104.86 158.098 104.461 159.827 103.663 161.081C102.877 162.335 101.566 162.962 99.7297 162.962C97.893 162.962 96.5757 162.335 95.7777 161.081C94.9923 159.827 94.5997 158.098 94.5997 155.894ZM102.238 155.894C102.238 154.957 102.174 154.171 102.048 153.538C101.934 152.892 101.693 152.366 101.326 151.961C100.971 151.556 100.439 151.353 99.7297 151.353C99.0203 151.353 98.482 151.556 98.1147 151.961C97.76 152.366 97.5193 152.892 97.3927 153.538C97.2787 154.171 97.2217 154.957 97.2217 155.894C97.2217 156.857 97.2787 157.667 97.3927 158.326C97.5067 158.972 97.7473 159.498 98.1147 159.903C98.482 160.296 99.0203 160.492 99.7297 160.492C100.439 160.492 100.977 160.296 101.345 159.903C101.712 159.498 101.953 158.972 102.067 158.326C102.181 157.667 102.238 156.857 102.238 155.894ZM106.698 155.894C106.698 153.703 107.091 151.986 107.876 150.745C108.674 149.504 109.991 148.883 111.828 148.883C113.665 148.883 114.976 149.504 115.761 150.745C116.559 151.986 116.958 153.703 116.958 155.894C116.958 158.098 116.559 159.827 115.761 161.081C114.976 162.335 113.665 162.962 111.828 162.962C109.991 162.962 108.674 162.335 107.876 161.081C107.091 159.827 106.698 158.098 106.698 155.894ZM114.336 155.894C114.336 154.957 114.273 154.171 114.146 153.538C114.032 152.892 113.791 152.366 113.424 151.961C113.069 151.556 112.537 151.353 111.828 151.353C111.119 151.353 110.58 151.556 110.213 151.961C109.858 152.366 109.618 152.892 109.491 153.538C109.377 154.171 109.32 154.957 109.32 155.894C109.32 156.857 109.377 157.667 109.491 158.326C109.605 158.972 109.846 159.498 110.213 159.903C110.58 160.296 111.119 160.492 111.828 160.492C112.537 160.492 113.076 160.296 113.443 159.903C113.81 159.498 114.051 158.972 114.165 158.326C114.279 157.667 114.336 156.857 114.336 155.894Z" fill="#007438"/>
<path d="M33.037 226.198C33.7843 226.337 34.3986 226.711 34.88 227.319C35.3613 227.927 35.602 228.624 35.602 229.409C35.602 230.118 35.4246 230.745 35.07 231.29C34.728 231.822 34.2276 232.24 33.569 232.544C32.9103 232.848 32.1313 233 31.232 233H25.513V219.738H30.985C31.8843 219.738 32.657 219.884 33.303 220.175C33.9616 220.466 34.4556 220.872 34.785 221.391C35.127 221.91 35.298 222.499 35.298 223.158C35.298 223.931 35.089 224.577 34.671 225.096C34.2656 225.615 33.721 225.983 33.037 226.198ZM28.173 225.21H30.605C31.2383 225.21 31.726 225.071 32.068 224.792C32.41 224.501 32.581 224.089 32.581 223.557C32.581 223.025 32.41 222.613 32.068 222.322C31.726 222.031 31.2383 221.885 30.605 221.885H28.173V225.21ZM30.852 230.834C31.498 230.834 31.9983 230.682 32.353 230.378C32.7203 230.074 32.904 229.643 32.904 229.086C32.904 228.516 32.714 228.073 32.334 227.756C31.954 227.427 31.441 227.262 30.795 227.262H28.173V230.834H30.852ZM44.3772 233L41.4512 227.832H40.1972V233H37.5372V219.738H42.5152C43.5412 219.738 44.4152 219.922 45.1372 220.289C45.8592 220.644 46.3975 221.131 46.7522 221.752C47.1195 222.36 47.3032 223.044 47.3032 223.804C47.3032 224.678 47.0498 225.47 46.5432 226.179C46.0365 226.876 45.2828 227.357 44.2822 227.623L47.4552 233H44.3772ZM40.1972 225.837H42.4202C43.1422 225.837 43.6805 225.666 44.0352 225.324C44.3898 224.969 44.5672 224.482 44.5672 223.861C44.5672 223.253 44.3898 222.784 44.0352 222.455C43.6805 222.113 43.1422 221.942 42.4202 221.942H40.1972V225.837ZM55.8809 225.666C54.6142 225.007 53.9809 223.988 53.9809 222.607C53.9809 221.923 54.1519 221.302 54.4939 220.745C54.8485 220.175 55.3742 219.725 56.0709 219.396C56.7802 219.054 57.6415 218.883 58.6549 218.883C59.6682 218.883 60.5232 219.054 61.2199 219.396C61.9292 219.725 62.4549 220.175 62.7969 220.745C63.1515 221.302 63.3289 221.923 63.3289 222.607C63.3289 223.304 63.1579 223.918 62.8159 224.45C62.4739 224.969 62.0179 225.375 61.4479 225.666C62.1445 225.97 62.6892 226.413 63.0819 226.996C63.4745 227.579 63.6709 228.269 63.6709 229.067C63.6709 229.928 63.4492 230.682 63.0059 231.328C62.5752 231.961 61.9799 232.449 61.2199 232.791C60.4599 233.133 59.6049 233.304 58.6549 233.304C57.7049 233.304 56.8499 233.133 56.0899 232.791C55.3425 232.449 54.7472 231.961 54.3039 231.328C53.8732 230.682 53.6579 229.928 53.6579 229.067C53.6579 228.269 53.8542 227.579 54.2469 226.996C54.6395 226.401 55.1842 225.957 55.8809 225.666ZM60.7449 222.987C60.7449 222.366 60.5549 221.885 60.1749 221.543C59.8075 221.201 59.3009 221.03 58.6549 221.03C58.0215 221.03 57.5149 221.201 57.1349 221.543C56.7675 221.885 56.5839 222.373 56.5839 223.006C56.5839 223.576 56.7739 224.032 57.1539 224.374C57.5465 224.716 58.0469 224.887 58.6549 224.887C59.2629 224.887 59.7632 224.716 60.1559 224.374C60.5485 224.019 60.7449 223.557 60.7449 222.987ZM58.6549 226.825C57.9329 226.825 57.3439 227.009 56.8879 227.376C56.4445 227.743 56.2229 228.269 56.2229 228.953C56.2229 229.586 56.4382 230.106 56.8689 230.511C57.3122 230.904 57.9075 231.1 58.6549 231.1C59.4022 231.1 59.9912 230.897 60.4219 230.492C60.8525 230.087 61.0679 229.574 61.0679 228.953C61.0679 228.282 60.8462 227.762 60.4029 227.395C59.9595 227.015 59.3769 226.825 58.6549 226.825ZM65.5871 225.894C65.5871 223.703 65.9797 221.986 66.7651 220.745C67.5631 219.504 68.8804 218.883 70.7171 218.883C72.5537 218.883 73.8647 219.504 74.6501 220.745C75.4481 221.986 75.8471 223.703 75.8471 225.894C75.8471 228.098 75.4481 229.827 74.6501 231.081C73.8647 232.335 72.5537 232.962 70.7171 232.962C68.8804 232.962 67.5631 232.335 66.7651 231.081C65.9797 229.827 65.5871 228.098 65.5871 225.894ZM73.2251 225.894C73.2251 224.957 73.1617 224.171 73.0351 223.538C72.9211 222.892 72.6804 222.366 72.3131 221.961C71.9584 221.556 71.4264 221.353 70.7171 221.353C70.0077 221.353 69.4694 221.556 69.1021 221.961C68.7474 222.366 68.5067 222.892 68.3801 223.538C68.2661 224.171 68.2091 224.957 68.2091 225.894C68.2091 226.857 68.2661 227.667 68.3801 228.326C68.4941 228.972 68.7347 229.498 69.1021 229.903C69.4694 230.296 70.0077 230.492 70.7171 230.492C71.4264 230.492 71.9647 230.296 72.3321 229.903C72.6994 229.498 72.9401 228.972 73.0541 228.326C73.1681 227.667 73.2251 226.857 73.2251 225.894ZM80.8965 230.207L78.6735 235.546H76.9635L78.1985 230.207H80.8965ZM82.325 225.894C82.325 223.703 82.7176 221.986 83.503 220.745C84.301 219.504 85.6183 218.883 87.455 218.883C89.2916 218.883 90.6026 219.504 91.388 220.745C92.186 221.986 92.585 223.703 92.585 225.894C92.585 228.098 92.186 229.827 91.388 231.081C90.6026 232.335 89.2916 232.962 87.455 232.962C85.6183 232.962 84.301 232.335 83.503 231.081C82.7176 229.827 82.325 228.098 82.325 225.894ZM89.963 225.894C89.963 224.957 89.8996 224.171 89.773 223.538C89.659 222.892 89.4183 222.366 89.051 221.961C88.6963 221.556 88.1643 221.353 87.455 221.353C86.7456 221.353 86.2073 221.556 85.84 221.961C85.4853 222.366 85.2446 222.892 85.118 223.538C85.004 224.171 84.947 224.957 84.947 225.894C84.947 226.857 85.004 227.667 85.118 228.326C85.232 228.972 85.4726 229.498 85.84 229.903C86.2073 230.296 86.7456 230.492 87.455 230.492C88.1643 230.492 88.7026 230.296 89.07 229.903C89.4373 229.498 89.678 228.972 89.792 228.326C89.906 227.667 89.963 226.857 89.963 225.894ZM94.4234 225.894C94.4234 223.703 94.8161 221.986 95.6014 220.745C96.3994 219.504 97.7167 218.883 99.5534 218.883C101.39 218.883 102.701 219.504 103.486 220.745C104.284 221.986 104.683 223.703 104.683 225.894C104.683 228.098 104.284 229.827 103.486 231.081C102.701 232.335 101.39 232.962 99.5534 232.962C97.7167 232.962 96.3994 232.335 95.6014 231.081C94.8161 229.827 94.4234 228.098 94.4234 225.894ZM102.061 225.894C102.061 224.957 101.998 224.171 101.871 223.538C101.757 222.892 101.517 222.366 101.149 221.961C100.795 221.556 100.263 221.353 99.5534 221.353C98.8441 221.353 98.3057 221.556 97.9384 221.961C97.5837 222.366 97.3431 222.892 97.2164 223.538C97.1024 224.171 97.0454 224.957 97.0454 225.894C97.0454 226.857 97.1024 227.667 97.2164 228.326C97.3304 228.972 97.5711 229.498 97.9384 229.903C98.3057 230.296 98.8441 230.492 99.5534 230.492C100.263 230.492 100.801 230.296 101.168 229.903C101.536 229.498 101.776 228.972 101.89 228.326C102.004 227.667 102.061 226.857 102.061 225.894ZM106.522 225.894C106.522 223.703 106.915 221.986 107.7 220.745C108.498 219.504 109.815 218.883 111.652 218.883C113.489 218.883 114.8 219.504 115.585 220.745C116.383 221.986 116.782 223.703 116.782 225.894C116.782 228.098 116.383 229.827 115.585 231.081C114.8 232.335 113.489 232.962 111.652 232.962C109.815 232.962 108.498 232.335 107.7 231.081C106.915 229.827 106.522 228.098 106.522 225.894ZM114.16 225.894C114.16 224.957 114.097 224.171 113.97 223.538C113.856 222.892 113.615 222.366 113.248 221.961C112.893 221.556 112.361 221.353 111.652 221.353C110.943 221.353 110.404 221.556 110.037 221.961C109.682 222.366 109.442 222.892 109.315 223.538C109.201 224.171 109.144 224.957 109.144 225.894C109.144 226.857 109.201 227.667 109.315 228.326C109.429 228.972 109.67 229.498 110.037 229.903C110.404 230.296 110.943 230.492 111.652 230.492C112.361 230.492 112.9 230.296 113.267 229.903C113.634 229.498 113.875 228.972 113.989 228.326C114.103 227.667 114.16 226.857 114.16 225.894Z" fill="#007438"/>
</svg>
