<svg width="298" height="197" viewBox="0 0 298 197" fill="none" xmlns="http://www.w3.org/2000/svg">
<rect width="298" height="183" rx="10" fill="#F3F3F3"/>
<path d="M0 10C0 4.47715 4.47715 0 10 0H288C293.523 0 298 4.47715 298 10V25H0V10Z" fill="#D9DADC"/>
<path d="M115.5 135.721H39V119.721L63.5 109.721V98.7208C59.1 96.3208 57 88.7208 56.5 85.2208C56.3333 82.0542 56.1 73.4208 56.5 64.2208C56.9 55.0208 65 51.7208 69 51.2209C70.1667 51.0542 75 50.8209 85 51.2209C95 51.6209 98.1667 63.3875 98.5 69.2209C98.6667 75.2209 98.9 87.7209 98.5 89.7209C98.1 91.7209 92.6667 98.5542 90 101.721V109.721L115.5 119.721V135.721Z" fill="#D9D9D9"/>
<rect x="149" y="51" width="106" height="8" fill="#D9D9D9"/>
<rect x="149" y="77" width="106" height="8" fill="#D9D9D9"/>
<rect x="149" y="103" width="106" height="8" fill="#D9D9D9"/>
<rect x="149" y="129" width="106" height="8" fill="#D9D9D9"/>
<circle cx="265" cy="172" r="25" fill="#007438"/>
<path d="M252.832 165.727C253.331 165.204 254.02 164.895 254.804 164.895H258.749V164.848C258.749 164.254 258.987 163.683 259.391 163.303C259.795 162.899 260.341 162.662 260.935 162.662H268.065C268.683 162.662 269.229 162.899 269.633 163.303C270.037 163.707 270.275 164.254 270.275 164.848V164.895H274.196C274.98 164.895 275.669 165.204 276.168 165.727C276.667 166.226 277 166.939 277 167.7V179.534C277 180.318 276.691 181.008 276.168 181.507C275.669 182.006 274.956 182.338 274.196 182.338H254.804C254.02 182.338 253.331 182.029 252.832 181.507C252.333 181.008 252 180.295 252 179.534V167.7C252 166.915 252.309 166.226 252.832 165.727ZM253.236 179.534H253.26C253.26 179.962 253.426 180.342 253.711 180.627C253.996 180.913 254.376 181.079 254.804 181.079H274.196C274.624 181.079 275.004 180.913 275.289 180.627C275.574 180.342 275.74 179.962 275.74 179.534V167.7C275.74 167.272 275.574 166.892 275.289 166.606C275.004 166.321 274.624 166.155 274.196 166.155H269.609C269.253 166.155 268.968 165.87 268.968 165.513V164.824C268.968 164.563 268.873 164.325 268.706 164.159C268.54 163.992 268.302 163.897 268.041 163.897H260.935C260.674 163.897 260.436 163.992 260.27 164.159C260.104 164.325 260.009 164.563 260.009 164.824V165.513C260.009 165.87 259.723 166.155 259.367 166.155H254.78C254.353 166.155 253.972 166.321 253.687 166.606C253.402 166.892 253.236 167.272 253.236 167.7V179.534Z" fill="white"/>
<path d="M264.5 167.771C266.116 167.771 267.589 168.436 268.635 169.482C269.704 170.551 270.346 172.001 270.346 173.617C270.346 175.233 269.681 176.706 268.635 177.752C267.566 178.821 266.116 179.463 264.5 179.463C262.884 179.463 261.411 178.798 260.365 177.752C259.296 176.683 258.654 175.233 258.654 173.617C258.654 172.001 259.319 170.528 260.365 169.482C261.411 168.436 262.884 167.771 264.5 167.771ZM261.268 176.873C262.1 177.681 263.24 178.204 264.5 178.204C265.759 178.204 266.9 177.681 267.732 176.873C268.564 176.041 269.063 174.9 269.063 173.641C269.063 172.381 268.54 171.241 267.732 170.409C266.9 169.577 265.759 169.078 264.5 169.078C263.24 169.078 262.1 169.601 261.268 170.409C260.436 171.241 259.937 172.381 259.937 173.641C259.913 174.9 260.436 176.041 261.268 176.873Z" fill="white"/>
<path d="M256.04 170.076C255.397 170.076 254.875 169.555 254.875 168.912C254.875 168.269 255.397 167.747 256.04 167.747C256.683 167.747 257.204 168.269 257.204 168.912C257.204 169.555 256.683 170.076 256.04 170.076Z" fill="white"/>
</svg>
