<svg width="340" height="117" viewBox="0 0 340 117" fill="none" xmlns="http://www.w3.org/2000/svg">
<rect x="0.5" y="37.5" width="339" height="79" rx="15.5" fill="white" stroke="#E5E7EB"/>
<path d="M92.8003 66.8516H89.8706V65.1641H92.8003C93.2795 65.1641 93.6675 65.0859 93.9644 64.9297C94.2664 64.7682 94.4878 64.5495 94.6284 64.2734C94.769 63.9922 94.8394 63.6719 94.8394 63.3125C94.8394 62.9635 94.769 62.638 94.6284 62.3359C94.4878 62.0339 94.2664 61.7891 93.9644 61.6016C93.6675 61.4141 93.2795 61.3203 92.8003 61.3203H90.5737V71H88.4253V59.625H92.8003C93.6857 59.625 94.4409 59.7839 95.0659 60.1016C95.6961 60.4141 96.1753 60.849 96.5034 61.4062C96.8368 61.9583 97.0034 62.5885 97.0034 63.2969C97.0034 64.0312 96.8368 64.6641 96.5034 65.1953C96.1753 65.7266 95.6961 66.1354 95.0659 66.4219C94.4409 66.7083 93.6857 66.8516 92.8003 66.8516ZM103.397 69.2031V65.3047C103.397 65.0182 103.348 64.7708 103.249 64.5625C103.15 64.3542 102.999 64.1927 102.796 64.0781C102.592 63.9635 102.335 63.9062 102.022 63.9062C101.746 63.9062 101.504 63.9531 101.296 64.0469C101.092 64.1406 100.936 64.2734 100.827 64.4453C100.717 64.612 100.663 64.8047 100.663 65.0234H98.5925C98.5925 64.6745 98.6758 64.3438 98.8425 64.0312C99.0091 63.7135 99.2461 63.4323 99.5534 63.1875C99.8659 62.9375 100.238 62.7422 100.671 62.6016C101.108 62.4609 101.598 62.3906 102.139 62.3906C102.78 62.3906 103.35 62.5 103.85 62.7188C104.356 62.9323 104.751 63.2552 105.038 63.6875C105.329 64.1198 105.475 64.6641 105.475 65.3203V69.0078C105.475 69.4297 105.501 69.7917 105.553 70.0938C105.611 70.3906 105.694 70.6484 105.803 70.8672V71H103.702C103.603 70.7865 103.527 70.5156 103.475 70.1875C103.423 69.8542 103.397 69.526 103.397 69.2031ZM103.686 65.8516L103.702 67.0781H102.397C102.074 67.0781 101.79 67.112 101.546 67.1797C101.301 67.2422 101.1 67.3359 100.944 67.4609C100.788 67.5807 100.671 67.7266 100.592 67.8984C100.514 68.0651 100.475 68.2552 100.475 68.4688C100.475 68.6771 100.522 68.8646 100.616 69.0312C100.715 69.1979 100.856 69.3307 101.038 69.4297C101.225 69.5234 101.444 69.5703 101.694 69.5703C102.059 69.5703 102.376 69.4974 102.647 69.3516C102.918 69.2005 103.129 69.0182 103.28 68.8047C103.431 68.5911 103.512 68.388 103.522 68.1953L104.116 69.0859C104.043 69.2995 103.934 69.526 103.788 69.7656C103.642 70.0052 103.454 70.2292 103.225 70.4375C102.996 70.6458 102.72 70.8177 102.397 70.9531C102.074 71.0885 101.699 71.1562 101.272 71.1562C100.725 71.1562 100.236 71.0469 99.8034 70.8281C99.3711 70.6094 99.03 70.3099 98.78 69.9297C98.53 69.5495 98.405 69.1172 98.405 68.6328C98.405 68.1849 98.4883 67.7891 98.655 67.4453C98.8216 67.1016 99.069 66.8125 99.3972 66.5781C99.7253 66.3385 100.132 66.1589 100.616 66.0391C101.106 65.9141 101.665 65.8516 102.296 65.8516H103.686ZM109.986 70.0625L112.252 62.5469H114.463L111.072 72.2812C110.994 72.4896 110.892 72.7161 110.767 72.9609C110.648 73.2057 110.486 73.4375 110.283 73.6562C110.08 73.8802 109.825 74.0625 109.517 74.2031C109.215 74.3438 108.848 74.4141 108.416 74.4141C108.228 74.4141 108.062 74.401 107.916 74.375C107.77 74.349 107.616 74.3151 107.455 74.2734V72.7266C107.507 72.7318 107.567 72.7344 107.635 72.7344C107.708 72.7396 107.77 72.7422 107.822 72.7422C108.124 72.7422 108.374 72.7057 108.572 72.6328C108.77 72.5651 108.929 72.4531 109.049 72.2969C109.174 72.1458 109.278 71.9479 109.361 71.7031L109.986 70.0625ZM108.869 62.5469L110.783 68.7734L111.119 70.9531L109.697 71.2109L106.642 62.5469H108.869ZM117.825 64.1719V74.25H115.755V62.5469H117.669L117.825 64.1719ZM123.255 66.6875V66.8516C123.255 67.4661 123.182 68.0365 123.036 68.5625C122.896 69.0833 122.687 69.5391 122.411 69.9297C122.135 70.3151 121.791 70.6172 121.38 70.8359C120.974 71.0495 120.505 71.1562 119.974 71.1562C119.453 71.1562 119 71.0573 118.614 70.8594C118.229 70.6562 117.903 70.3698 117.638 70C117.372 69.6302 117.159 69.2005 116.997 68.7109C116.841 68.2161 116.724 67.6771 116.646 67.0938V66.5703C116.724 65.9505 116.841 65.388 116.997 64.8828C117.159 64.3724 117.372 63.9323 117.638 63.5625C117.903 63.1875 118.226 62.8984 118.607 62.6953C118.992 62.4922 119.442 62.3906 119.958 62.3906C120.495 62.3906 120.966 62.4922 121.372 62.6953C121.784 62.8984 122.13 63.1901 122.411 63.5703C122.692 63.9505 122.903 64.4036 123.044 64.9297C123.185 65.4557 123.255 66.0417 123.255 66.6875ZM121.185 66.8516V66.6875C121.185 66.3125 121.151 65.9661 121.083 65.6484C121.015 65.3255 120.911 65.0443 120.771 64.8047C120.63 64.5599 120.448 64.3698 120.224 64.2344C120 64.099 119.729 64.0312 119.411 64.0312C119.094 64.0312 118.82 64.0833 118.591 64.1875C118.362 64.2917 118.174 64.4401 118.028 64.6328C117.883 64.8255 117.768 65.0547 117.685 65.3203C117.607 65.5807 117.554 65.8698 117.528 66.1875V67.4844C117.575 67.8698 117.666 68.2161 117.802 68.5234C117.937 68.8307 118.135 69.0755 118.396 69.2578C118.661 69.4401 119.005 69.5312 119.427 69.5312C119.745 69.5312 120.015 69.4609 120.239 69.3203C120.463 69.1797 120.646 68.987 120.786 68.7422C120.927 68.4922 121.028 68.2057 121.091 67.8828C121.153 67.5599 121.185 67.2161 121.185 66.8516ZM129.719 69.2031V65.3047C129.719 65.0182 129.67 64.7708 129.571 64.5625C129.472 64.3542 129.321 64.1927 129.117 64.0781C128.914 63.9635 128.657 63.9062 128.344 63.9062C128.068 63.9062 127.826 63.9531 127.617 64.0469C127.414 64.1406 127.258 64.2734 127.149 64.4453C127.039 64.612 126.985 64.8047 126.985 65.0234H124.914C124.914 64.6745 124.998 64.3438 125.164 64.0312C125.331 63.7135 125.568 63.4323 125.875 63.1875C126.188 62.9375 126.56 62.7422 126.992 62.6016C127.43 62.4609 127.92 62.3906 128.461 62.3906C129.102 62.3906 129.672 62.5 130.172 62.7188C130.677 62.9323 131.073 63.2552 131.36 63.6875C131.651 64.1198 131.797 64.6641 131.797 65.3203V69.0078C131.797 69.4297 131.823 69.7917 131.875 70.0938C131.933 70.3906 132.016 70.6484 132.125 70.8672V71H130.024C129.925 70.7865 129.849 70.5156 129.797 70.1875C129.745 69.8542 129.719 69.526 129.719 69.2031ZM130.008 65.8516L130.024 67.0781H128.719C128.396 67.0781 128.112 67.112 127.867 67.1797C127.623 67.2422 127.422 67.3359 127.266 67.4609C127.11 67.5807 126.992 67.7266 126.914 67.8984C126.836 68.0651 126.797 68.2552 126.797 68.4688C126.797 68.6771 126.844 68.8646 126.938 69.0312C127.037 69.1979 127.177 69.3307 127.36 69.4297C127.547 69.5234 127.766 69.5703 128.016 69.5703C128.381 69.5703 128.698 69.4974 128.969 69.3516C129.24 69.2005 129.451 69.0182 129.602 68.8047C129.753 68.5911 129.834 68.388 129.844 68.1953L130.438 69.0859C130.365 69.2995 130.256 69.526 130.11 69.7656C129.964 70.0052 129.776 70.2292 129.547 70.4375C129.318 70.6458 129.042 70.8177 128.719 70.9531C128.396 71.0885 128.021 71.1562 127.594 71.1562C127.047 71.1562 126.558 71.0469 126.125 70.8281C125.693 70.6094 125.352 70.3099 125.102 69.9297C124.852 69.5495 124.727 69.1172 124.727 68.6328C124.727 68.1849 124.81 67.7891 124.977 67.4453C125.144 67.1016 125.391 66.8125 125.719 66.5781C126.047 66.3385 126.453 66.1589 126.938 66.0391C127.427 65.9141 127.987 65.8516 128.617 65.8516H130.008ZM136.144 59V71H134.074V59H136.144Z" fill="#008656"/>
<path d="M93.7905 93.834V95H89.2612V93.834H93.7905ZM89.6772 86.4688V95H88.2065V86.4688H89.6772ZM93.1987 90.0312V91.1797H89.2612V90.0312H93.1987ZM93.7612 86.4688V87.6406H89.2612V86.4688H93.7612ZM98.7253 93.7285V90.7051C98.7253 90.4785 98.6843 90.2832 98.6022 90.1191C98.5202 89.9551 98.3952 89.8281 98.2272 89.7383C98.0632 89.6484 97.8562 89.6035 97.6062 89.6035C97.3757 89.6035 97.1765 89.6426 97.0085 89.7207C96.8405 89.7988 96.7097 89.9043 96.6159 90.0371C96.5222 90.1699 96.4753 90.3203 96.4753 90.4883H95.069C95.069 90.2383 95.1296 89.9961 95.2507 89.7617C95.3718 89.5273 95.5476 89.3184 95.778 89.1348C96.0085 88.9512 96.2839 88.8066 96.6042 88.7012C96.9245 88.5957 97.2839 88.543 97.6823 88.543C98.1589 88.543 98.5808 88.623 98.9479 88.7832C99.319 88.9434 99.6101 89.1855 99.821 89.5098C100.036 89.8301 100.143 90.2324 100.143 90.7168V93.5352C100.143 93.8242 100.163 94.084 100.202 94.3145C100.245 94.541 100.305 94.7383 100.383 94.9062V95H98.9362C98.8698 94.8477 98.8171 94.6543 98.778 94.4199C98.7429 94.1816 98.7253 93.9512 98.7253 93.7285ZM98.9304 91.1445L98.9421 92.0176H97.9284C97.6667 92.0176 97.4362 92.043 97.237 92.0938C97.0378 92.1406 96.8718 92.2109 96.739 92.3047C96.6062 92.3984 96.5065 92.5117 96.4401 92.6445C96.3737 92.7773 96.3405 92.9277 96.3405 93.0957C96.3405 93.2637 96.3796 93.418 96.4577 93.5586C96.5358 93.6953 96.6491 93.8027 96.7976 93.8809C96.9499 93.959 97.1335 93.998 97.3483 93.998C97.6374 93.998 97.8894 93.9395 98.1042 93.8223C98.3229 93.7012 98.4948 93.5547 98.6198 93.3828C98.7448 93.207 98.8112 93.041 98.819 92.8848L99.2761 93.5117C99.2292 93.6719 99.1491 93.8438 99.0358 94.0273C98.9226 94.2109 98.7741 94.3867 98.5905 94.5547C98.4108 94.7188 98.194 94.8535 97.9401 94.959C97.6901 95.0645 97.4011 95.1172 97.0729 95.1172C96.6589 95.1172 96.2897 95.0352 95.9655 94.8711C95.6413 94.7031 95.3874 94.4785 95.2038 94.1973C95.0202 93.9121 94.9284 93.5898 94.9284 93.2305C94.9284 92.8945 94.9909 92.5977 95.1159 92.3398C95.2448 92.0781 95.4323 91.8594 95.6784 91.6836C95.9284 91.5078 96.2331 91.375 96.5925 91.2852C96.9519 91.1914 97.362 91.1445 97.8229 91.1445H98.9304ZM105.476 93.2832C105.476 93.1426 105.441 93.0156 105.371 92.9023C105.301 92.7852 105.166 92.6797 104.967 92.5859C104.771 92.4922 104.482 92.4062 104.1 92.3281C103.764 92.2539 103.455 92.166 103.174 92.0645C102.896 91.959 102.658 91.832 102.459 91.6836C102.26 91.5352 102.105 91.3594 101.996 91.1562C101.887 90.9531 101.832 90.7188 101.832 90.4531C101.832 90.1953 101.889 89.9512 102.002 89.7207C102.115 89.4902 102.277 89.2871 102.488 89.1113C102.699 88.9355 102.955 88.7969 103.256 88.6953C103.56 88.5938 103.9 88.543 104.275 88.543C104.807 88.543 105.262 88.6328 105.641 88.8125C106.023 88.9883 106.316 89.2285 106.519 89.5332C106.723 89.834 106.824 90.1738 106.824 90.5527H105.412C105.412 90.3848 105.369 90.2285 105.283 90.084C105.201 89.9355 105.076 89.8164 104.908 89.7266C104.74 89.6328 104.529 89.5859 104.275 89.5859C104.033 89.5859 103.832 89.625 103.672 89.7031C103.516 89.7773 103.398 89.875 103.32 89.9961C103.246 90.1172 103.209 90.25 103.209 90.3945C103.209 90.5 103.228 90.5957 103.267 90.6816C103.31 90.7637 103.381 90.8398 103.478 90.9102C103.576 90.9766 103.709 91.0391 103.877 91.0977C104.049 91.1562 104.264 91.2129 104.521 91.2676C105.006 91.3691 105.422 91.5 105.769 91.6602C106.121 91.8164 106.391 92.0195 106.578 92.2695C106.766 92.5156 106.859 92.8281 106.859 93.207C106.859 93.4883 106.799 93.7461 106.678 93.9805C106.56 94.2109 106.389 94.4121 106.162 94.584C105.935 94.752 105.664 94.8828 105.348 94.9766C105.035 95.0703 104.683 95.1172 104.293 95.1172C103.719 95.1172 103.232 95.0156 102.834 94.8125C102.435 94.6055 102.133 94.3418 101.926 94.0215C101.723 93.6973 101.621 93.3613 101.621 93.0137H102.986C103.002 93.2754 103.074 93.4844 103.203 93.6406C103.336 93.793 103.5 93.9043 103.695 93.9746C103.894 94.041 104.1 94.0742 104.31 94.0742C104.564 94.0742 104.777 94.041 104.949 93.9746C105.121 93.9043 105.252 93.8105 105.342 93.6934C105.432 93.5723 105.476 93.4355 105.476 93.2832ZM110.235 94.3086L111.958 88.6602H113.47L110.927 95.9668C110.868 96.123 110.792 96.293 110.698 96.4766C110.605 96.6602 110.482 96.834 110.329 96.998C110.181 97.166 109.995 97.3008 109.773 97.4023C109.55 97.5078 109.28 97.5605 108.964 97.5605C108.839 97.5605 108.718 97.5488 108.601 97.5254C108.487 97.5059 108.38 97.4844 108.278 97.4609L108.273 96.3828C108.312 96.3867 108.358 96.3906 108.413 96.3945C108.472 96.3984 108.519 96.4004 108.554 96.4004C108.788 96.4004 108.983 96.3711 109.14 96.3125C109.296 96.2578 109.423 96.168 109.521 96.043C109.622 95.918 109.708 95.75 109.778 95.5391L110.235 94.3086ZM109.263 88.6602L110.769 93.4062L111.021 94.8945L110.042 95.1465L107.739 88.6602H109.263ZM119.285 89.8789V97.4375H117.873V88.6602H119.173L119.285 89.8789ZM123.416 91.7715V91.8945C123.416 92.3555 123.361 92.7832 123.251 93.1777C123.146 93.5684 122.988 93.9102 122.777 94.2031C122.57 94.4922 122.314 94.7168 122.009 94.877C121.705 95.0371 121.353 95.1172 120.955 95.1172C120.56 95.1172 120.214 95.0449 119.917 94.9004C119.625 94.752 119.376 94.543 119.173 94.2734C118.97 94.0039 118.806 93.6875 118.681 93.3242C118.56 92.957 118.474 92.5547 118.423 92.1172V91.6426C118.474 91.1777 118.56 90.7559 118.681 90.377C118.806 89.998 118.97 89.6719 119.173 89.3984C119.376 89.125 119.625 88.9141 119.917 88.7656C120.21 88.6172 120.552 88.543 120.943 88.543C121.341 88.543 121.695 88.6211 122.003 88.7773C122.312 88.9297 122.572 89.1484 122.783 89.4336C122.994 89.7148 123.152 90.0547 123.257 90.4531C123.363 90.8477 123.416 91.2871 123.416 91.7715ZM122.003 91.8945V91.7715C122.003 91.4785 121.976 91.207 121.921 90.957C121.867 90.7031 121.781 90.4805 121.664 90.2891C121.546 90.0977 121.396 89.9492 121.212 89.8438C121.033 89.7344 120.816 89.6797 120.562 89.6797C120.312 89.6797 120.097 89.7227 119.917 89.8086C119.738 89.8906 119.587 90.0059 119.466 90.1543C119.345 90.3027 119.251 90.4766 119.185 90.6758C119.119 90.8711 119.072 91.084 119.044 91.3145V92.4512C119.091 92.7324 119.171 92.9902 119.285 93.2246C119.398 93.459 119.558 93.6465 119.765 93.7871C119.976 93.9238 120.246 93.9922 120.574 93.9922C120.828 93.9922 121.044 93.9375 121.224 93.8281C121.404 93.7188 121.55 93.5684 121.664 93.377C121.781 93.1816 121.867 92.957 121.921 92.7031C121.976 92.4492 122.003 92.1797 122.003 91.8945ZM128.491 93.7285V90.7051C128.491 90.4785 128.45 90.2832 128.368 90.1191C128.286 89.9551 128.161 89.8281 127.993 89.7383C127.829 89.6484 127.622 89.6035 127.372 89.6035C127.141 89.6035 126.942 89.6426 126.774 89.7207C126.606 89.7988 126.475 89.9043 126.382 90.0371C126.288 90.1699 126.241 90.3203 126.241 90.4883H124.835C124.835 90.2383 124.895 89.9961 125.016 89.7617C125.137 89.5273 125.313 89.3184 125.544 89.1348C125.774 88.9512 126.05 88.8066 126.37 88.7012C126.69 88.5957 127.05 88.543 127.448 88.543C127.925 88.543 128.346 88.623 128.714 88.7832C129.085 88.9434 129.376 89.1855 129.587 89.5098C129.801 89.8301 129.909 90.2324 129.909 90.7168V93.5352C129.909 93.8242 129.928 94.084 129.967 94.3145C130.01 94.541 130.071 94.7383 130.149 94.9062V95H128.702C128.635 94.8477 128.583 94.6543 128.544 94.4199C128.508 94.1816 128.491 93.9512 128.491 93.7285ZM128.696 91.1445L128.708 92.0176H127.694C127.432 92.0176 127.202 92.043 127.003 92.0938C126.803 92.1406 126.637 92.2109 126.505 92.3047C126.372 92.3984 126.272 92.5117 126.206 92.6445C126.139 92.7773 126.106 92.9277 126.106 93.0957C126.106 93.2637 126.145 93.418 126.223 93.5586C126.301 93.6953 126.415 93.8027 126.563 93.8809C126.716 93.959 126.899 93.998 127.114 93.998C127.403 93.998 127.655 93.9395 127.87 93.8223C128.089 93.7012 128.26 93.5547 128.385 93.3828C128.51 93.207 128.577 93.041 128.585 92.8848L129.042 93.5117C128.995 93.6719 128.915 93.8438 128.801 94.0273C128.688 94.2109 128.54 94.3867 128.356 94.5547C128.176 94.7188 127.96 94.8535 127.706 94.959C127.456 95.0645 127.167 95.1172 126.839 95.1172C126.425 95.1172 126.055 95.0352 125.731 94.8711C125.407 94.7031 125.153 94.4785 124.969 94.1973C124.786 93.9121 124.694 93.5898 124.694 93.2305C124.694 92.8945 124.757 92.5977 124.882 92.3398C125.01 92.0781 125.198 91.8594 125.444 91.6836C125.694 91.5078 125.999 91.375 126.358 91.2852C126.717 91.1914 127.128 91.1445 127.589 91.1445H128.696ZM133.432 94.3086L135.154 88.6602H136.666L134.123 95.9668C134.064 96.123 133.988 96.293 133.894 96.4766C133.801 96.6602 133.678 96.834 133.525 96.998C133.377 97.166 133.191 97.3008 132.969 97.4023C132.746 97.5078 132.476 97.5605 132.16 97.5605C132.035 97.5605 131.914 97.5488 131.797 97.5254C131.683 97.5059 131.576 97.4844 131.475 97.4609L131.469 96.3828C131.508 96.3867 131.555 96.3906 131.609 96.3945C131.668 96.3984 131.715 96.4004 131.75 96.4004C131.984 96.4004 132.18 96.3711 132.336 96.3125C132.492 96.2578 132.619 96.168 132.717 96.043C132.818 95.918 132.904 95.75 132.975 95.5391L133.432 94.3086ZM132.459 88.6602L133.965 93.4062L134.217 94.8945L133.238 95.1465L130.935 88.6602H132.459ZM139.187 89.9492V95H137.775V88.6602H139.105L139.187 89.9492ZM138.958 91.5957L138.478 91.5898C138.478 91.1523 138.532 90.748 138.642 90.377C138.751 90.0059 138.911 89.6836 139.122 89.4102C139.333 89.1328 139.595 88.9199 139.907 88.7715C140.224 88.6191 140.589 88.543 141.003 88.543C141.292 88.543 141.556 88.5859 141.794 88.6719C142.036 88.7539 142.245 88.8848 142.421 89.0645C142.601 89.2441 142.737 89.4746 142.831 89.7559C142.929 90.0371 142.978 90.377 142.978 90.7754V95H141.566V90.8984C141.566 90.5898 141.519 90.3477 141.425 90.1719C141.335 89.9961 141.204 89.8711 141.032 89.7969C140.864 89.7188 140.663 89.6797 140.429 89.6797C140.163 89.6797 139.937 89.7305 139.749 89.832C139.566 89.9336 139.415 90.0723 139.298 90.248C139.181 90.4238 139.095 90.627 139.04 90.8574C138.985 91.0879 138.958 91.334 138.958 91.5957ZM142.89 91.2207L142.228 91.3672C142.228 90.9844 142.28 90.623 142.386 90.2832C142.495 89.9395 142.653 89.6387 142.86 89.3809C143.071 89.1191 143.331 88.9141 143.64 88.7656C143.948 88.6172 144.302 88.543 144.7 88.543C145.025 88.543 145.314 88.5879 145.567 88.6777C145.825 88.7637 146.044 88.9004 146.224 89.0879C146.403 89.2754 146.54 89.5195 146.634 89.8203C146.728 90.1172 146.775 90.4766 146.775 90.8984V95H145.357V90.8926C145.357 90.5723 145.31 90.3242 145.216 90.1484C145.126 89.9727 144.997 89.8516 144.829 89.7852C144.661 89.7148 144.46 89.6797 144.226 89.6797C144.007 89.6797 143.814 89.7207 143.646 89.8027C143.482 89.8809 143.343 89.9922 143.23 90.1367C143.116 90.2773 143.03 90.4395 142.972 90.623C142.917 90.8066 142.89 91.0059 142.89 91.2207ZM151.323 95.1172C150.854 95.1172 150.43 95.041 150.051 94.8887C149.676 94.7324 149.356 94.5156 149.09 94.2383C148.828 93.9609 148.627 93.6348 148.487 93.2598C148.346 92.8848 148.276 92.4805 148.276 92.0469V91.8125C148.276 91.3164 148.348 90.8672 148.492 90.4648C148.637 90.0625 148.838 89.7188 149.096 89.4336C149.354 89.1445 149.658 88.9238 150.01 88.7715C150.362 88.6191 150.742 88.543 151.153 88.543C151.606 88.543 152.002 88.6191 152.342 88.7715C152.682 88.9238 152.963 89.1387 153.186 89.416C153.412 89.6895 153.58 90.0156 153.69 90.3945C153.803 90.7734 153.86 91.1914 153.86 91.6484V92.252H148.961V91.2383H152.465V91.127C152.457 90.873 152.407 90.6348 152.313 90.4121C152.223 90.1895 152.084 90.0098 151.897 89.873C151.709 89.7363 151.459 89.668 151.147 89.668C150.912 89.668 150.703 89.7188 150.52 89.8203C150.34 89.918 150.19 90.0605 150.069 90.248C149.948 90.4355 149.854 90.6621 149.787 90.9277C149.725 91.1895 149.694 91.4844 149.694 91.8125V92.0469C149.694 92.3242 149.731 92.582 149.805 92.8203C149.883 93.0547 149.996 93.2598 150.145 93.4355C150.293 93.6113 150.473 93.75 150.684 93.8516C150.895 93.9492 151.135 93.998 151.405 93.998C151.744 93.998 152.047 93.9297 152.313 93.793C152.578 93.6562 152.809 93.4629 153.004 93.2129L153.748 93.9336C153.612 94.1328 153.434 94.3242 153.215 94.5078C152.996 94.6875 152.729 94.834 152.412 94.9473C152.1 95.0605 151.737 95.1172 151.323 95.1172ZM156.662 90.0137V95H155.25V88.6602H156.58L156.662 90.0137ZM156.41 91.5957L155.953 91.5898C155.957 91.1406 156.019 90.7285 156.14 90.3535C156.265 89.9785 156.437 89.6562 156.656 89.3867C156.878 89.1172 157.144 88.9102 157.453 88.7656C157.761 88.6172 158.105 88.543 158.484 88.543C158.789 88.543 159.064 88.5859 159.31 88.6719C159.56 88.7539 159.773 88.8887 159.949 89.0762C160.128 89.2637 160.265 89.5078 160.359 89.8086C160.453 90.1055 160.5 90.4707 160.5 90.9043V95H159.082V90.8984C159.082 90.5938 159.037 90.3535 158.947 90.1777C158.861 89.998 158.734 89.8711 158.566 89.7969C158.402 89.7188 158.197 89.6797 157.951 89.6797C157.708 89.6797 157.492 89.7305 157.3 89.832C157.109 89.9336 156.947 90.0723 156.814 90.248C156.685 90.4238 156.585 90.627 156.515 90.8574C156.445 91.0879 156.41 91.334 156.41 91.5957ZM165.147 88.6602V89.6914H161.573V88.6602H165.147ZM162.604 87.1074H164.016V93.248C164.016 93.4434 164.044 93.5938 164.098 93.6992C164.157 93.8008 164.237 93.8691 164.339 93.9043C164.44 93.9395 164.559 93.957 164.696 93.957C164.794 93.957 164.887 93.9512 164.977 93.9395C165.067 93.9277 165.139 93.916 165.194 93.9043L165.2 94.9824C165.083 95.0176 164.946 95.0488 164.79 95.0762C164.637 95.1035 164.462 95.1172 164.262 95.1172C163.938 95.1172 163.651 95.0605 163.401 94.9473C163.151 94.8301 162.956 94.6406 162.815 94.3789C162.675 94.1172 162.604 93.7695 162.604 93.3359V87.1074Z" fill="#6B7280"/>
<rect x="20.7952" y="53" width="49.9083" height="48" rx="24" fill="#F9FAFB"/>
<path d="M41.3778 88.2543L41.8115 85.6045L40.8453 85.583H36.2317L39.4379 66.0307C39.4475 65.9709 39.479 65.9165 39.5268 65.8772C39.5746 65.838 39.6355 65.8166 39.6983 65.8169H47.4776C50.0601 65.8169 51.8424 66.3338 52.7729 67.3539C53.2091 67.8325 53.487 68.3326 53.6213 68.883C53.7623 69.4605 53.7648 70.1504 53.6271 70.9919L53.6172 71.0533V71.5925L54.0534 71.8302C54.3864 71.9925 54.6858 72.212 54.9367 72.4779C55.3099 72.8871 55.5512 73.4072 55.6532 74.0237C55.7585 74.6578 55.7237 75.4124 55.5512 76.2667C55.3522 77.2494 55.0304 78.1052 54.5958 78.8055C54.2124 79.4329 53.6968 79.9763 53.0823 80.4008C52.505 80.7948 51.8192 81.0939 51.0437 81.2854C50.2923 81.4736 49.4356 81.5685 48.496 81.5685H47.8906C47.4577 81.5685 47.0372 81.7185 46.7071 81.9873C46.3775 82.259 46.1588 82.6343 46.0901 83.0465L46.0445 83.285L45.2781 87.9552L45.2433 88.1267C45.2342 88.1809 45.2184 88.208 45.1952 88.2264C45.1727 88.2441 45.1447 88.2539 45.1156 88.2543H41.3778Z" fill="#253B80"/>
<path d="M54.4663 71.1158C54.4431 71.2586 54.4165 71.4046 54.3867 71.5545C53.3608 76.6203 49.851 78.3703 45.3684 78.3703H43.0861C42.5379 78.3703 42.0759 78.7532 41.9905 79.2732L40.822 86.4009L40.4911 88.4213C40.4779 88.5014 40.4829 88.5833 40.5058 88.6614C40.5287 88.7395 40.5689 88.8119 40.6237 88.8736C40.6785 88.9353 40.7465 88.9849 40.8231 89.0189C40.8997 89.0529 40.9831 89.0705 41.0675 89.0705H45.1155C45.5948 89.0705 46.002 88.7355 46.0775 88.2809L46.1173 88.0831L46.8795 83.4313L46.9284 83.176C47.003 82.7198 47.4111 82.3848 47.8904 82.3848H48.4959C52.4178 82.3848 55.488 80.8533 56.3854 76.4217C56.7603 74.5704 56.5662 73.0246 55.5743 71.9374C55.2599 71.6011 54.8845 71.3227 54.4663 71.1158V71.1158Z" fill="#179BD7"/>
<path d="M53.3933 70.7039C53.0658 70.6128 52.7325 70.5417 52.3956 70.491C51.73 70.3926 51.0572 70.3453 50.3837 70.3498H44.2863C44.0543 70.3496 43.8298 70.4293 43.6536 70.5744C43.4773 70.7195 43.3608 70.9205 43.3251 71.141L42.028 79.0424L41.9907 79.2729C42.0311 79.0213 42.1638 78.792 42.3648 78.6264C42.5657 78.4608 42.8216 78.3698 43.0863 78.37H45.3686C49.8512 78.37 53.361 76.6192 54.3869 71.5542C54.4176 71.4042 54.4433 71.2583 54.4665 71.1155C54.1958 70.979 53.9137 70.8645 53.6231 70.7733C53.5469 70.749 53.4703 70.7259 53.3933 70.7039V70.7039Z" fill="#222D65"/>
<path d="M43.325 71.141C43.3604 70.9204 43.4768 70.7193 43.6532 70.5743C43.8295 70.4292 44.0542 70.3498 44.2862 70.3505H50.3836C51.1059 70.3505 51.7802 70.396 52.3955 70.4917C52.812 70.5546 53.2226 70.6488 53.6238 70.7733C53.9265 70.8698 54.2076 70.9838 54.4672 71.1154C54.7724 69.2434 54.4647 67.9688 53.4123 66.8146C52.2521 65.544 50.158 65 47.4784 65H39.6991C39.1518 65 38.6849 65.3829 38.6003 65.9037L35.36 85.6571C35.3449 85.7488 35.3507 85.8425 35.3769 85.9319C35.403 86.0213 35.449 86.1041 35.5117 86.1748C35.5743 86.2454 35.6522 86.3022 35.7398 86.3411C35.8274 86.3801 35.9228 86.4003 36.0194 86.4005H40.8221L42.0279 79.0423L43.325 71.141V71.141Z" fill="#253B80"/>
<path d="M5.46875 10.0078H2.54688L2.53125 8.39844H4.98438C5.41667 8.39844 5.77083 8.34375 6.04688 8.23438C6.32292 8.11979 6.52865 7.95573 6.66406 7.74219C6.80469 7.52344 6.875 7.25781 6.875 6.94531C6.875 6.59115 6.80729 6.30469 6.67188 6.08594C6.54167 5.86719 6.33594 5.70833 6.05469 5.60938C5.77865 5.51042 5.42188 5.46094 4.98438 5.46094H3.35938V15H1.01562V3.625H4.98438C5.64583 3.625 6.23698 3.6875 6.75781 3.8125C7.28385 3.9375 7.72917 4.1276 8.09375 4.38281C8.45833 4.63802 8.73698 4.96094 8.92969 5.35156C9.1224 5.73698 9.21875 6.19531 9.21875 6.72656C9.21875 7.19531 9.11198 7.6276 8.89844 8.02344C8.6901 8.41927 8.35938 8.74219 7.90625 8.99219C7.45833 9.24219 6.8724 9.38021 6.14844 9.40625L5.46875 10.0078ZM5.36719 15H1.90625L2.82031 13.1719H5.36719C5.77865 13.1719 6.11458 13.1068 6.375 12.9766C6.63542 12.8411 6.82812 12.6589 6.95312 12.4297C7.07812 12.2005 7.14062 11.9375 7.14062 11.6406C7.14062 11.3073 7.08333 11.0182 6.96875 10.7734C6.85938 10.5286 6.68229 10.3411 6.4375 10.2109C6.19271 10.0755 5.86979 10.0078 5.46875 10.0078H3.21094L3.22656 8.39844H6.03906L6.57812 9.03125C7.27083 9.02083 7.82812 9.14323 8.25 9.39844C8.67708 9.64844 8.98698 9.97396 9.17969 10.375C9.3776 10.776 9.47656 11.2057 9.47656 11.6641C9.47656 12.3932 9.31771 13.0078 9 13.5078C8.68229 14.0026 8.21615 14.375 7.60156 14.625C6.99219 14.875 6.2474 15 5.36719 15ZM15.9563 13.0938V9.32812C15.9563 9.05729 15.912 8.82552 15.8234 8.63281C15.7349 8.4349 15.5969 8.28125 15.4094 8.17188C15.2271 8.0625 14.9901 8.00781 14.6984 8.00781C14.4484 8.00781 14.2323 8.05208 14.05 8.14062C13.8677 8.22396 13.7271 8.34635 13.6281 8.50781C13.5292 8.66406 13.4797 8.84896 13.4797 9.0625H11.2297C11.2297 8.70312 11.313 8.36198 11.4797 8.03906C11.6464 7.71615 11.8885 7.43229 12.2063 7.1875C12.524 6.9375 12.9016 6.74219 13.3391 6.60156C13.7818 6.46094 14.2766 6.39062 14.8234 6.39062C15.4797 6.39062 16.063 6.5 16.5734 6.71875C17.0839 6.9375 17.4849 7.26562 17.7766 7.70312C18.0734 8.14062 18.2219 8.6875 18.2219 9.34375V12.9609C18.2219 13.4245 18.2505 13.8047 18.3078 14.1016C18.3651 14.3932 18.4484 14.6484 18.5578 14.8672V15H16.2844C16.175 14.7708 16.0917 14.4844 16.0344 14.1406C15.9823 13.7917 15.9563 13.4427 15.9563 13.0938ZM16.2531 9.85156L16.2688 11.125H15.0109C14.7141 11.125 14.4563 11.1589 14.2375 11.2266C14.0188 11.2943 13.8391 11.3906 13.6984 11.5156C13.5578 11.6354 13.4536 11.776 13.3859 11.9375C13.3234 12.099 13.2922 12.276 13.2922 12.4688C13.2922 12.6615 13.3365 12.8359 13.425 12.9922C13.5135 13.1432 13.6411 13.263 13.8078 13.3516C13.9745 13.4349 14.1698 13.4766 14.3938 13.4766C14.7323 13.4766 15.0266 13.4089 15.2766 13.2734C15.5266 13.138 15.7193 12.9714 15.8547 12.7734C15.9953 12.5755 16.0682 12.388 16.0734 12.2109L16.6672 13.1641C16.5839 13.3776 16.4693 13.599 16.3234 13.8281C16.1828 14.0573 16.0031 14.2734 15.7844 14.4766C15.5656 14.6745 15.3026 14.8385 14.9953 14.9688C14.688 15.0938 14.3234 15.1562 13.9016 15.1562C13.3651 15.1562 12.8781 15.0495 12.4406 14.8359C12.0083 14.6172 11.6646 14.3177 11.4094 13.9375C11.1594 13.5521 11.0344 13.1146 11.0344 12.625C11.0344 12.1823 11.1177 11.7891 11.2844 11.4453C11.451 11.1016 11.6958 10.8125 12.0188 10.5781C12.3469 10.3385 12.7557 10.1589 13.2453 10.0391C13.7349 9.91406 14.3026 9.85156 14.9484 9.85156H16.2531ZM22.4594 8.35156V15H20.2094V6.54688H22.3188L22.4594 8.35156ZM22.1313 10.4766H21.5219C21.5219 9.85156 21.6026 9.28906 21.7641 8.78906C21.9255 8.28385 22.1521 7.85417 22.4438 7.5C22.7354 7.14062 23.0818 6.86719 23.4828 6.67969C23.8891 6.48698 24.3422 6.39062 24.8422 6.39062C25.238 6.39062 25.6 6.44792 25.9281 6.5625C26.2563 6.67708 26.5375 6.85938 26.7719 7.10938C27.0115 7.35938 27.1938 7.6901 27.3188 8.10156C27.449 8.51302 27.5141 9.01562 27.5141 9.60938V15H25.2484V9.60156C25.2484 9.22656 25.1964 8.9349 25.0922 8.72656C24.988 8.51823 24.8344 8.3724 24.6313 8.28906C24.4333 8.20052 24.1885 8.15625 23.8969 8.15625C23.5948 8.15625 23.3318 8.21615 23.1078 8.33594C22.8891 8.45573 22.7068 8.6224 22.5609 8.83594C22.4203 9.04427 22.3135 9.28906 22.2406 9.57031C22.1677 9.85156 22.1313 10.1536 22.1313 10.4766ZM31.775 2.99219V15H29.525V2.99219H31.775ZM37.1031 6.54688L33.4312 10.7344L31.4625 12.7266L30.6422 11.1016L32.2047 9.11719L34.4 6.54688H37.1031ZM34.7672 15L32.2672 11.0938L33.8219 9.73438L37.3609 15H34.7672Z" fill="#008656"/>
</svg>
