<svg width="320" height="350" viewBox="0 0 320 350" fill="none" xmlns="http://www.w3.org/2000/svg">
<g clip-path="url(#clip0_77_304)">
<path d="M160 0C135.185 0 115 20.1855 115 45C115 69.8145 135.185 90 160 90C184.815 90 205 69.811 205 45C205 20.189 184.815 0 160 0ZM160 83.0287C139.034 83.0287 121.971 65.9698 121.971 45C121.971 24.0302 139.034 6.97131 160 6.97131C180.97 6.97131 198.029 24.0302 198.029 45C198.029 65.9698 180.966 83.0287 160 83.0287Z" fill="#007438"/>
<path d="M180.646 29.3493C179.227 28.0596 177.021 28.1606 175.724 29.5862L154.461 52.9996L144.189 42.5566C142.833 41.1832 140.63 41.1623 139.26 42.5147C137.887 43.8637 137.866 46.0701 139.218 47.4435L152.077 60.5147C152.736 61.1839 153.628 61.557 154.562 61.557C154.583 61.557 154.608 61.557 154.628 61.5605C155.591 61.5395 156.497 61.1282 157.142 60.4172L180.882 34.2746C182.176 32.8454 182.071 30.6425 180.646 29.3493Z" fill="#007438"/>
</g>
<path d="M108.455 156.27H105.004V146.088H108.524C109.535 146.088 110.403 146.292 111.129 146.7C111.858 147.104 112.419 147.686 112.81 148.445C113.201 149.204 113.396 150.112 113.396 151.169C113.396 152.23 113.199 153.141 112.805 153.904C112.414 154.666 111.848 155.251 111.109 155.659C110.374 156.066 109.489 156.27 108.455 156.27ZM106.849 154.674H108.365C109.074 154.674 109.666 154.545 110.14 154.286C110.614 154.025 110.97 153.635 111.209 153.118C111.447 152.598 111.567 151.948 111.567 151.169C111.567 150.39 111.447 149.744 111.209 149.23C110.97 148.713 110.617 148.327 110.15 148.072C109.686 147.813 109.109 147.684 108.42 147.684H106.849V154.674ZM115.149 156.27V146.088H121.771V147.634H116.993V150.399H121.428V151.945H116.993V154.724H121.811V156.27H115.149ZM129.186 148.887C129.14 148.453 128.944 148.115 128.599 147.873C128.258 147.631 127.814 147.51 127.267 147.51C126.883 147.51 126.553 147.568 126.278 147.684C126.003 147.8 125.792 147.958 125.646 148.156C125.5 148.355 125.426 148.582 125.423 148.837C125.423 149.05 125.471 149.234 125.567 149.389C125.666 149.545 125.8 149.678 125.969 149.787C126.138 149.893 126.326 149.983 126.531 150.056C126.737 150.128 126.944 150.19 127.153 150.239L128.107 150.478C128.492 150.568 128.861 150.689 129.216 150.841C129.574 150.994 129.894 151.186 130.175 151.418C130.46 151.65 130.686 151.93 130.852 152.258C131.017 152.586 131.1 152.971 131.1 153.411C131.1 154.008 130.948 154.533 130.643 154.987C130.338 155.438 129.897 155.791 129.32 156.046C128.747 156.298 128.053 156.424 127.237 156.424C126.445 156.424 125.757 156.302 125.174 156.056C124.594 155.811 124.14 155.453 123.812 154.982C123.487 154.512 123.311 153.938 123.285 153.262H125.099C125.126 153.617 125.235 153.912 125.428 154.147C125.62 154.382 125.87 154.558 126.178 154.674C126.49 154.79 126.838 154.848 127.222 154.848C127.623 154.848 127.975 154.788 128.276 154.669C128.581 154.547 128.82 154.378 128.992 154.162C129.165 153.943 129.252 153.688 129.256 153.396C129.252 153.131 129.174 152.913 129.022 152.74C128.87 152.565 128.656 152.419 128.381 152.303C128.109 152.183 127.791 152.077 127.426 151.985L126.268 151.686C125.429 151.471 124.766 151.144 124.279 150.707C123.795 150.266 123.553 149.681 123.553 148.952C123.553 148.352 123.716 147.827 124.04 147.376C124.369 146.925 124.814 146.575 125.378 146.327C125.941 146.075 126.579 145.949 127.292 145.949C128.014 145.949 128.647 146.075 129.191 146.327C129.738 146.575 130.167 146.922 130.479 147.366C130.79 147.807 130.951 148.314 130.961 148.887H129.186ZM141.46 149.524H139.6C139.547 149.219 139.45 148.949 139.307 148.713C139.164 148.475 138.987 148.272 138.775 148.107C138.563 147.941 138.321 147.817 138.049 147.734C137.781 147.648 137.491 147.605 137.179 147.605C136.626 147.605 136.135 147.744 135.708 148.022C135.28 148.297 134.945 148.702 134.703 149.235C134.461 149.766 134.34 150.413 134.34 151.179C134.34 151.958 134.461 152.614 134.703 153.148C134.949 153.678 135.283 154.079 135.708 154.351C136.135 154.619 136.624 154.754 137.174 154.754C137.479 154.754 137.764 154.714 138.029 154.634C138.298 154.552 138.538 154.431 138.75 154.271C138.966 154.112 139.146 153.917 139.292 153.685C139.441 153.453 139.544 153.188 139.6 152.889L141.46 152.899C141.39 153.383 141.239 153.837 141.007 154.261C140.779 154.686 140.479 155.06 140.107 155.385C139.736 155.707 139.302 155.958 138.805 156.141C138.308 156.32 137.756 156.409 137.149 156.409C136.254 156.409 135.456 156.202 134.753 155.788C134.05 155.373 133.497 154.775 133.093 153.993C132.688 153.211 132.486 152.273 132.486 151.179C132.486 150.082 132.69 149.144 133.097 148.365C133.505 147.583 134.06 146.985 134.763 146.57C135.466 146.156 136.261 145.949 137.149 145.949C137.716 145.949 138.243 146.029 138.73 146.188C139.218 146.347 139.652 146.58 140.033 146.889C140.414 147.194 140.727 147.568 140.972 148.012C141.221 148.453 141.383 148.957 141.46 149.524ZM152.247 151.179C152.247 152.276 152.041 153.216 151.63 153.998C151.223 154.777 150.666 155.373 149.96 155.788C149.257 156.202 148.46 156.409 147.569 156.409C146.677 156.409 145.878 156.202 145.172 155.788C144.47 155.37 143.913 154.772 143.502 153.993C143.094 153.211 142.89 152.273 142.89 151.179C142.89 150.082 143.094 149.144 143.502 148.365C143.913 147.583 144.47 146.985 145.172 146.57C145.878 146.156 146.677 145.949 147.569 145.949C148.46 145.949 149.257 146.156 149.96 146.57C150.666 146.985 151.223 147.583 151.63 148.365C152.041 149.144 152.247 150.082 152.247 151.179ZM150.392 151.179C150.392 150.407 150.271 149.756 150.029 149.225C149.791 148.692 149.459 148.289 149.035 148.017C148.611 147.742 148.122 147.605 147.569 147.605C147.015 147.605 146.526 147.742 146.102 148.017C145.678 148.289 145.345 148.692 145.103 149.225C144.864 149.756 144.745 150.407 144.745 151.179C144.745 151.951 144.864 152.604 145.103 153.138C145.345 153.668 145.678 154.071 146.102 154.346C146.526 154.618 147.015 154.754 147.569 154.754C148.122 154.754 148.611 154.618 149.035 154.346C149.459 154.071 149.791 153.668 150.029 153.138C150.271 152.604 150.392 151.951 150.392 151.179ZM157.463 156.27V146.088H161.281C162.064 146.088 162.72 146.234 163.25 146.526C163.784 146.817 164.186 147.218 164.458 147.729C164.733 148.236 164.871 148.813 164.871 149.459C164.871 150.112 164.733 150.692 164.458 151.199C164.183 151.706 163.777 152.105 163.24 152.397C162.703 152.686 162.042 152.83 161.257 152.83H158.726V151.313H161.008C161.465 151.313 161.84 151.234 162.132 151.075C162.423 150.916 162.639 150.697 162.778 150.418C162.92 150.14 162.992 149.82 162.992 149.459C162.992 149.098 162.92 148.779 162.778 148.504C162.639 148.229 162.422 148.016 162.127 147.863C161.835 147.707 161.459 147.629 160.998 147.629H159.308V156.27H157.463ZM169.615 156.419C168.869 156.419 168.223 156.255 167.676 155.927C167.129 155.599 166.705 155.14 166.403 154.55C166.105 153.96 165.956 153.27 165.956 152.482C165.956 151.693 166.105 151.002 166.403 150.409C166.705 149.815 167.129 149.355 167.676 149.026C168.223 148.698 168.869 148.534 169.615 148.534C170.361 148.534 171.007 148.698 171.554 149.026C172.101 149.355 172.523 149.815 172.822 150.409C173.123 151.002 173.274 151.693 173.274 152.482C173.274 153.27 173.123 153.96 172.822 154.55C172.523 155.14 172.101 155.599 171.554 155.927C171.007 156.255 170.361 156.419 169.615 156.419ZM169.625 154.977C170.029 154.977 170.367 154.866 170.639 154.644C170.911 154.419 171.113 154.117 171.246 153.739C171.382 153.362 171.45 152.941 171.45 152.477C171.45 152.009 171.382 151.587 171.246 151.209C171.113 150.828 170.911 150.525 170.639 150.299C170.367 150.074 170.029 149.961 169.625 149.961C169.211 149.961 168.866 150.074 168.591 150.299C168.319 150.525 168.115 150.828 167.979 151.209C167.847 151.587 167.781 152.009 167.781 152.477C167.781 152.941 167.847 153.362 167.979 153.739C168.115 154.117 168.319 154.419 168.591 154.644C168.866 154.866 169.211 154.977 169.625 154.977ZM180.837 150.652L179.197 150.831C179.15 150.665 179.069 150.51 178.953 150.364C178.84 150.218 178.688 150.1 178.496 150.011C178.303 149.921 178.068 149.877 177.79 149.877C177.415 149.877 177.1 149.958 176.845 150.12C176.593 150.283 176.469 150.493 176.472 150.752C176.469 150.974 176.55 151.154 176.716 151.293C176.885 151.433 177.163 151.547 177.551 151.636L178.854 151.915C179.576 152.071 180.113 152.318 180.464 152.656C180.819 152.994 180.998 153.436 181.001 153.983C180.998 154.464 180.857 154.888 180.579 155.256C180.304 155.62 179.921 155.905 179.43 156.111C178.94 156.316 178.376 156.419 177.74 156.419C176.805 156.419 176.053 156.224 175.483 155.833C174.913 155.438 174.573 154.89 174.464 154.187L176.219 154.018C176.298 154.363 176.467 154.623 176.726 154.798C176.984 154.974 177.321 155.062 177.735 155.062C178.162 155.062 178.506 154.974 178.764 154.798C179.026 154.623 179.157 154.406 179.157 154.147C179.157 153.928 179.072 153.748 178.903 153.605C178.738 153.463 178.479 153.353 178.128 153.277L176.825 153.004C176.093 152.851 175.551 152.594 175.199 152.233C174.848 151.869 174.674 151.408 174.677 150.851C174.674 150.38 174.802 149.973 175.06 149.628C175.322 149.28 175.685 149.011 176.149 148.823C176.616 148.63 177.155 148.534 177.765 148.534C178.66 148.534 179.364 148.725 179.878 149.106C180.395 149.487 180.715 150.003 180.837 150.652ZM186.298 148.634V150.026H181.909V148.634H186.298ZM182.992 146.804H184.792V153.973C184.792 154.215 184.829 154.401 184.901 154.53C184.978 154.656 185.077 154.742 185.2 154.788C185.322 154.835 185.458 154.858 185.607 154.858C185.72 154.858 185.823 154.85 185.916 154.833C186.012 154.817 186.085 154.802 186.134 154.788L186.438 156.195C186.342 156.229 186.204 156.265 186.025 156.305C185.849 156.345 185.634 156.368 185.379 156.374C184.928 156.388 184.522 156.32 184.161 156.171C183.799 156.018 183.513 155.783 183.301 155.465C183.092 155.146 182.989 154.749 182.992 154.271V146.804ZM187.804 159.134V148.634H189.574V149.896H189.678C189.771 149.711 189.902 149.514 190.071 149.305C190.24 149.093 190.468 148.912 190.757 148.763C191.045 148.61 191.413 148.534 191.86 148.534C192.45 148.534 192.982 148.685 193.456 148.987C193.934 149.285 194.311 149.727 194.59 150.314C194.872 150.897 195.012 151.613 195.012 152.462C195.012 153.3 194.875 154.013 194.6 154.6C194.325 155.186 193.95 155.634 193.476 155.942C193.002 156.25 192.465 156.404 191.865 156.404C191.428 156.404 191.065 156.331 190.777 156.186C190.488 156.04 190.256 155.864 190.081 155.659C189.908 155.45 189.774 155.253 189.678 155.067H189.603V159.134H187.804ZM189.569 152.452C189.569 152.946 189.638 153.378 189.777 153.749C189.92 154.121 190.124 154.411 190.389 154.619C190.657 154.825 190.982 154.928 191.363 154.928C191.761 154.928 192.094 154.822 192.363 154.61C192.631 154.394 192.833 154.101 192.969 153.73C193.108 153.355 193.178 152.929 193.178 152.452C193.178 151.978 193.11 151.557 192.974 151.189C192.838 150.821 192.636 150.533 192.368 150.324C192.099 150.115 191.764 150.011 191.363 150.011C190.979 150.011 190.652 150.112 190.384 150.314C190.115 150.516 189.912 150.8 189.772 151.164C189.636 151.529 189.569 151.958 189.569 152.452ZM198.751 156.424C198.267 156.424 197.831 156.338 197.444 156.166C197.059 155.99 196.754 155.731 196.529 155.39C196.307 155.049 196.196 154.628 196.196 154.127C196.196 153.696 196.275 153.34 196.434 153.058C196.593 152.777 196.81 152.551 197.086 152.382C197.361 152.213 197.671 152.086 198.015 151.999C198.363 151.91 198.723 151.845 199.094 151.806C199.542 151.759 199.904 151.718 200.183 151.681C200.461 151.641 200.663 151.582 200.789 151.502C200.919 151.419 200.983 151.292 200.983 151.119V151.09C200.983 150.715 200.872 150.425 200.65 150.22C200.428 150.014 200.108 149.911 199.691 149.911C199.25 149.911 198.9 150.007 198.642 150.2C198.386 150.392 198.214 150.619 198.125 150.881L196.444 150.642C196.577 150.178 196.796 149.79 197.1 149.479C197.405 149.164 197.778 148.929 198.219 148.773C198.66 148.614 199.147 148.534 199.681 148.534C200.049 148.534 200.415 148.577 200.779 148.663C201.144 148.75 201.477 148.892 201.779 149.091C202.08 149.287 202.322 149.553 202.505 149.891C202.69 150.23 202.783 150.652 202.783 151.159V156.27H201.053V155.221H200.993C200.884 155.433 200.73 155.632 200.531 155.818C200.335 156 200.088 156.147 199.79 156.26C199.495 156.369 199.149 156.424 198.751 156.424ZM199.218 155.102C199.58 155.102 199.893 155.03 200.158 154.888C200.423 154.742 200.627 154.55 200.77 154.311C200.915 154.073 200.988 153.812 200.988 153.531V152.631C200.932 152.677 200.836 152.72 200.7 152.76C200.567 152.8 200.418 152.835 200.252 152.864C200.087 152.894 199.923 152.921 199.76 152.944C199.598 152.967 199.457 152.987 199.338 153.004C199.069 153.04 198.829 153.1 198.617 153.183C198.405 153.266 198.237 153.382 198.115 153.531C197.992 153.677 197.931 153.865 197.931 154.097C197.931 154.429 198.052 154.679 198.294 154.848C198.536 155.017 198.844 155.102 199.218 155.102ZM204.593 156.27V148.634H206.392V156.27H204.593ZM205.498 147.55C205.212 147.55 204.967 147.455 204.762 147.266C204.556 147.074 204.453 146.844 204.453 146.575C204.453 146.304 204.556 146.073 204.762 145.884C204.967 145.692 205.212 145.596 205.498 145.596C205.786 145.596 206.031 145.692 206.233 145.884C206.439 146.073 206.542 146.304 206.542 146.575C206.542 146.844 206.439 147.074 206.233 147.266C206.031 147.455 205.786 147.55 205.498 147.55ZM211.077 156.404C210.477 156.404 209.94 156.25 209.466 155.942C208.992 155.634 208.618 155.186 208.343 154.6C208.067 154.013 207.93 153.3 207.93 152.462C207.93 151.613 208.069 150.897 208.347 150.314C208.629 149.727 209.009 149.285 209.486 148.987C209.963 148.685 210.495 148.534 211.082 148.534C211.529 148.534 211.897 148.61 212.186 148.763C212.474 148.912 212.703 149.093 212.872 149.305C213.041 149.514 213.172 149.711 213.264 149.896H213.339V146.088H215.144V156.27H213.374V155.067H213.264C213.172 155.253 213.037 155.45 212.862 155.659C212.686 155.864 212.454 156.04 212.166 156.186C211.877 156.331 211.514 156.404 211.077 156.404ZM211.579 154.928C211.96 154.928 212.285 154.825 212.553 154.619C212.822 154.411 213.026 154.121 213.165 153.749C213.304 153.378 213.374 152.946 213.374 152.452C213.374 151.958 213.304 151.529 213.165 151.164C213.029 150.8 212.827 150.516 212.558 150.314C212.293 150.112 211.967 150.011 211.579 150.011C211.178 150.011 210.843 150.115 210.575 150.324C210.306 150.533 210.104 150.821 209.968 151.189C209.832 151.557 209.764 151.978 209.764 152.452C209.764 152.929 209.832 153.355 209.968 153.73C210.107 154.101 210.311 154.394 210.58 154.61C210.852 154.822 211.185 154.928 211.579 154.928Z" fill="#6E6E6E"/>
<path d="M0.616477 195.141V193.818H8.49645V195.141H5.3196V204H3.78835V195.141H0.616477ZM9.32546 204V196.364H10.7623V197.577H10.8418C10.981 197.166 11.2263 196.843 11.5776 196.607C11.9322 196.369 12.3333 196.249 12.7807 196.249C12.8735 196.249 12.9829 196.253 13.1088 196.259C13.2381 196.266 13.3392 196.274 13.4121 196.284V197.706C13.3525 197.689 13.2464 197.671 13.0939 197.651C12.9415 197.628 12.789 197.616 12.6365 197.616C12.2852 197.616 11.972 197.691 11.6969 197.84C11.4251 197.986 11.2097 198.19 11.0506 198.452C10.8915 198.71 10.812 199.005 10.812 199.337V204H9.32546ZM16.8525 204.169C16.3685 204.169 15.931 204.08 15.54 203.901C15.1489 203.718 14.839 203.455 14.6103 203.11C14.3849 202.765 14.2722 202.343 14.2722 201.842C14.2722 201.411 14.3551 201.057 14.5208 200.778C14.6865 200.5 14.9102 200.28 15.1919 200.117C15.4737 199.955 15.7885 199.832 16.1365 199.749C16.4846 199.666 16.8392 199.603 17.2005 199.56C17.6578 199.507 18.0291 199.464 18.3141 199.431C18.5991 199.395 18.8063 199.337 18.9355 199.257C19.0648 199.178 19.1294 199.048 19.1294 198.869V198.835C19.1294 198.4 19.0068 198.064 18.7615 197.825C18.5196 197.587 18.1583 197.467 17.6777 197.467C17.1773 197.467 16.7828 197.578 16.4945 197.8C16.2095 198.019 16.0123 198.263 15.9029 198.531L14.5059 198.213C14.6716 197.749 14.9135 197.375 15.2317 197.089C15.5532 196.801 15.9228 196.592 16.3404 196.463C16.758 196.33 17.1971 196.264 17.6578 196.264C17.9628 196.264 18.2859 196.301 18.6273 196.374C18.972 196.443 19.2935 196.572 19.5918 196.761C19.8934 196.95 20.1403 197.22 20.3326 197.572C20.5248 197.92 20.6209 198.372 20.6209 198.929V204H19.1692V202.956H19.1096C19.0134 203.148 18.8693 203.337 18.677 203.523C18.4848 203.708 18.2379 203.862 17.9363 203.985C17.6346 204.108 17.2734 204.169 16.8525 204.169ZM17.1756 202.976C17.5866 202.976 17.9379 202.895 18.2296 202.732C18.5246 202.57 18.7483 202.358 18.9007 202.096C19.0565 201.831 19.1344 201.547 19.1344 201.246V200.261C19.0814 200.314 18.9786 200.364 18.8262 200.411C18.677 200.454 18.5063 200.492 18.3141 200.525C18.1219 200.555 17.9346 200.583 17.7523 200.609C17.57 200.633 17.4176 200.652 17.2949 200.669C17.0066 200.705 16.7431 200.767 16.5044 200.853C16.2691 200.939 16.0802 201.063 15.9377 201.226C15.7985 201.385 15.7289 201.597 15.7289 201.862C15.7289 202.23 15.8648 202.509 16.1365 202.697C16.4083 202.883 16.7547 202.976 17.1756 202.976ZM24.0874 199.466V204H22.6009V196.364H24.0277V197.607H24.1222C24.2978 197.202 24.5729 196.877 24.9474 196.632C25.3253 196.387 25.8009 196.264 26.3743 196.264C26.8946 196.264 27.3504 196.374 27.7415 196.592C28.1326 196.808 28.4358 197.129 28.6513 197.557C28.8667 197.984 28.9744 198.513 28.9744 199.143V204H27.4879V199.322C27.4879 198.768 27.3438 198.336 27.0554 198.024C26.767 197.709 26.371 197.552 25.8672 197.552C25.5225 197.552 25.2159 197.626 24.9474 197.776C24.6823 197.925 24.4718 198.143 24.3161 198.432C24.1636 198.717 24.0874 199.062 24.0874 199.466ZM36.6903 198.228L35.343 198.467C35.2867 198.294 35.1972 198.13 35.0746 197.974C34.9553 197.819 34.7929 197.691 34.5874 197.592C34.3819 197.492 34.125 197.442 33.8168 197.442C33.3958 197.442 33.0445 197.537 32.7628 197.726C32.4811 197.911 32.3402 198.152 32.3402 198.447C32.3402 198.702 32.4347 198.907 32.6236 199.063C32.8125 199.219 33.1174 199.347 33.5384 199.446L34.7514 199.724C35.4541 199.887 35.9777 200.137 36.3224 200.475C36.6671 200.813 36.8395 201.252 36.8395 201.793C36.8395 202.25 36.7069 202.658 36.4418 203.016C36.1799 203.37 35.8137 203.649 35.343 203.851C34.8757 204.053 34.3338 204.154 33.7173 204.154C32.8622 204.154 32.1645 203.972 31.6243 203.607C31.084 203.239 30.7526 202.717 30.63 202.041L32.0668 201.822C32.1563 202.197 32.3402 202.48 32.6186 202.673C32.897 202.862 33.2599 202.956 33.7074 202.956C34.1946 202.956 34.584 202.855 34.8757 202.653C35.1674 202.447 35.3132 202.197 35.3132 201.902C35.3132 201.663 35.2237 201.463 35.0447 201.3C34.8691 201.138 34.599 201.015 34.2344 200.933L32.9418 200.649C32.2292 200.487 31.7022 200.228 31.3608 199.874C31.0227 199.519 30.8537 199.07 30.8537 198.526C30.8537 198.076 30.9796 197.681 31.2315 197.343C31.4834 197.005 31.8314 196.741 32.2756 196.553C32.7197 196.36 33.2285 196.264 33.8018 196.264C34.6271 196.264 35.2768 196.443 35.7507 196.801C36.2247 197.156 36.5379 197.631 36.6903 198.228ZM40.6962 204.169C40.2123 204.169 39.7748 204.08 39.3837 203.901C38.9926 203.718 38.6827 203.455 38.454 203.11C38.2286 202.765 38.1159 202.343 38.1159 201.842C38.1159 201.411 38.1988 201.057 38.3645 200.778C38.5302 200.5 38.754 200.28 39.0357 200.117C39.3174 199.955 39.6323 199.832 39.9803 199.749C40.3283 199.666 40.6829 199.603 41.0442 199.56C41.5016 199.507 41.8728 199.464 42.1578 199.431C42.4429 199.395 42.65 199.337 42.7793 199.257C42.9086 199.178 42.9732 199.048 42.9732 198.869V198.835C42.9732 198.4 42.8506 198.064 42.6053 197.825C42.3633 197.587 42.0021 197.467 41.5215 197.467C41.021 197.467 40.6266 197.578 40.3382 197.8C40.0532 198.019 39.856 198.263 39.7466 198.531L38.3496 198.213C38.5153 197.749 38.7573 197.375 39.0755 197.089C39.397 196.801 39.7665 196.592 40.1841 196.463C40.6017 196.33 41.0409 196.264 41.5016 196.264C41.8065 196.264 42.1297 196.301 42.4711 196.374C42.8158 196.443 43.1373 196.572 43.4355 196.761C43.7372 196.95 43.9841 197.22 44.1763 197.572C44.3685 197.92 44.4647 198.372 44.4647 198.929V204H43.013V202.956H42.9533C42.8572 203.148 42.713 203.337 42.5208 203.523C42.3285 203.708 42.0816 203.862 41.78 203.985C41.4784 204.108 41.1171 204.169 40.6962 204.169ZM41.0194 202.976C41.4303 202.976 41.7817 202.895 42.0733 202.732C42.3683 202.57 42.592 202.358 42.7445 202.096C42.9003 201.831 42.9782 201.547 42.9782 201.246V200.261C42.9251 200.314 42.8224 200.364 42.6699 200.411C42.5208 200.454 42.3501 200.492 42.1578 200.525C41.9656 200.555 41.7784 200.583 41.5961 200.609C41.4138 200.633 41.2613 200.652 41.1387 200.669C40.8503 200.705 40.5868 200.767 40.3482 200.853C40.1129 200.939 39.9239 201.063 39.7814 201.226C39.6422 201.385 39.5726 201.597 39.5726 201.862C39.5726 202.23 39.7085 202.509 39.9803 202.697C40.2521 202.883 40.5984 202.976 41.0194 202.976ZM49.6612 204.154C48.9221 204.154 48.2857 203.987 47.7521 203.652C47.2218 203.314 46.8142 202.848 46.5291 202.255C46.2441 201.662 46.1016 200.982 46.1016 200.217C46.1016 199.441 46.2474 198.757 46.5391 198.163C46.8307 197.567 47.2417 197.101 47.772 196.766C48.3023 196.432 48.9271 196.264 49.6463 196.264C50.2263 196.264 50.7434 196.372 51.1974 196.587C51.6515 196.799 52.0178 197.098 52.2962 197.482C52.5779 197.867 52.7453 198.316 52.7983 198.83H51.3516C51.272 198.472 51.0897 198.163 50.8047 197.905C50.523 197.646 50.1451 197.517 49.6712 197.517C49.2569 197.517 48.8939 197.626 48.5824 197.845C48.2741 198.061 48.0339 198.369 47.8615 198.77C47.6892 199.168 47.603 199.638 47.603 200.182C47.603 200.739 47.6875 201.219 47.8565 201.624C48.0256 202.028 48.2642 202.341 48.5724 202.563C48.884 202.785 49.2502 202.896 49.6712 202.896C49.9529 202.896 50.2081 202.845 50.4368 202.742C50.6688 202.636 50.8627 202.485 51.0185 202.29C51.1776 202.094 51.2886 201.859 51.3516 201.584H52.7983C52.7453 202.078 52.5845 202.518 52.3161 202.906C52.0476 203.294 51.688 203.599 51.2372 203.821C50.7898 204.043 50.2644 204.154 49.6612 204.154ZM57.9526 196.364V197.557H53.7814V196.364H57.9526ZM54.9 194.534H56.3865V201.758C56.3865 202.046 56.4296 202.263 56.5158 202.409C56.602 202.552 56.713 202.649 56.8489 202.702C56.9881 202.752 57.1389 202.777 57.3013 202.777C57.4206 202.777 57.525 202.769 57.6145 202.752C57.704 202.736 57.7736 202.722 57.8233 202.712L58.0918 203.94C58.0056 203.973 57.883 204.007 57.7239 204.04C57.5648 204.076 57.3659 204.096 57.1273 204.099C56.7362 204.106 56.3716 204.036 56.0336 203.891C55.6955 203.745 55.4221 203.519 55.2132 203.214C55.0044 202.91 54.9 202.527 54.9 202.066V194.534ZM59.5969 204V196.364H61.0835V204H59.5969ZM60.3477 195.185C60.0891 195.185 59.8671 195.099 59.6815 194.927C59.4992 194.751 59.408 194.542 59.408 194.3C59.408 194.055 59.4992 193.846 59.6815 193.674C59.8671 193.498 60.0891 193.411 60.3477 193.411C60.6062 193.411 60.8266 193.498 61.0089 193.674C61.1945 193.846 61.2873 194.055 61.2873 194.3C61.2873 194.542 61.1945 194.751 61.0089 194.927C60.8266 195.099 60.6062 195.185 60.3477 195.185ZM66.2999 204.154C65.584 204.154 64.9592 203.99 64.4256 203.662C63.892 203.334 63.4777 202.875 63.1827 202.285C62.8877 201.695 62.7402 201.005 62.7402 200.217C62.7402 199.424 62.8877 198.732 63.1827 198.138C63.4777 197.545 63.892 197.085 64.4256 196.756C64.9592 196.428 65.584 196.264 66.2999 196.264C67.0158 196.264 67.6406 196.428 68.1742 196.756C68.7078 197.085 69.1221 197.545 69.4171 198.138C69.7121 198.732 69.8596 199.424 69.8596 200.217C69.8596 201.005 69.7121 201.695 69.4171 202.285C69.1221 202.875 68.7078 203.334 68.1742 203.662C67.6406 203.99 67.0158 204.154 66.2999 204.154ZM66.3049 202.906C66.7689 202.906 67.1534 202.784 67.4583 202.538C67.7632 202.293 67.9886 201.967 68.1344 201.559C68.2836 201.151 68.3581 200.702 68.3581 200.212C68.3581 199.724 68.2836 199.277 68.1344 198.869C67.9886 198.458 67.7632 198.129 67.4583 197.88C67.1534 197.631 66.7689 197.507 66.3049 197.507C65.8375 197.507 65.4498 197.631 65.1415 197.88C64.8366 198.129 64.6096 198.458 64.4604 198.869C64.3146 199.277 64.2417 199.724 64.2417 200.212C64.2417 200.702 64.3146 201.151 64.4604 201.559C64.6096 201.967 64.8366 202.293 65.1415 202.538C65.4498 202.784 65.8375 202.906 66.3049 202.906ZM73.0053 199.466V204H71.5188V196.364H72.9457V197.607H73.0401C73.2158 197.202 73.4909 196.877 73.8654 196.632C74.2433 196.387 74.7189 196.264 75.2923 196.264C75.8126 196.264 76.2683 196.374 76.6594 196.592C77.0505 196.808 77.3538 197.129 77.5692 197.557C77.7847 197.984 77.8924 198.513 77.8924 199.143V204H76.4059V199.322C76.4059 198.768 76.2617 198.336 75.9734 198.024C75.685 197.709 75.2889 197.552 74.7852 197.552C74.4405 197.552 74.1339 197.626 73.8654 197.776C73.6003 197.925 73.3898 198.143 73.234 198.432C73.0816 198.717 73.0053 199.062 73.0053 199.466ZM85.2466 193.818V204H83.7104V193.818H85.2466ZM90.78 204H87.4838V193.818H90.8844C91.882 193.818 92.7388 194.022 93.4547 194.43C94.1706 194.834 94.7192 195.416 95.1003 196.175C95.4848 196.93 95.677 197.837 95.677 198.894C95.677 199.955 95.4831 200.866 95.0953 201.629C94.7109 202.391 94.1541 202.978 93.4249 203.388C92.6957 203.796 91.8141 204 90.78 204ZM89.0201 202.658H90.6955C91.4711 202.658 92.1157 202.512 92.6294 202.22C93.1432 201.925 93.5276 201.499 93.7828 200.942C94.0381 200.382 94.1657 199.7 94.1657 198.894C94.1657 198.095 94.0381 197.418 93.7828 196.861C93.531 196.304 93.1548 195.881 92.6543 195.593C92.1538 195.305 91.5324 195.161 90.79 195.161H89.0201V202.658Z" fill="#007438"/>
<path d="M1.97869 236H0.348011L4.01207 225.818H5.78693L9.45099 236H7.82031L4.94176 227.668H4.86222L1.97869 236ZM2.25213 232.013H7.5419V233.305H2.25213V232.013ZM10.802 236V228.364H12.2289V229.607H12.3233C12.4824 229.186 12.7426 228.857 13.1039 228.622C13.4651 228.384 13.8977 228.264 14.4015 228.264C14.9119 228.264 15.3394 228.384 15.6841 228.622C16.0321 228.861 16.289 229.189 16.4547 229.607H16.5343C16.7166 229.199 17.0066 228.874 17.4043 228.632C17.802 228.387 18.276 228.264 18.8262 228.264C19.5189 228.264 20.084 228.481 20.5215 228.915C20.9623 229.35 21.1827 230.004 21.1827 230.879V236H19.6962V231.018C19.6962 230.501 19.5553 230.127 19.2736 229.895C18.9919 229.663 18.6555 229.547 18.2644 229.547C17.7805 229.547 17.4043 229.696 17.1358 229.994C16.8674 230.289 16.7331 230.669 16.7331 231.133V236H15.2516V230.924C15.2516 230.51 15.1223 230.177 14.8638 229.925C14.6053 229.673 14.2689 229.547 13.8546 229.547C13.5729 229.547 13.3127 229.621 13.074 229.771C12.8387 229.916 12.6481 230.12 12.5023 230.382C12.3598 230.644 12.2885 230.947 12.2885 231.292V236H10.802ZM26.3917 236.154C25.6758 236.154 25.051 235.99 24.5174 235.662C23.9838 235.334 23.5695 234.875 23.2745 234.285C22.9795 233.695 22.832 233.005 22.832 232.217C22.832 231.424 22.9795 230.732 23.2745 230.138C23.5695 229.545 23.9838 229.085 24.5174 228.756C25.051 228.428 25.6758 228.264 26.3917 228.264C27.1076 228.264 27.7324 228.428 28.266 228.756C28.7996 229.085 29.2139 229.545 29.5089 230.138C29.8039 230.732 29.9513 231.424 29.9513 232.217C29.9513 233.005 29.8039 233.695 29.5089 234.285C29.2139 234.875 28.7996 235.334 28.266 235.662C27.7324 235.99 27.1076 236.154 26.3917 236.154ZM26.3967 234.906C26.8607 234.906 27.2451 234.784 27.5501 234.538C27.855 234.293 28.0804 233.967 28.2262 233.559C28.3754 233.151 28.4499 232.702 28.4499 232.212C28.4499 231.724 28.3754 231.277 28.2262 230.869C28.0804 230.458 27.855 230.129 27.5501 229.88C27.2451 229.631 26.8607 229.507 26.3967 229.507C25.9293 229.507 25.5415 229.631 25.2333 229.88C24.9284 230.129 24.7013 230.458 24.5522 230.869C24.4064 231.277 24.3335 231.724 24.3335 232.212C24.3335 232.702 24.4064 233.151 24.5522 233.559C24.7013 233.967 24.9284 234.293 25.2333 234.538C25.5415 234.784 25.9293 234.906 26.3967 234.906ZM36.448 232.833V228.364H37.9395V236H36.4778V234.678H36.3983C36.2226 235.085 35.9409 235.425 35.5531 235.697C35.1686 235.965 34.6897 236.099 34.1163 236.099C33.6258 236.099 33.1916 235.992 32.8137 235.776C32.4392 235.558 32.1442 235.234 31.9288 234.807C31.7167 234.379 31.6106 233.851 31.6106 233.221V228.364H33.0971V233.042C33.0971 233.562 33.2413 233.977 33.5297 234.285C33.818 234.593 34.1925 234.747 34.6532 234.747C34.9316 234.747 35.2084 234.678 35.4835 234.538C35.7619 234.399 35.9922 234.189 36.1745 233.907C36.3601 233.625 36.4513 233.267 36.448 232.833ZM41.4233 231.466V236H39.9368V228.364H41.3636V229.607H41.4581C41.6338 229.202 41.9089 228.877 42.2834 228.632C42.6612 228.387 43.1368 228.264 43.7102 228.264C44.2306 228.264 44.6863 228.374 45.0774 228.592C45.4685 228.808 45.7718 229.129 45.9872 229.557C46.2027 229.984 46.3104 230.513 46.3104 231.143V236H44.8239V231.322C44.8239 230.768 44.6797 230.336 44.3913 230.024C44.103 229.709 43.7069 229.552 43.2031 229.552C42.8584 229.552 42.5518 229.626 42.2834 229.776C42.0182 229.925 41.8078 230.143 41.652 230.432C41.4995 230.717 41.4233 231.062 41.4233 231.466ZM51.8686 228.364V229.557H47.6974V228.364H51.8686ZM48.8161 226.534H50.3026V233.758C50.3026 234.046 50.3456 234.263 50.4318 234.409C50.518 234.552 50.629 234.649 50.7649 234.702C50.9041 234.752 51.0549 234.777 51.2173 234.777C51.3366 234.777 51.4411 234.769 51.5305 234.752C51.62 234.736 51.6896 234.722 51.7393 234.712L52.0078 235.94C51.9216 235.973 51.799 236.007 51.6399 236.04C51.4808 236.076 51.282 236.096 51.0433 236.099C50.6522 236.106 50.2876 236.036 49.9496 235.891C49.6115 235.745 49.3381 235.519 49.1293 235.214C48.9205 234.91 48.8161 234.527 48.8161 234.066V226.534Z" fill="#007438"/>
<path d="M9.57528 261.129H8.02415C7.96449 260.798 7.85346 260.506 7.69105 260.254C7.52865 260.002 7.32978 259.789 7.09446 259.613C6.85914 259.437 6.59564 259.305 6.30398 259.215C6.01563 259.126 5.70904 259.081 5.38423 259.081C4.79759 259.081 4.27225 259.228 3.80824 259.523C3.34754 259.818 2.98295 260.251 2.71449 260.821C2.44934 261.391 2.31676 262.087 2.31676 262.909C2.31676 263.738 2.44934 264.437 2.71449 265.007C2.98295 265.577 3.3492 266.008 3.81321 266.3C4.27723 266.591 4.79924 266.737 5.37926 266.737C5.70076 266.737 6.00568 266.694 6.29403 266.608C6.5857 266.518 6.8492 266.388 7.08452 266.215C7.31984 266.043 7.5187 265.832 7.68111 265.584C7.84683 265.332 7.96117 265.044 8.02415 264.719L9.57528 264.724C9.49242 265.224 9.33168 265.685 9.09304 266.106C8.85772 266.523 8.55445 266.885 8.18324 267.19C7.81534 267.491 7.39441 267.725 6.92045 267.891C6.4465 268.056 5.92945 268.139 5.36932 268.139C4.48769 268.139 3.70218 267.93 3.01278 267.513C2.32339 267.092 1.77983 266.49 1.3821 265.708C0.987689 264.926 0.790483 263.993 0.790483 262.909C0.790483 261.822 0.989347 260.889 1.38707 260.11C1.7848 259.328 2.32836 258.728 3.01776 258.31C3.70715 257.889 4.491 257.679 5.36932 257.679C5.90956 257.679 6.41335 257.757 6.88068 257.913C7.35133 258.065 7.77391 258.29 8.14844 258.589C8.52296 258.884 8.83286 259.245 9.07812 259.673C9.32339 260.097 9.48911 260.582 9.57528 261.129ZM12.7807 263.466V268H11.2942V257.818H12.7608V261.607H12.8553C13.0343 261.196 13.3077 260.869 13.6756 260.627C14.0435 260.385 14.5241 260.264 15.1174 260.264C15.641 260.264 16.0984 260.372 16.4895 260.587C16.8839 260.803 17.1889 261.124 17.4043 261.552C17.623 261.976 17.7324 262.506 17.7324 263.143V268H16.2459V263.322C16.2459 262.762 16.1017 262.327 15.8134 262.019C15.525 261.708 15.124 261.552 14.6103 261.552C14.2589 261.552 13.9441 261.626 13.6657 261.776C13.3906 261.925 13.1735 262.143 13.0144 262.432C12.8586 262.717 12.7807 263.062 12.7807 263.466ZM21.9384 268.169C21.4545 268.169 21.017 268.08 20.6259 267.901C20.2348 267.718 19.9249 267.455 19.6962 267.11C19.4708 266.765 19.3581 266.343 19.3581 265.842C19.3581 265.411 19.441 265.057 19.6067 264.778C19.7724 264.5 19.9962 264.28 20.2779 264.117C20.5596 263.955 20.8745 263.832 21.2225 263.749C21.5705 263.666 21.9251 263.603 22.2864 263.56C22.7438 263.507 23.115 263.464 23.4 263.431C23.6851 263.395 23.8922 263.337 24.0215 263.257C24.1507 263.178 24.2154 263.048 24.2154 262.869V262.835C24.2154 262.4 24.0927 262.064 23.8475 261.825C23.6055 261.587 23.2443 261.467 22.7637 261.467C22.2632 261.467 21.8688 261.578 21.5804 261.8C21.2954 262.019 21.0982 262.263 20.9888 262.531L19.5918 262.213C19.7575 261.749 19.9995 261.375 20.3176 261.089C20.6391 260.801 21.0087 260.592 21.4263 260.463C21.8439 260.33 22.2831 260.264 22.7438 260.264C23.0487 260.264 23.3719 260.301 23.7132 260.374C24.0579 260.443 24.3794 260.572 24.6777 260.761C24.9793 260.95 25.2263 261.22 25.4185 261.572C25.6107 261.92 25.7069 262.372 25.7069 262.929V268H24.2551V266.956H24.1955C24.0994 267.148 23.9552 267.337 23.763 267.523C23.5707 267.708 23.3238 267.862 23.0222 267.985C22.7206 268.108 22.3593 268.169 21.9384 268.169ZM22.2615 266.976C22.6725 266.976 23.0239 266.895 23.3155 266.732C23.6105 266.57 23.8342 266.358 23.9867 266.096C24.1425 265.831 24.2203 265.547 24.2203 265.246V264.261C24.1673 264.314 24.0646 264.364 23.9121 264.411C23.763 264.454 23.5923 264.492 23.4 264.525C23.2078 264.555 23.0205 264.583 22.8382 264.609C22.656 264.633 22.5035 264.652 22.3809 264.669C22.0925 264.705 21.829 264.767 21.5904 264.853C21.3551 264.939 21.1661 265.063 21.0236 265.226C20.8844 265.385 20.8148 265.597 20.8148 265.862C20.8148 266.23 20.9507 266.509 21.2225 266.697C21.4943 266.883 21.8406 266.976 22.2615 266.976ZM27.6868 268V260.364H29.1236V261.577H29.2031C29.3423 261.166 29.5876 260.843 29.9389 260.607C30.2936 260.369 30.6946 260.249 31.142 260.249C31.2348 260.249 31.3442 260.253 31.4702 260.259C31.5994 260.266 31.7005 260.274 31.7734 260.284V261.706C31.7138 261.689 31.6077 261.671 31.4553 261.651C31.3028 261.628 31.1503 261.616 30.9979 261.616C30.6465 261.616 30.3333 261.691 30.0582 261.84C29.7865 261.986 29.571 262.19 29.4119 262.452C29.2528 262.71 29.1733 263.005 29.1733 263.337V268H27.6868ZM35.9881 271.023C35.3816 271.023 34.8596 270.943 34.4221 270.784C33.9879 270.625 33.6332 270.415 33.3581 270.153C33.083 269.891 32.8775 269.604 32.7417 269.293L34.0194 268.766C34.1088 268.911 34.2282 269.066 34.3773 269.228C34.5298 269.394 34.7353 269.535 34.9938 269.651C35.2556 269.767 35.592 269.825 36.003 269.825C36.5665 269.825 37.0321 269.687 37.4 269.412C37.7679 269.14 37.9519 268.706 37.9519 268.109V266.608H37.8574C37.7679 266.77 37.6387 266.951 37.4696 267.15C37.3039 267.349 37.0752 267.521 36.7836 267.667C36.4919 267.813 36.1124 267.886 35.6451 267.886C35.0418 267.886 34.4983 267.745 34.0144 267.463C33.5338 267.178 33.1526 266.759 32.8709 266.205C32.5925 265.648 32.4533 264.964 32.4533 264.152C32.4533 263.34 32.5908 262.644 32.8659 262.064C33.1444 261.484 33.5255 261.04 34.0094 260.732C34.4933 260.42 35.0418 260.264 35.655 260.264C36.129 260.264 36.5118 260.344 36.8034 260.503C37.0951 260.659 37.3221 260.841 37.4846 261.05C37.6503 261.259 37.7779 261.442 37.8674 261.602H37.9767V260.364H39.4334V268.169C39.4334 268.825 39.281 269.364 38.976 269.785C38.6711 270.206 38.2585 270.517 37.7381 270.719C37.2211 270.922 36.6377 271.023 35.9881 271.023ZM35.9732 266.653C36.4007 266.653 36.762 266.553 37.057 266.354C37.3553 266.152 37.5807 265.864 37.7331 265.489C37.8889 265.112 37.9668 264.659 37.9668 264.132C37.9668 263.618 37.8906 263.166 37.7381 262.775C37.5856 262.384 37.3619 262.079 37.0669 261.86C36.772 261.638 36.4074 261.527 35.9732 261.527C35.5257 261.527 35.1529 261.643 34.8546 261.875C34.5563 262.104 34.3309 262.415 34.1784 262.81C34.0293 263.204 33.9547 263.645 33.9547 264.132C33.9547 264.633 34.031 265.072 34.1834 265.45C34.3359 265.827 34.5613 266.122 34.8596 266.335C35.1612 266.547 35.5324 266.653 35.9732 266.653ZM44.7182 268.154C43.9658 268.154 43.3179 267.993 42.7743 267.672C42.2341 267.347 41.8165 266.891 41.5215 266.305C41.2298 265.715 41.084 265.024 41.084 264.232C41.084 263.449 41.2298 262.76 41.5215 262.163C41.8165 261.567 42.2275 261.101 42.7544 260.766C43.2847 260.432 43.9045 260.264 44.6138 260.264C45.0447 260.264 45.4623 260.335 45.8667 260.478C46.271 260.621 46.6339 260.844 46.9554 261.149C47.2769 261.454 47.5305 261.85 47.7161 262.337C47.9017 262.821 47.9945 263.41 47.9945 264.102V264.629H41.9242V263.516H46.5378C46.5378 263.125 46.4583 262.778 46.2992 262.477C46.1401 262.172 45.9164 261.931 45.628 261.756C45.343 261.58 45.0082 261.492 44.6238 261.492C44.2061 261.492 43.8416 261.595 43.53 261.8C43.2218 262.003 42.9831 262.268 42.8141 262.596C42.6484 262.921 42.5655 263.274 42.5655 263.655V264.525C42.5655 265.035 42.655 265.469 42.834 265.827C43.0163 266.185 43.2698 266.459 43.5946 266.648C43.9194 266.833 44.2989 266.926 44.7331 266.926C45.0149 266.926 45.2717 266.886 45.5037 266.807C45.7357 266.724 45.9363 266.601 46.1053 266.439C46.2743 266.277 46.4036 266.076 46.4931 265.837L47.9 266.091C47.7873 266.505 47.5852 266.868 47.2935 267.18C47.0051 267.488 46.6422 267.728 46.2047 267.901C45.7705 268.07 45.275 268.154 44.7182 268.154Z" fill="#007438"/>
<path d="M0.616477 291.141V289.818H8.49645V291.141H5.3196V300H3.78835V291.141H0.616477ZM12.2276 300.154C11.5117 300.154 10.887 299.99 10.3533 299.662C9.81972 299.334 9.40542 298.875 9.11044 298.285C8.81546 297.695 8.66797 297.005 8.66797 296.217C8.66797 295.424 8.81546 294.732 9.11044 294.138C9.40542 293.545 9.81972 293.085 10.3533 292.756C10.887 292.428 11.5117 292.264 12.2276 292.264C12.9435 292.264 13.5683 292.428 14.1019 292.756C14.6355 293.085 15.0498 293.545 15.3448 294.138C15.6398 294.732 15.7873 295.424 15.7873 296.217C15.7873 297.005 15.6398 297.695 15.3448 298.285C15.0498 298.875 14.6355 299.334 14.1019 299.662C13.5683 299.99 12.9435 300.154 12.2276 300.154ZM12.2326 298.906C12.6966 298.906 13.0811 298.784 13.386 298.538C13.6909 298.293 13.9163 297.967 14.0621 297.559C14.2113 297.151 14.2859 296.702 14.2859 296.212C14.2859 295.724 14.2113 295.277 14.0621 294.869C13.9163 294.458 13.6909 294.129 13.386 293.88C13.0811 293.631 12.6966 293.507 12.2326 293.507C11.7653 293.507 11.3775 293.631 11.0692 293.88C10.7643 294.129 10.5373 294.458 10.3881 294.869C10.2423 295.277 10.1694 295.724 10.1694 296.212C10.1694 296.702 10.2423 297.151 10.3881 297.559C10.5373 297.967 10.7643 298.293 11.0692 298.538C11.3775 298.784 11.7653 298.906 12.2326 298.906ZM21.0112 292.364V293.557H16.84V292.364H21.0112ZM17.9586 290.534H19.4451V297.758C19.4451 298.046 19.4882 298.263 19.5744 298.409C19.6606 298.552 19.7716 298.649 19.9075 298.702C20.0467 298.752 20.1975 298.777 20.3599 298.777C20.4792 298.777 20.5836 298.769 20.6731 298.752C20.7626 298.736 20.8322 298.722 20.8819 298.712L21.1504 299.94C21.0642 299.973 20.9416 300.007 20.7825 300.04C20.6234 300.076 20.4245 300.096 20.1859 300.099C19.7948 300.106 19.4302 300.036 19.0922 299.891C18.7541 299.745 18.4806 299.519 18.2718 299.214C18.063 298.91 17.9586 298.527 17.9586 298.066V290.534ZM24.8778 300.169C24.3939 300.169 23.9564 300.08 23.5653 299.901C23.1742 299.718 22.8643 299.455 22.6357 299.11C22.4103 298.765 22.2976 298.343 22.2976 297.842C22.2976 297.411 22.3804 297.057 22.5462 296.778C22.7119 296.5 22.9356 296.28 23.2173 296.117C23.4991 295.955 23.8139 295.832 24.1619 295.749C24.5099 295.666 24.8646 295.603 25.2259 295.56C25.6832 295.507 26.0545 295.464 26.3395 295.431C26.6245 295.395 26.8317 295.337 26.9609 295.257C27.0902 295.178 27.1548 295.048 27.1548 294.869V294.835C27.1548 294.4 27.0322 294.064 26.7869 293.825C26.545 293.587 26.1837 293.467 25.7031 293.467C25.2027 293.467 24.8082 293.578 24.5199 293.8C24.2348 294.019 24.0376 294.263 23.9283 294.531L22.5312 294.213C22.697 293.749 22.9389 293.375 23.2571 293.089C23.5786 292.801 23.9482 292.592 24.3658 292.463C24.7834 292.33 25.2225 292.264 25.6832 292.264C25.9882 292.264 26.3113 292.301 26.6527 292.374C26.9974 292.443 27.3189 292.572 27.6172 292.761C27.9188 292.95 28.1657 293.22 28.358 293.572C28.5502 293.92 28.6463 294.372 28.6463 294.929V300H27.1946V298.956H27.1349C27.0388 299.148 26.8946 299.337 26.7024 299.523C26.5102 299.708 26.2633 299.862 25.9616 299.985C25.66 300.108 25.2988 300.169 24.8778 300.169ZM25.201 298.976C25.612 298.976 25.9633 298.895 26.255 298.732C26.55 298.57 26.7737 298.358 26.9261 298.096C27.0819 297.831 27.1598 297.547 27.1598 297.246V296.261C27.1068 296.314 27.004 296.364 26.8516 296.411C26.7024 296.454 26.5317 296.492 26.3395 296.525C26.1473 296.555 25.96 296.583 25.7777 296.609C25.5954 296.633 25.4429 296.652 25.3203 296.669C25.032 296.705 24.7685 296.767 24.5298 296.853C24.2945 296.939 24.1056 297.063 23.9631 297.226C23.8239 297.385 23.7543 297.597 23.7543 297.862C23.7543 298.23 23.8902 298.509 24.1619 298.697C24.4337 298.883 24.7801 298.976 25.201 298.976ZM32.1127 289.818V300H30.6262V289.818H32.1127Z" fill="#007438"/>
<path d="M0.616477 323.141V321.818H8.49645V323.141H5.3196V332H3.78835V323.141H0.616477ZM10.1184 332V324.364H11.6049V332H10.1184ZM10.8691 323.185C10.6106 323.185 10.3886 323.099 10.2029 322.927C10.0207 322.751 9.92951 322.542 9.92951 322.3C9.92951 322.055 10.0207 321.846 10.2029 321.674C10.3886 321.498 10.6106 321.411 10.8691 321.411C11.1277 321.411 11.3481 321.498 11.5304 321.674C11.716 321.846 11.8088 322.055 11.8088 322.3C11.8088 322.542 11.716 322.751 11.5304 322.927C11.3481 323.099 11.1277 323.185 10.8691 323.185ZM13.6048 332V324.364H15.0316V325.607H15.1261C15.2852 325.186 15.5453 324.857 15.9066 324.622C16.2679 324.384 16.7004 324.264 17.2042 324.264C17.7146 324.264 18.1422 324.384 18.4869 324.622C18.8349 324.861 19.0917 325.189 19.2575 325.607H19.337C19.5193 325.199 19.8093 324.874 20.207 324.632C20.6048 324.387 21.0787 324.264 21.6289 324.264C22.3216 324.264 22.8867 324.481 23.3242 324.915C23.765 325.35 23.9854 326.004 23.9854 326.879V332H22.4989V327.018C22.4989 326.501 22.3581 326.127 22.0763 325.895C21.7946 325.663 21.4582 325.547 21.0671 325.547C20.5832 325.547 20.207 325.696 19.9386 325.994C19.6701 326.289 19.5359 326.669 19.5359 327.133V332H18.0543V326.924C18.0543 326.51 17.9251 326.177 17.6665 325.925C17.408 325.673 17.0716 325.547 16.6573 325.547C16.3756 325.547 16.1154 325.621 15.8768 325.771C15.6415 325.916 15.4509 326.12 15.305 326.382C15.1625 326.644 15.0913 326.947 15.0913 327.292V332H13.6048ZM29.269 332.154C28.5166 332.154 27.8687 331.993 27.3251 331.672C26.7849 331.347 26.3672 330.891 26.0723 330.305C25.7806 329.715 25.6348 329.024 25.6348 328.232C25.6348 327.449 25.7806 326.76 26.0723 326.163C26.3672 325.567 26.7782 325.101 27.3052 324.766C27.8355 324.432 28.4553 324.264 29.1646 324.264C29.5955 324.264 30.0131 324.335 30.4174 324.478C30.8218 324.621 31.1847 324.844 31.5062 325.149C31.8277 325.454 32.0813 325.85 32.2669 326.337C32.4525 326.821 32.5453 327.41 32.5453 328.102V328.629H26.475V327.516H31.0886C31.0886 327.125 31.0091 326.778 30.85 326.477C30.6909 326.172 30.4672 325.931 30.1788 325.756C29.8938 325.58 29.559 325.492 29.1745 325.492C28.7569 325.492 28.3923 325.595 28.0808 325.8C27.7725 326.003 27.5339 326.268 27.3649 326.596C27.1992 326.921 27.1163 327.274 27.1163 327.655V328.525C27.1163 329.035 27.2058 329.469 27.3848 329.827C27.5671 330.185 27.8206 330.459 28.1454 330.648C28.4702 330.833 28.8497 330.926 29.2839 330.926C29.5656 330.926 29.8225 330.886 30.0545 330.807C30.2865 330.724 30.487 330.601 30.6561 330.439C30.8251 330.277 30.9544 330.076 31.0439 329.837L32.4508 330.091C32.3381 330.505 32.1359 330.868 31.8443 331.18C31.5559 331.488 31.193 331.728 30.7555 331.901C30.3213 332.07 29.8258 332.154 29.269 332.154ZM39.9169 326.228L38.5696 326.467C38.5133 326.294 38.4238 326.13 38.3011 325.974C38.1818 325.819 38.0194 325.691 37.8139 325.592C37.6084 325.492 37.3516 325.442 37.0433 325.442C36.6224 325.442 36.2711 325.537 35.9893 325.726C35.7076 325.911 35.5668 326.152 35.5668 326.447C35.5668 326.702 35.6612 326.907 35.8501 327.063C36.0391 327.219 36.344 327.347 36.7649 327.446L37.978 327.724C38.6806 327.887 39.2043 328.137 39.549 328.475C39.8937 328.813 40.0661 329.252 40.0661 329.793C40.0661 330.25 39.9335 330.658 39.6683 331.016C39.4065 331.37 39.0402 331.649 38.5696 331.851C38.1023 332.053 37.5604 332.154 36.9439 332.154C36.0888 332.154 35.3911 331.972 34.8509 331.607C34.3106 331.239 33.9792 330.717 33.8565 330.041L35.2933 329.822C35.3828 330.197 35.5668 330.48 35.8452 330.673C36.1236 330.862 36.4865 330.956 36.9339 330.956C37.4212 330.956 37.8106 330.855 38.1023 330.653C38.3939 330.447 38.5398 330.197 38.5398 329.902C38.5398 329.663 38.4503 329.463 38.2713 329.3C38.0956 329.138 37.8255 329.015 37.4609 328.933L36.1683 328.649C35.4557 328.487 34.9287 328.228 34.5874 327.874C34.2493 327.519 34.0803 327.07 34.0803 326.526C34.0803 326.076 34.2062 325.681 34.4581 325.343C34.71 325.005 35.058 324.741 35.5021 324.553C35.9463 324.36 36.455 324.264 37.0284 324.264C37.8537 324.264 38.5033 324.443 38.9773 324.801C39.4512 325.156 39.7644 325.631 39.9169 326.228ZM45.2651 324.364V325.557H41.0939V324.364H45.2651ZM42.2125 322.534H43.699V329.758C43.699 330.046 43.7421 330.263 43.8283 330.409C43.9145 330.552 44.0255 330.649 44.1614 330.702C44.3006 330.752 44.4514 330.777 44.6138 330.777C44.7331 330.777 44.8375 330.769 44.927 330.752C45.0165 330.736 45.0861 330.722 45.1358 330.712L45.4043 331.94C45.3181 331.973 45.1955 332.007 45.0364 332.04C44.8773 332.076 44.6784 332.096 44.4398 332.099C44.0487 332.106 43.6841 332.036 43.3461 331.891C43.008 331.745 42.7346 331.519 42.5257 331.214C42.3169 330.91 42.2125 330.527 42.2125 330.066V322.534ZM49.1317 332.169C48.6478 332.169 48.2103 332.08 47.8192 331.901C47.4281 331.718 47.1183 331.455 46.8896 331.11C46.6642 330.765 46.5515 330.343 46.5515 329.842C46.5515 329.411 46.6344 329.057 46.8001 328.778C46.9658 328.5 47.1895 328.28 47.4712 328.117C47.753 327.955 48.0678 327.832 48.4158 327.749C48.7638 327.666 49.1185 327.603 49.4798 327.56C49.9371 327.507 50.3084 327.464 50.5934 327.431C50.8784 327.395 51.0856 327.337 51.2148 327.257C51.3441 327.178 51.4087 327.048 51.4087 326.869V326.835C51.4087 326.4 51.2861 326.064 51.0408 325.825C50.7989 325.587 50.4376 325.467 49.957 325.467C49.4566 325.467 49.0621 325.578 48.7738 325.8C48.4888 326.019 48.2915 326.263 48.1822 326.531L46.7852 326.213C46.9509 325.749 47.1928 325.375 47.511 325.089C47.8325 324.801 48.2021 324.592 48.6197 324.463C49.0373 324.33 49.4764 324.264 49.9371 324.264C50.2421 324.264 50.5652 324.301 50.9066 324.374C51.2513 324.443 51.5728 324.572 51.8711 324.761C52.1727 324.95 52.4196 325.22 52.6119 325.572C52.8041 325.92 52.9002 326.372 52.9002 326.929V332H51.4485V330.956H51.3888C51.2927 331.148 51.1486 331.337 50.9563 331.523C50.7641 331.708 50.5172 331.862 50.2156 331.985C49.9139 332.108 49.5527 332.169 49.1317 332.169ZM49.4549 330.976C49.8659 330.976 50.2172 330.895 50.5089 330.732C50.8039 330.57 51.0276 330.358 51.18 330.096C51.3358 329.831 51.4137 329.547 51.4137 329.246V328.261C51.3607 328.314 51.2579 328.364 51.1055 328.411C50.9563 328.454 50.7856 328.492 50.5934 328.525C50.4012 328.555 50.2139 328.583 50.0316 328.609C49.8493 328.633 49.6969 328.652 49.5742 328.669C49.2859 328.705 49.0224 328.767 48.7837 328.853C48.5484 328.939 48.3595 329.063 48.217 329.226C48.0778 329.385 48.0082 329.597 48.0082 329.862C48.0082 330.23 48.1441 330.509 48.4158 330.697C48.6876 330.883 49.034 330.976 49.4549 330.976ZM54.8801 332V324.364H56.307V325.607H56.4015C56.5605 325.186 56.8207 324.857 57.182 324.622C57.5433 324.384 57.9758 324.264 58.4796 324.264C58.99 324.264 59.4176 324.384 59.7623 324.622C60.1103 324.861 60.3671 325.189 60.5328 325.607H60.6124C60.7947 325.199 61.0847 324.874 61.4824 324.632C61.8801 324.387 62.3541 324.264 62.9043 324.264C63.597 324.264 64.1621 324.481 64.5996 324.915C65.0404 325.35 65.2608 326.004 65.2608 326.879V332H63.7743V327.018C63.7743 326.501 63.6335 326.127 63.3517 325.895C63.07 325.663 62.7336 325.547 62.3425 325.547C61.8586 325.547 61.4824 325.696 61.214 325.994C60.9455 326.289 60.8113 326.669 60.8113 327.133V332H59.3297V326.924C59.3297 326.51 59.2005 326.177 58.9419 325.925C58.6834 325.673 58.347 325.547 57.9327 325.547C57.651 325.547 57.3908 325.621 57.1522 325.771C56.9168 325.916 56.7263 326.12 56.5804 326.382C56.4379 326.644 56.3667 326.947 56.3667 327.292V332H54.8801ZM67.2532 334.864V324.364H68.7049V325.602H68.8292C68.9154 325.442 69.0397 325.259 69.2021 325.05C69.3645 324.841 69.5898 324.659 69.8782 324.503C70.1665 324.344 70.5477 324.264 71.0217 324.264C71.6381 324.264 72.1883 324.42 72.6722 324.732C73.1561 325.043 73.5356 325.492 73.8107 326.079C74.0891 326.665 74.2283 327.371 74.2283 328.197C74.2283 329.022 74.0908 329.73 73.8157 330.32C73.5406 330.906 73.1628 331.359 72.6822 331.677C72.2016 331.992 71.6531 332.149 71.0366 332.149C70.5726 332.149 70.1931 332.071 69.8981 331.915C69.6064 331.76 69.3777 331.577 69.212 331.369C69.0463 331.16 68.9187 330.974 68.8292 330.812H68.7397V334.864H67.2532ZM68.7099 328.182C68.7099 328.719 68.7878 329.189 68.9435 329.594C69.0993 329.998 69.3247 330.315 69.6197 330.543C69.9147 330.769 70.2759 330.881 70.7035 330.881C71.1476 330.881 71.5188 330.764 71.8171 330.528C72.1154 330.29 72.3408 329.967 72.4933 329.559C72.649 329.151 72.7269 328.692 72.7269 328.182C72.7269 327.678 72.6507 327.226 72.4982 326.825C72.3491 326.424 72.1237 326.107 71.8221 325.875C71.5238 325.643 71.1509 325.527 70.7035 325.527C70.2726 325.527 69.908 325.638 69.6097 325.86C69.3147 326.082 69.091 326.392 68.9386 326.79C68.7861 327.187 68.7099 327.652 68.7099 328.182Z" fill="#007438"/>
<path d="M241.817 204L243.488 193.818H244.681L243.011 204H241.817ZM237.209 201.276L237.403 200.082H245.119L244.925 201.276H237.209ZM238.238 204L239.908 193.818H241.102L239.431 204H238.238ZM237.8 197.736L237.994 196.543H245.71L245.516 197.736H237.8ZM247.237 204L251.681 195.21V195.136H246.54V193.818H253.272V195.18L248.842 204H247.237ZM258.864 193.818V204H257.323V195.359H257.263L254.827 196.95V195.479L257.367 193.818H258.864ZM261.757 204V193.818H263.294V202.678H267.907V204H261.757ZM273.075 204.139C272.621 204.133 272.174 204.05 271.733 203.891C271.295 203.732 270.898 203.466 270.54 203.095C270.182 202.724 269.895 202.225 269.68 201.599C269.467 200.972 269.361 200.19 269.361 199.252C269.361 198.364 269.449 197.575 269.625 196.886C269.804 196.196 270.061 195.615 270.395 195.141C270.73 194.663 271.135 194.3 271.608 194.052C272.082 193.803 272.614 193.679 273.204 193.679C273.811 193.679 274.349 193.798 274.82 194.037C275.291 194.276 275.672 194.605 275.964 195.026C276.259 195.447 276.446 195.926 276.525 196.463H275.009C274.906 196.039 274.702 195.692 274.398 195.424C274.093 195.156 273.695 195.021 273.204 195.021C272.459 195.021 271.877 195.346 271.459 195.996C271.045 196.645 270.836 197.549 270.833 198.705H270.907C271.083 198.417 271.299 198.172 271.554 197.969C271.812 197.764 272.101 197.607 272.419 197.497C272.74 197.384 273.078 197.328 273.433 197.328C274.023 197.328 274.557 197.472 275.034 197.761C275.515 198.046 275.897 198.44 276.182 198.944C276.467 199.448 276.61 200.024 276.61 200.674C276.61 201.324 276.462 201.912 276.167 202.439C275.876 202.966 275.465 203.384 274.934 203.692C274.404 203.997 273.784 204.146 273.075 204.139ZM273.07 202.847C273.461 202.847 273.811 202.75 274.119 202.558C274.427 202.366 274.671 202.107 274.85 201.783C275.029 201.458 275.118 201.095 275.118 200.694C275.118 200.303 275.031 199.946 274.855 199.625C274.683 199.304 274.444 199.048 274.139 198.859C273.837 198.67 273.493 198.576 273.105 198.576C272.81 198.576 272.537 198.632 272.285 198.745C272.036 198.858 271.817 199.013 271.628 199.212C271.439 199.411 271.29 199.64 271.181 199.898C271.075 200.154 271.022 200.424 271.022 200.709C271.022 201.09 271.11 201.443 271.285 201.768C271.464 202.093 271.708 202.354 272.016 202.553C272.328 202.749 272.679 202.847 273.07 202.847ZM281.806 193.679C282.261 193.682 282.708 193.765 283.149 193.928C283.59 194.09 283.987 194.355 284.342 194.723C284.7 195.091 284.985 195.588 285.197 196.214C285.413 196.838 285.522 197.613 285.525 198.541C285.525 199.433 285.436 200.227 285.257 200.923C285.078 201.615 284.821 202.2 284.486 202.678C284.155 203.155 283.752 203.518 283.278 203.766C282.804 204.015 282.27 204.139 281.677 204.139C281.071 204.139 280.532 204.02 280.061 203.781C279.591 203.543 279.208 203.213 278.913 202.792C278.618 202.368 278.434 201.88 278.361 201.33H279.877C279.977 201.768 280.179 202.122 280.484 202.394C280.792 202.663 281.19 202.797 281.677 202.797C282.423 202.797 283.005 202.472 283.422 201.822C283.84 201.17 284.05 200.258 284.054 199.088H283.974C283.802 199.373 283.586 199.618 283.328 199.824C283.073 200.029 282.786 200.188 282.468 200.301C282.15 200.414 281.81 200.47 281.449 200.47C280.862 200.47 280.328 200.326 279.848 200.038C279.367 199.749 278.984 199.353 278.699 198.849C278.414 198.346 278.272 197.771 278.272 197.124C278.272 196.481 278.417 195.898 278.709 195.374C279.004 194.851 279.415 194.436 279.942 194.131C280.472 193.823 281.094 193.672 281.806 193.679ZM281.811 194.972C281.424 194.972 281.074 195.068 280.762 195.26C280.454 195.449 280.211 195.706 280.032 196.031C279.853 196.352 279.763 196.71 279.763 197.104C279.763 197.499 279.849 197.857 280.022 198.178C280.197 198.496 280.436 198.75 280.738 198.939C281.042 199.125 281.391 199.217 281.782 199.217C282.073 199.217 282.345 199.161 282.597 199.048C282.849 198.936 283.069 198.78 283.258 198.581C283.447 198.379 283.595 198.15 283.701 197.895C283.807 197.64 283.86 197.371 283.86 197.089C283.86 196.715 283.77 196.367 283.591 196.045C283.416 195.724 283.174 195.465 282.865 195.27C282.557 195.071 282.206 194.972 281.811 194.972ZM287.46 204V193.818H291.09C291.882 193.818 292.538 193.962 293.058 194.251C293.579 194.539 293.968 194.933 294.227 195.434C294.485 195.931 294.615 196.491 294.615 197.114C294.615 197.741 294.484 198.304 294.222 198.805C293.963 199.302 293.572 199.696 293.048 199.988C292.528 200.276 291.874 200.42 291.085 200.42H288.589V199.118H290.945C291.446 199.118 291.852 199.032 292.164 198.859C292.475 198.684 292.704 198.445 292.85 198.143C292.995 197.842 293.068 197.499 293.068 197.114C293.068 196.73 292.995 196.388 292.85 196.09C292.704 195.792 292.473 195.558 292.159 195.389C291.847 195.22 291.436 195.136 290.926 195.136H288.997V204H287.46ZM299.019 193.818H300.551V201.037C300.551 201.69 300.421 202.248 300.163 202.712C299.908 203.176 299.548 203.531 299.084 203.776C298.62 204.018 298.076 204.139 297.453 204.139C296.88 204.139 296.365 204.035 295.907 203.826C295.453 203.617 295.093 203.314 294.828 202.916C294.566 202.515 294.436 202.028 294.436 201.455H295.962C295.962 201.736 296.026 201.98 296.156 202.185C296.288 202.391 296.469 202.552 296.698 202.668C296.93 202.78 297.195 202.837 297.493 202.837C297.818 202.837 298.093 202.769 298.318 202.633C298.547 202.494 298.721 202.29 298.84 202.021C298.96 201.753 299.019 201.425 299.019 201.037V193.818ZM302.787 204V193.818H304.323V198.68H304.447L308.718 193.818H310.652L306.545 198.402L310.667 204H308.817L305.526 199.451L304.323 200.833V204H302.787ZM315.489 204.139C314.806 204.139 314.196 204.022 313.659 203.786C313.126 203.551 312.703 203.224 312.392 202.807C312.083 202.386 311.918 201.899 311.895 201.345H313.456C313.475 201.647 313.577 201.909 313.759 202.131C313.944 202.349 314.186 202.518 314.485 202.638C314.783 202.757 315.114 202.817 315.479 202.817C315.88 202.817 316.235 202.747 316.543 202.608C316.855 202.469 317.098 202.275 317.274 202.026C317.449 201.774 317.537 201.484 317.537 201.156C317.537 200.815 317.449 200.515 317.274 200.256C317.101 199.995 316.848 199.789 316.513 199.64C316.182 199.491 315.781 199.416 315.31 199.416H314.45V198.163H315.31C315.688 198.163 316.019 198.095 316.304 197.96C316.593 197.824 316.818 197.635 316.98 197.393C317.143 197.147 317.224 196.861 317.224 196.533C317.224 196.218 317.153 195.944 317.01 195.712C316.871 195.477 316.672 195.293 316.414 195.161C316.158 195.028 315.857 194.962 315.509 194.962C315.177 194.962 314.868 195.023 314.579 195.146C314.294 195.265 314.062 195.437 313.883 195.663C313.704 195.885 313.608 196.152 313.595 196.463H312.108C312.125 195.913 312.287 195.429 312.596 195.011C312.907 194.594 313.318 194.267 313.828 194.032C314.339 193.797 314.906 193.679 315.529 193.679C316.182 193.679 316.745 193.807 317.219 194.062C317.696 194.314 318.064 194.65 318.323 195.071C318.585 195.492 318.714 195.953 318.711 196.453C318.714 197.023 318.555 197.507 318.233 197.905C317.915 198.303 317.491 198.569 316.961 198.705V198.785C317.637 198.888 318.16 199.156 318.532 199.59C318.906 200.024 319.092 200.563 319.088 201.206C319.092 201.766 318.936 202.268 318.621 202.712C318.31 203.156 317.884 203.506 317.343 203.761C316.803 204.013 316.185 204.139 315.489 204.139Z" fill="#6E6E6E"/>
<path d="M246.609 234.011V232.768L251.009 225.818H251.989V227.648H251.367L248.22 232.629V232.709H254.251V234.011H246.609ZM251.437 236V233.634L251.447 233.067V225.818H252.903V236H251.437ZM259.344 236.139C258.721 236.139 258.161 236.02 257.664 235.781C257.17 235.539 256.775 235.208 256.48 234.787C256.185 234.366 256.028 233.885 256.008 233.345H257.5C257.536 233.783 257.73 234.142 258.081 234.424C258.433 234.706 258.854 234.847 259.344 234.847C259.735 234.847 260.082 234.757 260.383 234.578C260.688 234.396 260.927 234.146 261.099 233.827C261.275 233.509 261.363 233.146 261.363 232.739C261.363 232.324 261.273 231.955 261.094 231.63C260.915 231.305 260.668 231.05 260.353 230.864C260.042 230.679 259.684 230.584 259.279 230.581C258.971 230.581 258.661 230.634 258.35 230.74C258.038 230.846 257.786 230.985 257.594 231.158L256.187 230.949L256.759 225.818H262.357V227.136H258.037L257.713 229.984H257.773C257.972 229.792 258.235 229.631 258.564 229.502C258.895 229.373 259.25 229.308 259.627 229.308C260.247 229.308 260.799 229.456 261.283 229.751C261.77 230.046 262.153 230.448 262.431 230.959C262.713 231.466 262.852 232.049 262.849 232.709C262.852 233.368 262.703 233.957 262.402 234.474C262.103 234.991 261.689 235.398 261.159 235.697C260.632 235.992 260.027 236.139 259.344 236.139ZM268.051 225.679C268.505 225.682 268.952 225.765 269.393 225.928C269.834 226.09 270.231 226.355 270.586 226.723C270.944 227.091 271.229 227.588 271.441 228.214C271.657 228.838 271.766 229.613 271.769 230.541C271.769 231.433 271.68 232.227 271.501 232.923C271.322 233.615 271.065 234.2 270.73 234.678C270.399 235.155 269.996 235.518 269.522 235.766C269.048 236.015 268.515 236.139 267.921 236.139C267.315 236.139 266.776 236.02 266.306 235.781C265.835 235.543 265.452 235.213 265.157 234.792C264.862 234.368 264.678 233.88 264.605 233.33H266.122C266.221 233.768 266.423 234.122 266.728 234.394C267.036 234.663 267.434 234.797 267.921 234.797C268.667 234.797 269.249 234.472 269.666 233.822C270.084 233.17 270.294 232.258 270.298 231.088H270.218C270.046 231.373 269.83 231.618 269.572 231.824C269.317 232.029 269.03 232.188 268.712 232.301C268.394 232.414 268.054 232.47 267.693 232.47C267.106 232.47 266.572 232.326 266.092 232.038C265.611 231.749 265.228 231.353 264.943 230.849C264.658 230.346 264.516 229.771 264.516 229.124C264.516 228.481 264.662 227.898 264.953 227.374C265.248 226.851 265.659 226.436 266.186 226.131C266.717 225.823 267.338 225.672 268.051 225.679ZM268.056 226.972C267.668 226.972 267.318 227.068 267.007 227.26C266.698 227.449 266.455 227.706 266.276 228.031C266.097 228.352 266.007 228.71 266.007 229.104C266.007 229.499 266.093 229.857 266.266 230.178C266.441 230.496 266.68 230.75 266.982 230.939C267.287 231.125 267.635 231.217 268.026 231.217C268.317 231.217 268.589 231.161 268.841 231.048C269.093 230.936 269.313 230.78 269.502 230.581C269.691 230.379 269.839 230.15 269.945 229.895C270.051 229.64 270.104 229.371 270.104 229.089C270.104 228.715 270.014 228.367 269.835 228.045C269.66 227.724 269.418 227.465 269.11 227.27C268.801 227.071 268.45 226.972 268.056 226.972ZM274.195 236.094C273.924 236.094 273.69 235.998 273.494 235.806C273.299 235.611 273.201 235.375 273.201 235.1C273.201 234.828 273.299 234.596 273.494 234.404C273.69 234.209 273.924 234.111 274.195 234.111C274.467 234.111 274.701 234.209 274.896 234.404C275.092 234.596 275.19 234.828 275.19 235.1C275.19 235.282 275.143 235.45 275.051 235.602C274.961 235.751 274.842 235.871 274.693 235.96C274.544 236.05 274.378 236.094 274.195 236.094ZM280.337 236.169C279.551 236.166 278.88 235.959 278.323 235.548C277.766 235.137 277.34 234.538 277.045 233.753C276.75 232.967 276.603 232.021 276.603 230.914C276.603 229.81 276.75 228.867 277.045 228.085C277.344 227.303 277.771 226.706 278.328 226.295C278.888 225.884 279.558 225.679 280.337 225.679C281.116 225.679 281.783 225.886 282.34 226.3C282.897 226.711 283.323 227.308 283.618 228.09C283.916 228.869 284.065 229.81 284.065 230.914C284.065 232.024 283.918 232.972 283.623 233.758C283.328 234.54 282.902 235.138 282.345 235.553C281.788 235.964 281.119 236.169 280.337 236.169ZM280.337 234.842C281.026 234.842 281.565 234.505 281.952 233.832C282.344 233.16 282.539 232.187 282.539 230.914C282.539 230.069 282.45 229.355 282.271 228.771C282.095 228.185 281.841 227.741 281.51 227.439C281.182 227.134 280.791 226.982 280.337 226.982C279.651 226.982 279.112 227.32 278.721 227.996C278.33 228.672 278.133 229.645 278.129 230.914C278.129 231.763 278.217 232.48 278.393 233.067C278.572 233.65 278.825 234.093 279.153 234.394C279.482 234.692 279.876 234.842 280.337 234.842ZM289.374 236.169C288.588 236.166 287.917 235.959 287.36 235.548C286.803 235.137 286.378 234.538 286.083 233.753C285.788 232.967 285.64 232.021 285.64 230.914C285.64 229.81 285.788 228.867 286.083 228.085C286.381 227.303 286.808 226.706 287.365 226.295C287.925 225.884 288.595 225.679 289.374 225.679C290.153 225.679 290.82 225.886 291.377 226.3C291.934 226.711 292.36 227.308 292.655 228.09C292.953 228.869 293.102 229.81 293.102 230.914C293.102 232.024 292.955 232.972 292.66 233.758C292.365 234.54 291.939 235.138 291.382 235.553C290.825 235.964 290.156 236.169 289.374 236.169ZM289.374 234.842C290.063 234.842 290.602 234.505 290.99 233.832C291.381 233.16 291.576 232.187 291.576 230.914C291.576 230.069 291.487 229.355 291.308 228.771C291.132 228.185 290.878 227.741 290.547 227.439C290.219 227.134 289.828 226.982 289.374 226.982C288.688 226.982 288.149 227.32 287.758 227.996C287.367 228.672 287.17 229.645 287.166 230.914C287.166 231.763 287.254 232.48 287.43 233.067C287.609 233.65 287.862 234.093 288.191 234.394C288.519 234.692 288.913 234.842 289.374 234.842ZM298.477 236V225.818H302.553C303.302 225.818 303.927 225.929 304.428 226.151C304.928 226.373 305.304 226.682 305.556 227.076C305.808 227.467 305.934 227.918 305.934 228.428C305.934 228.826 305.855 229.176 305.695 229.477C305.536 229.776 305.318 230.021 305.039 230.213C304.764 230.402 304.449 230.536 304.095 230.616V230.715C304.482 230.732 304.845 230.841 305.183 231.043C305.525 231.246 305.802 231.529 306.014 231.893C306.226 232.255 306.332 232.686 306.332 233.186C306.332 233.726 306.198 234.209 305.929 234.633C305.664 235.054 305.271 235.387 304.751 235.632C304.231 235.877 303.589 236 302.827 236H298.477ZM300.629 234.24H302.384C302.984 234.24 303.422 234.126 303.697 233.897C303.972 233.665 304.11 233.357 304.11 232.972C304.11 232.691 304.042 232.442 303.906 232.227C303.77 232.011 303.576 231.842 303.324 231.719C303.075 231.597 302.779 231.536 302.434 231.536H300.629V234.24ZM300.629 230.079H302.225C302.52 230.079 302.782 230.027 303.011 229.925C303.243 229.819 303.425 229.67 303.558 229.477C303.694 229.285 303.762 229.055 303.762 228.786C303.762 228.418 303.631 228.122 303.369 227.896C303.11 227.671 302.742 227.558 302.265 227.558H300.629V230.079ZM307.733 236V225.818H311.75C312.519 225.818 313.175 225.956 313.718 226.231C314.265 226.503 314.681 226.889 314.966 227.389C315.255 227.886 315.399 228.471 315.399 229.144C315.399 229.82 315.253 230.402 314.961 230.889C314.67 231.373 314.247 231.744 313.694 232.003C313.143 232.261 312.477 232.391 311.695 232.391H309.005V230.661H311.347C311.758 230.661 312.099 230.604 312.371 230.491C312.643 230.379 312.845 230.21 312.978 229.984C313.114 229.759 313.181 229.479 313.181 229.144C313.181 228.806 313.114 228.521 312.978 228.289C312.845 228.057 312.641 227.881 312.366 227.762C312.094 227.639 311.751 227.578 311.337 227.578H309.885V236H307.733ZM313.231 231.366L315.762 236H313.385L310.909 231.366H313.231ZM318.014 236.094C317.742 236.094 317.508 235.998 317.313 235.806C317.117 235.611 317.02 235.375 317.02 235.1C317.02 234.828 317.117 234.596 317.313 234.404C317.508 234.209 317.742 234.111 318.014 234.111C318.286 234.111 318.519 234.209 318.715 234.404C318.91 234.596 319.008 234.828 319.008 235.1C319.008 235.282 318.962 235.45 318.869 235.602C318.779 235.751 318.66 235.871 318.511 235.96C318.362 236.05 318.196 236.094 318.014 236.094Z" fill="#6E6E6E"/>
<path d="M267.5 266.011V264.768L271.9 257.818H272.879V259.648H272.258L269.111 264.629V264.709H275.141V266.011H267.5ZM272.327 268V265.634L272.337 265.067V257.818H273.794V268H272.327ZM277.49 268.094C277.219 268.094 276.985 267.998 276.789 267.806C276.594 267.611 276.496 267.375 276.496 267.1C276.496 266.828 276.594 266.596 276.789 266.404C276.985 266.209 277.219 266.111 277.49 266.111C277.762 266.111 277.996 266.209 278.191 266.404C278.387 266.596 278.485 266.828 278.485 267.1C278.485 267.282 278.438 267.45 278.346 267.602C278.256 267.751 278.137 267.871 277.988 267.96C277.838 268.05 277.673 268.094 277.49 268.094ZM283.088 257.818V268H281.547V259.359H281.488L279.051 260.95V259.479L281.592 257.818H283.088ZM289.387 268.139C288.705 268.139 288.095 268.022 287.558 267.786C287.024 267.551 286.602 267.224 286.29 266.807C285.982 266.386 285.816 265.899 285.793 265.345H287.354C287.374 265.647 287.475 265.909 287.657 266.131C287.843 266.349 288.085 266.518 288.383 266.638C288.681 266.757 289.013 266.817 289.377 266.817C289.779 266.817 290.133 266.747 290.441 266.608C290.753 266.469 290.997 266.275 291.172 266.026C291.348 265.774 291.436 265.484 291.436 265.156C291.436 264.815 291.348 264.515 291.172 264.256C291 263.995 290.746 263.789 290.412 263.64C290.08 263.491 289.679 263.416 289.208 263.416H288.348V262.163H289.208C289.586 262.163 289.918 262.095 290.203 261.96C290.491 261.824 290.717 261.635 290.879 261.393C291.041 261.147 291.123 260.861 291.123 260.533C291.123 260.218 291.051 259.944 290.909 259.712C290.77 259.477 290.571 259.293 290.312 259.161C290.057 259.028 289.755 258.962 289.407 258.962C289.076 258.962 288.766 259.023 288.478 259.146C288.193 259.265 287.961 259.437 287.782 259.663C287.603 259.885 287.507 260.152 287.493 260.463H286.007C286.023 259.913 286.186 259.429 286.494 259.011C286.806 258.594 287.217 258.267 287.727 258.032C288.237 257.797 288.804 257.679 289.427 257.679C290.08 257.679 290.644 257.807 291.118 258.062C291.595 258.314 291.963 258.65 292.221 259.071C292.483 259.492 292.612 259.953 292.609 260.453C292.612 261.023 292.453 261.507 292.132 261.905C291.814 262.303 291.389 262.569 290.859 262.705V262.785C291.535 262.888 292.059 263.156 292.43 263.59C292.805 264.024 292.99 264.563 292.987 265.206C292.99 265.766 292.834 266.268 292.52 266.712C292.208 267.156 291.782 267.506 291.242 267.761C290.702 268.013 290.083 268.139 289.387 268.139ZM298.477 268V257.818H302.553C303.302 257.818 303.927 257.929 304.428 258.151C304.928 258.373 305.304 258.682 305.556 259.076C305.808 259.467 305.934 259.918 305.934 260.428C305.934 260.826 305.855 261.176 305.695 261.477C305.536 261.776 305.318 262.021 305.039 262.213C304.764 262.402 304.449 262.536 304.095 262.616V262.715C304.482 262.732 304.845 262.841 305.183 263.043C305.525 263.246 305.802 263.529 306.014 263.893C306.226 264.255 306.332 264.686 306.332 265.186C306.332 265.726 306.198 266.209 305.929 266.633C305.664 267.054 305.271 267.387 304.751 267.632C304.231 267.877 303.589 268 302.827 268H298.477ZM300.629 266.24H302.384C302.984 266.24 303.422 266.126 303.697 265.897C303.972 265.665 304.11 265.357 304.11 264.972C304.11 264.691 304.042 264.442 303.906 264.227C303.77 264.011 303.576 263.842 303.324 263.719C303.075 263.597 302.779 263.536 302.434 263.536H300.629V266.24ZM300.629 262.079H302.225C302.52 262.079 302.782 262.027 303.011 261.925C303.243 261.819 303.425 261.67 303.558 261.477C303.694 261.285 303.762 261.055 303.762 260.786C303.762 260.418 303.631 260.122 303.369 259.896C303.11 259.671 302.742 259.558 302.265 259.558H300.629V262.079ZM307.733 268V257.818H311.75C312.519 257.818 313.175 257.956 313.718 258.231C314.265 258.503 314.681 258.889 314.966 259.389C315.255 259.886 315.399 260.471 315.399 261.144C315.399 261.82 315.253 262.402 314.961 262.889C314.67 263.373 314.247 263.744 313.694 264.003C313.143 264.261 312.477 264.391 311.695 264.391H309.005V262.661H311.347C311.758 262.661 312.099 262.604 312.371 262.491C312.643 262.379 312.845 262.21 312.978 261.984C313.114 261.759 313.181 261.479 313.181 261.144C313.181 260.806 313.114 260.521 312.978 260.289C312.845 260.057 312.641 259.881 312.366 259.762C312.094 259.639 311.751 259.578 311.337 259.578H309.885V268H307.733ZM313.231 263.366L315.762 268H313.385L310.909 263.366H313.231ZM318.014 268.094C317.742 268.094 317.508 267.998 317.313 267.806C317.117 267.611 317.02 267.375 317.02 267.1C317.02 266.828 317.117 266.596 317.313 266.404C317.508 266.209 317.742 266.111 318.014 266.111C318.286 266.111 318.519 266.209 318.715 266.404C318.91 266.596 319.008 266.828 319.008 267.1C319.008 267.282 318.962 267.45 318.869 267.602C318.779 267.751 318.66 267.871 318.511 267.96C318.362 268.05 318.196 268.094 318.014 268.094Z" fill="#6E6E6E"/>
<path d="M249.494 298.011V296.768L253.894 289.818H254.873V291.648H254.252L251.105 296.629V296.709H257.135V298.011H249.494ZM254.322 300V297.634L254.331 297.067V289.818H255.788V300H254.322ZM262.423 300.139C261.969 300.133 261.521 300.05 261.08 299.891C260.643 299.732 260.245 299.466 259.887 299.095C259.529 298.724 259.243 298.225 259.027 297.599C258.815 296.972 258.709 296.19 258.709 295.252C258.709 294.364 258.797 293.575 258.972 292.886C259.151 292.196 259.408 291.615 259.743 291.141C260.078 290.663 260.482 290.3 260.956 290.052C261.43 289.803 261.962 289.679 262.552 289.679C263.159 289.679 263.697 289.798 264.168 290.037C264.638 290.276 265.02 290.605 265.311 291.026C265.606 291.447 265.794 291.926 265.873 292.463H264.357C264.254 292.039 264.05 291.692 263.745 291.424C263.44 291.156 263.043 291.021 262.552 291.021C261.806 291.021 261.225 291.346 260.807 291.996C260.393 292.645 260.184 293.549 260.181 294.705H260.255C260.431 294.417 260.646 294.172 260.901 293.969C261.16 293.764 261.448 293.607 261.767 293.497C262.088 293.384 262.426 293.328 262.781 293.328C263.371 293.328 263.904 293.472 264.382 293.761C264.862 294.046 265.245 294.44 265.53 294.944C265.815 295.448 265.958 296.024 265.958 296.674C265.958 297.324 265.81 297.912 265.515 298.439C265.223 298.966 264.812 299.384 264.282 299.692C263.752 299.997 263.132 300.146 262.423 300.139ZM262.418 298.847C262.809 298.847 263.159 298.75 263.467 298.558C263.775 298.366 264.019 298.107 264.198 297.783C264.377 297.458 264.466 297.095 264.466 296.694C264.466 296.303 264.378 295.946 264.203 295.625C264.03 295.304 263.792 295.048 263.487 294.859C263.185 294.67 262.84 294.576 262.453 294.576C262.158 294.576 261.884 294.632 261.632 294.745C261.384 294.858 261.165 295.013 260.976 295.212C260.787 295.411 260.638 295.64 260.529 295.898C260.423 296.154 260.369 296.424 260.369 296.709C260.369 297.09 260.457 297.443 260.633 297.768C260.812 298.093 261.056 298.354 261.364 298.553C261.675 298.749 262.027 298.847 262.418 298.847ZM271.313 300.139C270.63 300.139 270.021 300.022 269.484 299.786C268.95 299.551 268.527 299.224 268.216 298.807C267.908 298.386 267.742 297.899 267.719 297.345H269.28C269.3 297.647 269.401 297.909 269.583 298.131C269.769 298.349 270.011 298.518 270.309 298.638C270.607 298.757 270.939 298.817 271.303 298.817C271.704 298.817 272.059 298.747 272.367 298.608C272.679 298.469 272.922 298.275 273.098 298.026C273.274 297.774 273.362 297.484 273.362 297.156C273.362 296.815 273.274 296.515 273.098 296.256C272.926 295.995 272.672 295.789 272.337 295.64C272.006 295.491 271.605 295.416 271.134 295.416H270.274V294.163H271.134C271.512 294.163 271.844 294.095 272.129 293.96C272.417 293.824 272.642 293.635 272.805 293.393C272.967 293.147 273.048 292.861 273.048 292.533C273.048 292.218 272.977 291.944 272.835 291.712C272.695 291.477 272.496 291.293 272.238 291.161C271.983 291.028 271.681 290.962 271.333 290.962C271.002 290.962 270.692 291.023 270.403 291.146C270.118 291.265 269.886 291.437 269.707 291.663C269.528 291.885 269.432 292.152 269.419 292.463H267.933C267.949 291.913 268.112 291.429 268.42 291.011C268.731 290.594 269.142 290.267 269.653 290.032C270.163 289.797 270.73 289.679 271.353 289.679C272.006 289.679 272.569 289.807 273.043 290.062C273.521 290.314 273.888 290.65 274.147 291.071C274.409 291.492 274.538 291.953 274.535 292.453C274.538 293.023 274.379 293.507 274.058 293.905C273.739 294.303 273.315 294.569 272.785 294.705V294.785C273.461 294.888 273.985 295.156 274.356 295.59C274.73 296.024 274.916 296.563 274.913 297.206C274.916 297.766 274.76 298.268 274.445 298.712C274.134 299.156 273.708 299.506 273.168 299.761C272.627 300.013 272.009 300.139 271.313 300.139ZM277.49 300.094C277.219 300.094 276.985 299.998 276.789 299.806C276.594 299.611 276.496 299.375 276.496 299.1C276.496 298.828 276.594 298.596 276.789 298.404C276.985 298.209 277.219 298.111 277.49 298.111C277.762 298.111 277.996 298.209 278.191 298.404C278.387 298.596 278.485 298.828 278.485 299.1C278.485 299.282 278.438 299.45 278.346 299.602C278.256 299.751 278.137 299.871 277.988 299.96C277.838 300.05 277.673 300.094 277.49 300.094ZM283.088 289.818V300H281.547V291.359H281.488L279.051 292.95V291.479L281.592 289.818H283.088ZM289.387 300.139C288.705 300.139 288.095 300.022 287.558 299.786C287.024 299.551 286.602 299.224 286.29 298.807C285.982 298.386 285.816 297.899 285.793 297.345H287.354C287.374 297.647 287.475 297.909 287.657 298.131C287.843 298.349 288.085 298.518 288.383 298.638C288.681 298.757 289.013 298.817 289.377 298.817C289.779 298.817 290.133 298.747 290.441 298.608C290.753 298.469 290.997 298.275 291.172 298.026C291.348 297.774 291.436 297.484 291.436 297.156C291.436 296.815 291.348 296.515 291.172 296.256C291 295.995 290.746 295.789 290.412 295.64C290.08 295.491 289.679 295.416 289.208 295.416H288.348V294.163H289.208C289.586 294.163 289.918 294.095 290.203 293.96C290.491 293.824 290.717 293.635 290.879 293.393C291.041 293.147 291.123 292.861 291.123 292.533C291.123 292.218 291.051 291.944 290.909 291.712C290.77 291.477 290.571 291.293 290.312 291.161C290.057 291.028 289.755 290.962 289.407 290.962C289.076 290.962 288.766 291.023 288.478 291.146C288.193 291.265 287.961 291.437 287.782 291.663C287.603 291.885 287.507 292.152 287.493 292.463H286.007C286.023 291.913 286.186 291.429 286.494 291.011C286.806 290.594 287.217 290.267 287.727 290.032C288.237 289.797 288.804 289.679 289.427 289.679C290.08 289.679 290.644 289.807 291.118 290.062C291.595 290.314 291.963 290.65 292.221 291.071C292.483 291.492 292.612 291.953 292.609 292.453C292.612 293.023 292.453 293.507 292.132 293.905C291.814 294.303 291.389 294.569 290.859 294.705V294.785C291.535 294.888 292.059 295.156 292.43 295.59C292.805 296.024 292.99 296.563 292.987 297.206C292.99 297.766 292.834 298.268 292.52 298.712C292.208 299.156 291.782 299.506 291.242 299.761C290.702 300.013 290.083 300.139 289.387 300.139ZM298.477 300V289.818H302.553C303.302 289.818 303.927 289.929 304.428 290.151C304.928 290.373 305.304 290.682 305.556 291.076C305.808 291.467 305.934 291.918 305.934 292.428C305.934 292.826 305.855 293.176 305.695 293.477C305.536 293.776 305.318 294.021 305.039 294.213C304.764 294.402 304.449 294.536 304.095 294.616V294.715C304.482 294.732 304.845 294.841 305.183 295.043C305.525 295.246 305.802 295.529 306.014 295.893C306.226 296.255 306.332 296.686 306.332 297.186C306.332 297.726 306.198 298.209 305.929 298.633C305.664 299.054 305.271 299.387 304.751 299.632C304.231 299.877 303.589 300 302.827 300H298.477ZM300.629 298.24H302.384C302.984 298.24 303.422 298.126 303.697 297.897C303.972 297.665 304.11 297.357 304.11 296.972C304.11 296.691 304.042 296.442 303.906 296.227C303.77 296.011 303.576 295.842 303.324 295.719C303.075 295.597 302.779 295.536 302.434 295.536H300.629V298.24ZM300.629 294.079H302.225C302.52 294.079 302.782 294.027 303.011 293.925C303.243 293.819 303.425 293.67 303.558 293.477C303.694 293.285 303.762 293.055 303.762 292.786C303.762 292.418 303.631 292.122 303.369 291.896C303.11 291.671 302.742 291.558 302.265 291.558H300.629V294.079ZM307.733 300V289.818H311.75C312.519 289.818 313.175 289.956 313.718 290.231C314.265 290.503 314.681 290.889 314.966 291.389C315.255 291.886 315.399 292.471 315.399 293.144C315.399 293.82 315.253 294.402 314.961 294.889C314.67 295.373 314.247 295.744 313.694 296.003C313.143 296.261 312.477 296.391 311.695 296.391H309.005V294.661H311.347C311.758 294.661 312.099 294.604 312.371 294.491C312.643 294.379 312.845 294.21 312.978 293.984C313.114 293.759 313.181 293.479 313.181 293.144C313.181 292.806 313.114 292.521 312.978 292.289C312.845 292.057 312.641 291.881 312.366 291.762C312.094 291.639 311.751 291.578 311.337 291.578H309.885V300H307.733ZM313.231 295.366L315.762 300H313.385L310.909 295.366H313.231ZM318.014 300.094C317.742 300.094 317.508 299.998 317.313 299.806C317.117 299.611 317.02 299.375 317.02 299.1C317.02 298.828 317.117 298.596 317.313 298.404C317.508 298.209 317.742 298.111 318.014 298.111C318.286 298.111 318.519 298.209 318.715 298.404C318.91 298.596 319.008 298.828 319.008 299.1C319.008 299.282 318.962 299.45 318.869 299.602C318.779 299.751 318.66 299.871 318.511 299.96C318.362 300.05 318.196 300.094 318.014 300.094Z" fill="#6E6E6E"/>
<path d="M201.628 332.169C200.842 332.166 200.171 331.959 199.614 331.548C199.057 331.137 198.631 330.538 198.336 329.753C198.041 328.967 197.894 328.021 197.894 326.914C197.894 325.81 198.041 324.867 198.336 324.085C198.635 323.303 199.062 322.706 199.619 322.295C200.179 321.884 200.849 321.679 201.628 321.679C202.407 321.679 203.074 321.886 203.631 322.3C204.188 322.711 204.614 323.308 204.909 324.09C205.207 324.869 205.356 325.81 205.356 326.914C205.356 328.024 205.209 328.972 204.914 329.758C204.619 330.54 204.193 331.138 203.636 331.553C203.079 331.964 202.41 332.169 201.628 332.169ZM201.628 330.842C202.317 330.842 202.856 330.505 203.243 329.832C203.635 329.16 203.83 328.187 203.83 326.914C203.83 326.069 203.741 325.355 203.562 324.771C203.386 324.185 203.132 323.741 202.801 323.439C202.473 323.134 202.082 322.982 201.628 322.982C200.942 322.982 200.403 323.32 200.012 323.996C199.621 324.672 199.424 325.645 199.42 326.914C199.42 327.763 199.508 328.48 199.684 329.067C199.863 329.65 200.116 330.093 200.444 330.394C200.773 330.692 201.167 330.842 201.628 330.842ZM210.983 321.818V332H209.442V323.359H209.382L206.946 324.95V323.479L209.487 321.818H210.983ZM217.635 321.341L214.354 333.531H213.026L216.308 321.341H217.635ZM222.741 321.818V332H221.2V323.359H221.14L218.704 324.95V323.479L221.244 321.818H222.741ZM229.358 321.818V332H227.817V323.359H227.757L225.321 324.95V323.479L227.862 321.818H229.358ZM236.01 321.341L232.729 333.531H231.401L234.683 321.341H236.01ZM237.253 332V330.886L240.698 327.317C241.066 326.929 241.369 326.589 241.608 326.298C241.85 326.003 242.031 325.723 242.15 325.457C242.269 325.192 242.329 324.911 242.329 324.612C242.329 324.274 242.249 323.982 242.09 323.737C241.931 323.489 241.714 323.298 241.439 323.165C241.164 323.03 240.854 322.962 240.509 322.962C240.145 322.962 239.826 323.036 239.555 323.185C239.283 323.335 239.074 323.545 238.928 323.817C238.782 324.089 238.71 324.407 238.71 324.771H237.243C237.243 324.152 237.385 323.61 237.67 323.146C237.955 322.682 238.347 322.322 238.844 322.067C239.341 321.808 239.906 321.679 240.539 321.679C241.179 321.679 241.742 321.807 242.229 322.062C242.72 322.314 243.103 322.658 243.378 323.096C243.653 323.53 243.79 324.021 243.79 324.567C243.79 324.945 243.719 325.315 243.577 325.676C243.438 326.037 243.194 326.44 242.846 326.884C242.498 327.325 242.014 327.86 241.394 328.49L239.371 330.608V330.683H243.955V332H237.253ZM245.839 332V330.886L249.284 327.317C249.652 326.929 249.955 326.589 250.194 326.298C250.436 326.003 250.616 325.723 250.736 325.457C250.855 325.192 250.915 324.911 250.915 324.612C250.915 324.274 250.835 323.982 250.676 323.737C250.517 323.489 250.3 323.298 250.025 323.165C249.75 323.03 249.44 322.962 249.095 322.962C248.731 322.962 248.412 323.036 248.141 323.185C247.869 323.335 247.66 323.545 247.514 323.817C247.368 324.089 247.295 324.407 247.295 324.771H245.829C245.829 324.152 245.971 323.61 246.256 323.146C246.541 322.682 246.933 322.322 247.43 322.067C247.927 321.808 248.492 321.679 249.125 321.679C249.765 321.679 250.328 321.807 250.815 322.062C251.306 322.314 251.689 322.658 251.964 323.096C252.239 323.53 252.376 324.021 252.376 324.567C252.376 324.945 252.305 325.315 252.163 325.676C252.023 326.037 251.78 326.44 251.432 326.884C251.084 327.325 250.6 327.86 249.98 328.49L247.957 330.608V330.683H252.54V332H245.839ZM256.379 330.608L256.304 331.15C256.254 331.548 256.17 331.962 256.05 332.393C255.934 332.827 255.813 333.23 255.688 333.601C255.565 333.972 255.464 334.267 255.384 334.486H254.33C254.373 334.28 254.433 334.002 254.509 333.651C254.585 333.303 254.66 332.913 254.733 332.482C254.806 332.051 254.861 331.612 254.897 331.165L254.947 330.608H256.379ZM265.862 321.818V332H264.321V323.359H264.261L261.825 324.95V323.479L264.365 321.818H265.862ZM272.161 332.169C271.375 332.166 270.704 331.959 270.147 331.548C269.591 331.137 269.165 330.538 268.87 329.753C268.575 328.967 268.427 328.021 268.427 326.914C268.427 325.81 268.575 324.867 268.87 324.085C269.168 323.303 269.596 322.706 270.152 322.295C270.712 321.884 271.382 321.679 272.161 321.679C272.94 321.679 273.608 321.886 274.164 322.3C274.721 322.711 275.147 323.308 275.442 324.09C275.74 324.869 275.89 325.81 275.89 326.914C275.89 328.024 275.742 328.972 275.447 329.758C275.152 330.54 274.726 331.138 274.169 331.553C273.613 331.964 272.943 332.169 272.161 332.169ZM272.161 330.842C272.85 330.842 273.389 330.505 273.777 329.832C274.168 329.16 274.363 328.187 274.363 326.914C274.363 326.069 274.274 325.355 274.095 324.771C273.919 324.185 273.666 323.741 273.334 323.439C273.006 323.134 272.615 322.982 272.161 322.982C271.475 322.982 270.936 323.32 270.545 323.996C270.154 324.672 269.957 325.645 269.953 326.914C269.953 327.763 270.041 328.48 270.217 329.067C270.396 329.65 270.65 330.093 270.978 330.394C271.306 330.692 271.7 330.842 272.161 330.842ZM278.653 330.737C278.381 330.737 278.147 330.641 277.952 330.449C277.756 330.253 277.658 330.018 277.658 329.743C277.658 329.471 277.756 329.239 277.952 329.047C278.147 328.851 278.381 328.754 278.653 328.754C278.924 328.754 279.158 328.851 279.354 329.047C279.549 329.239 279.647 329.471 279.647 329.743C279.647 329.925 279.6 330.093 279.508 330.245C279.418 330.394 279.299 330.513 279.15 330.603C279.001 330.692 278.835 330.737 278.653 330.737ZM278.653 325.636C278.381 325.636 278.147 325.54 277.952 325.348C277.756 325.152 277.658 324.917 277.658 324.642C277.658 324.37 277.756 324.138 277.952 323.946C278.147 323.75 278.381 323.653 278.653 323.653C278.924 323.653 279.158 323.75 279.354 323.946C279.549 324.138 279.647 324.37 279.647 324.642C279.647 324.824 279.6 324.992 279.508 325.144C279.418 325.293 279.299 325.413 279.15 325.502C279.001 325.592 278.835 325.636 278.653 325.636ZM281.404 330.011V328.768L285.804 321.818H286.784V323.648H286.162L283.015 328.629V328.709H289.046V330.011H281.404ZM286.232 332V329.634L286.242 329.067V321.818H287.698V332H286.232ZM294.139 332.139C293.516 332.139 292.956 332.02 292.459 331.781C291.965 331.539 291.57 331.208 291.275 330.787C290.98 330.366 290.823 329.885 290.803 329.345H292.295C292.331 329.783 292.525 330.142 292.876 330.424C293.228 330.706 293.648 330.847 294.139 330.847C294.53 330.847 294.876 330.757 295.178 330.578C295.483 330.396 295.722 330.146 295.894 329.827C296.07 329.509 296.157 329.146 296.157 328.739C296.157 328.324 296.068 327.955 295.889 327.63C295.71 327.305 295.463 327.05 295.148 326.864C294.837 326.679 294.479 326.584 294.074 326.581C293.766 326.581 293.456 326.634 293.145 326.74C292.833 326.846 292.581 326.985 292.389 327.158L290.982 326.949L291.554 321.818H297.152V323.136H292.831L292.508 325.984H292.568C292.767 325.792 293.03 325.631 293.358 325.502C293.69 325.373 294.045 325.308 294.422 325.308C295.042 325.308 295.594 325.456 296.078 325.751C296.565 326.046 296.948 326.448 297.226 326.959C297.508 327.466 297.647 328.049 297.644 328.709C297.647 329.368 297.498 329.957 297.197 330.474C296.898 330.991 296.484 331.398 295.954 331.697C295.427 331.992 294.822 332.139 294.139 332.139ZM299.599 332V321.818H303.228C304.02 321.818 304.677 321.962 305.197 322.251C305.717 322.539 306.107 322.933 306.365 323.434C306.624 323.931 306.753 324.491 306.753 325.114C306.753 325.741 306.622 326.304 306.36 326.805C306.102 327.302 305.711 327.696 305.187 327.988C304.667 328.276 304.012 328.42 303.223 328.42H300.728V327.118H303.084C303.585 327.118 303.991 327.032 304.302 326.859C304.614 326.684 304.842 326.445 304.988 326.143C305.134 325.842 305.207 325.499 305.207 325.114C305.207 324.73 305.134 324.388 304.988 324.09C304.842 323.792 304.612 323.558 304.297 323.389C303.986 323.22 303.575 323.136 303.064 323.136H301.135V332H299.599ZM308.554 321.818H310.419L313.66 329.733H313.779L317.021 321.818H318.885V332H317.423V324.632H317.329L314.326 331.985H313.113L310.11 324.627H310.016V332H308.554V321.818Z" fill="#6E6E6E"/>
<line x1="4.37114e-08" y1="178.77" x2="320" y2="178.77" stroke="#EDEDED"/>
<line x1="4.37114e-08" y1="349.5" x2="320" y2="349.5" stroke="#EDEDED"/>
<path d="M78.1378 124V110.909H83.3793C84.3423 110.909 85.1456 111.052 85.7891 111.337C86.4325 111.623 86.9162 112.019 87.2401 112.526C87.5639 113.029 87.7259 113.609 87.7259 114.265C87.7259 114.776 87.6236 115.226 87.419 115.614C87.2145 115.997 86.9332 116.312 86.5753 116.56C86.2216 116.803 85.8168 116.975 85.3608 117.077V117.205C85.8594 117.227 86.326 117.367 86.7607 117.627C87.1996 117.887 87.5554 118.251 87.8281 118.72C88.1009 119.185 88.2372 119.739 88.2372 120.382C88.2372 121.077 88.0646 121.697 87.7195 122.242C87.3786 122.783 86.8736 123.212 86.2045 123.527C85.5355 123.842 84.7109 124 83.7308 124H78.1378ZM80.9055 121.737H83.1619C83.9332 121.737 84.4957 121.59 84.8494 121.296C85.2031 120.998 85.38 120.602 85.38 120.107C85.38 119.745 85.2926 119.425 85.1179 119.148C84.9432 118.871 84.6939 118.654 84.37 118.496C84.0504 118.339 83.669 118.26 83.2259 118.26H80.9055V121.737ZM80.9055 116.387H82.9574C83.3366 116.387 83.6733 116.321 83.9673 116.189C84.2656 116.053 84.5 115.861 84.6705 115.614C84.8452 115.366 84.9325 115.07 84.9325 114.725C84.9325 114.252 84.7642 113.871 84.4276 113.581C84.0952 113.291 83.6222 113.146 83.0085 113.146H80.9055V116.387ZM89.987 124V114.182H92.71V124H89.987ZM91.3549 112.916C90.9501 112.916 90.6028 112.782 90.313 112.513C90.0275 112.241 89.8848 111.915 89.8848 111.536C89.8848 111.161 90.0275 110.839 90.313 110.57C90.6028 110.298 90.9501 110.161 91.3549 110.161C91.7598 110.161 92.1049 110.298 92.3904 110.57C92.6802 110.839 92.8251 111.161 92.8251 111.536C92.8251 111.915 92.6802 112.241 92.3904 112.513C92.1049 112.782 91.7598 112.916 91.3549 112.916ZM97.6143 110.909V124H94.8913V110.909H97.6143ZM102.519 110.909V124H99.7956V110.909H102.519ZM108.917 124V110.909H114.082C115.075 110.909 115.921 111.099 116.619 111.478C117.318 111.853 117.851 112.375 118.218 113.044C118.588 113.709 118.774 114.476 118.774 115.345C118.774 116.214 118.586 116.982 118.211 117.646C117.836 118.311 117.293 118.829 116.581 119.2C115.874 119.57 115.017 119.756 114.012 119.756H110.72V117.538H113.564C114.097 117.538 114.536 117.446 114.881 117.263C115.23 117.075 115.49 116.817 115.661 116.489C115.835 116.157 115.923 115.776 115.923 115.345C115.923 114.911 115.835 114.531 115.661 114.207C115.49 113.879 115.23 113.626 114.881 113.447C114.531 113.263 114.088 113.172 113.551 113.172H111.685V124H108.917ZM123.056 124.185C122.43 124.185 121.872 124.077 121.382 123.859C120.892 123.638 120.504 123.312 120.218 122.881C119.937 122.447 119.796 121.906 119.796 121.258C119.796 120.712 119.896 120.254 120.097 119.884C120.297 119.513 120.57 119.214 120.915 118.989C121.26 118.763 121.652 118.592 122.091 118.477C122.534 118.362 122.999 118.281 123.485 118.234C124.056 118.175 124.516 118.119 124.865 118.068C125.215 118.013 125.468 117.932 125.626 117.825C125.784 117.719 125.862 117.561 125.862 117.352V117.314C125.862 116.909 125.735 116.596 125.479 116.374C125.227 116.153 124.869 116.042 124.405 116.042C123.915 116.042 123.525 116.151 123.235 116.368C122.945 116.581 122.754 116.849 122.66 117.173L120.142 116.969C120.269 116.372 120.521 115.857 120.896 115.422C121.271 114.983 121.754 114.646 122.347 114.412C122.943 114.173 123.634 114.054 124.418 114.054C124.963 114.054 125.485 114.118 125.984 114.246C126.487 114.374 126.932 114.572 127.32 114.84C127.712 115.109 128.021 115.454 128.247 115.876C128.472 116.293 128.585 116.794 128.585 117.378V124H126.003V122.638H125.926C125.769 122.945 125.558 123.216 125.294 123.45C125.029 123.68 124.712 123.862 124.341 123.994C123.97 124.121 123.542 124.185 123.056 124.185ZM123.836 122.306C124.237 122.306 124.59 122.227 124.897 122.07C125.204 121.908 125.445 121.69 125.619 121.418C125.794 121.145 125.882 120.836 125.882 120.491V119.449C125.796 119.504 125.679 119.555 125.53 119.602C125.385 119.645 125.221 119.685 125.038 119.724C124.855 119.758 124.671 119.79 124.488 119.82C124.305 119.845 124.139 119.869 123.99 119.89C123.67 119.937 123.391 120.011 123.152 120.114C122.914 120.216 122.728 120.354 122.596 120.529C122.464 120.7 122.398 120.913 122.398 121.168C122.398 121.539 122.532 121.822 122.801 122.018C123.073 122.21 123.419 122.306 123.836 122.306ZM132.028 127.682C131.682 127.682 131.358 127.654 131.056 127.599C130.758 127.548 130.51 127.482 130.314 127.401L130.928 125.368C131.248 125.466 131.535 125.519 131.791 125.528C132.051 125.536 132.275 125.477 132.462 125.349C132.654 125.221 132.809 125.004 132.929 124.697L133.089 124.281L129.567 114.182H132.43L134.463 121.392H134.565L136.617 114.182H139.5L135.684 125.061C135.501 125.589 135.251 126.05 134.936 126.442C134.625 126.838 134.231 127.143 133.753 127.356C133.276 127.573 132.701 127.682 132.028 127.682ZM152.212 114.674C152.161 114.158 151.941 113.758 151.554 113.472C151.166 113.187 150.64 113.044 149.975 113.044C149.523 113.044 149.142 113.108 148.831 113.236C148.52 113.359 148.281 113.532 148.115 113.754C147.953 113.975 147.872 114.227 147.872 114.508C147.863 114.742 147.912 114.947 148.019 115.121C148.13 115.296 148.281 115.447 148.473 115.575C148.664 115.699 148.886 115.808 149.137 115.901C149.389 115.991 149.657 116.067 149.943 116.131L151.119 116.413C151.69 116.54 152.214 116.711 152.691 116.924C153.169 117.137 153.582 117.399 153.931 117.71C154.281 118.021 154.551 118.388 154.743 118.81C154.939 119.232 155.039 119.715 155.044 120.261C155.039 121.062 154.835 121.756 154.43 122.344C154.029 122.928 153.45 123.382 152.691 123.706C151.937 124.026 151.027 124.185 149.962 124.185C148.905 124.185 147.985 124.023 147.201 123.7C146.421 123.376 145.811 122.896 145.373 122.261C144.938 121.622 144.71 120.832 144.689 119.89H147.367C147.397 120.329 147.522 120.695 147.744 120.989C147.97 121.279 148.27 121.499 148.645 121.648C149.025 121.793 149.453 121.865 149.93 121.865C150.399 121.865 150.806 121.797 151.151 121.661C151.5 121.524 151.771 121.335 151.963 121.092C152.154 120.849 152.25 120.57 152.25 120.254C152.25 119.96 152.163 119.713 151.988 119.513C151.818 119.312 151.566 119.142 151.234 119.001C150.906 118.861 150.503 118.733 150.026 118.618L148.6 118.26C147.497 117.991 146.625 117.572 145.986 117.001C145.347 116.43 145.029 115.661 145.034 114.693C145.029 113.901 145.24 113.208 145.667 112.616C146.097 112.023 146.687 111.561 147.437 111.229C148.187 110.896 149.039 110.73 149.994 110.73C150.966 110.73 151.814 110.896 152.538 111.229C153.267 111.561 153.833 112.023 154.238 112.616C154.643 113.208 154.852 113.894 154.865 114.674H152.212ZM163.15 119.82V114.182H165.873V124H163.259V122.217H163.157C162.935 122.792 162.567 123.254 162.051 123.604C161.54 123.953 160.915 124.128 160.178 124.128C159.522 124.128 158.944 123.979 158.446 123.68C157.947 123.382 157.557 122.958 157.276 122.408C156.999 121.859 156.858 121.2 156.854 120.433V114.182H159.577V119.947C159.581 120.527 159.737 120.985 160.044 121.322C160.351 121.658 160.762 121.827 161.278 121.827C161.606 121.827 161.912 121.752 162.198 121.603C162.483 121.45 162.714 121.224 162.888 120.925C163.067 120.627 163.155 120.259 163.15 119.82ZM172.488 124.192C171.482 124.192 170.617 123.979 169.892 123.553C169.172 123.122 168.618 122.526 168.23 121.763C167.847 121 167.655 120.122 167.655 119.129C167.655 118.124 167.849 117.241 168.237 116.483C168.629 115.72 169.185 115.126 169.905 114.7C170.625 114.269 171.482 114.054 172.475 114.054C173.331 114.054 174.081 114.21 174.725 114.521C175.368 114.832 175.877 115.268 176.252 115.831C176.627 116.393 176.834 117.054 176.873 117.812H174.303C174.23 117.322 174.039 116.928 173.728 116.63C173.421 116.327 173.018 116.176 172.52 116.176C172.098 116.176 171.729 116.291 171.414 116.521C171.103 116.747 170.86 117.077 170.685 117.512C170.51 117.947 170.423 118.473 170.423 119.091C170.423 119.717 170.508 120.25 170.679 120.689C170.853 121.128 171.098 121.462 171.414 121.692C171.729 121.923 172.098 122.038 172.52 122.038C172.831 122.038 173.11 121.974 173.357 121.846C173.608 121.718 173.815 121.533 173.977 121.29C174.143 121.043 174.252 120.746 174.303 120.401H176.873C176.83 121.151 176.625 121.812 176.259 122.383C175.897 122.95 175.396 123.393 174.757 123.712C174.118 124.032 173.361 124.192 172.488 124.192ZM183.052 124.192C182.046 124.192 181.181 123.979 180.457 123.553C179.737 123.122 179.183 122.526 178.795 121.763C178.411 121 178.22 120.122 178.22 119.129C178.22 118.124 178.414 117.241 178.801 116.483C179.193 115.72 179.749 115.126 180.47 114.7C181.19 114.269 182.046 114.054 183.039 114.054C183.896 114.054 184.646 114.21 185.289 114.521C185.933 114.832 186.442 115.268 186.817 115.831C187.192 116.393 187.399 117.054 187.437 117.812H184.867C184.795 117.322 184.603 116.928 184.292 116.63C183.985 116.327 183.583 116.176 183.084 116.176C182.662 116.176 182.294 116.291 181.978 116.521C181.667 116.747 181.424 117.077 181.249 117.512C181.075 117.947 180.987 118.473 180.987 119.091C180.987 119.717 181.073 120.25 181.243 120.689C181.418 121.128 181.663 121.462 181.978 121.692C182.294 121.923 182.662 122.038 183.084 122.038C183.395 122.038 183.674 121.974 183.921 121.846C184.173 121.718 184.379 121.533 184.541 121.29C184.708 121.043 184.816 120.746 184.867 120.401H187.437C187.394 121.151 187.19 121.812 186.823 122.383C186.461 122.95 185.96 123.393 185.321 123.712C184.682 124.032 183.926 124.192 183.052 124.192ZM193.655 124.192C192.645 124.192 191.776 123.987 191.047 123.578C190.322 123.165 189.764 122.581 189.372 121.827C188.98 121.068 188.784 120.171 188.784 119.136C188.784 118.126 188.98 117.239 189.372 116.477C189.764 115.714 190.316 115.119 191.028 114.693C191.744 114.267 192.583 114.054 193.546 114.054C194.194 114.054 194.797 114.158 195.355 114.367C195.918 114.572 196.408 114.881 196.825 115.294C197.247 115.707 197.575 116.227 197.81 116.854C198.044 117.476 198.161 118.205 198.161 119.04V119.788H189.871V118.1H195.598C195.598 117.708 195.513 117.361 195.342 117.058C195.172 116.756 194.935 116.519 194.633 116.349C194.335 116.174 193.987 116.087 193.591 116.087C193.178 116.087 192.811 116.183 192.491 116.374C192.176 116.562 191.929 116.815 191.75 117.135C191.571 117.45 191.479 117.802 191.475 118.19V119.794C191.475 120.28 191.565 120.7 191.744 121.053C191.927 121.407 192.185 121.68 192.517 121.871C192.849 122.063 193.244 122.159 193.7 122.159C194.002 122.159 194.279 122.116 194.531 122.031C194.782 121.946 194.997 121.818 195.176 121.648C195.355 121.477 195.491 121.268 195.585 121.021L198.104 121.188C197.976 121.793 197.714 122.321 197.317 122.773C196.925 123.22 196.418 123.57 195.796 123.821C195.178 124.068 194.464 124.192 193.655 124.192ZM208.107 116.982L205.614 117.135C205.572 116.922 205.48 116.73 205.339 116.56C205.199 116.385 205.013 116.246 204.783 116.144C204.558 116.038 204.287 115.984 203.972 115.984C203.55 115.984 203.194 116.074 202.904 116.253C202.614 116.428 202.469 116.662 202.469 116.956C202.469 117.19 202.563 117.388 202.751 117.55C202.938 117.712 203.26 117.842 203.716 117.94L205.493 118.298C206.447 118.494 207.159 118.81 207.628 119.244C208.097 119.679 208.331 120.25 208.331 120.957C208.331 121.601 208.141 122.165 207.762 122.651C207.387 123.137 206.871 123.516 206.215 123.789C205.563 124.058 204.811 124.192 203.959 124.192C202.659 124.192 201.624 123.921 200.852 123.38C200.085 122.835 199.636 122.093 199.504 121.156L202.182 121.015C202.263 121.411 202.459 121.714 202.77 121.923C203.081 122.127 203.479 122.229 203.965 122.229C204.442 122.229 204.826 122.138 205.116 121.955C205.41 121.767 205.559 121.526 205.563 121.232C205.559 120.985 205.455 120.783 205.25 120.625C205.045 120.463 204.73 120.339 204.304 120.254L202.604 119.915C201.645 119.724 200.931 119.391 200.462 118.918C199.998 118.445 199.766 117.842 199.766 117.109C199.766 116.479 199.936 115.935 200.277 115.479C200.622 115.023 201.106 114.672 201.728 114.425C202.354 114.178 203.087 114.054 203.927 114.054C205.167 114.054 206.143 114.316 206.854 114.84C207.57 115.364 207.988 116.078 208.107 116.982ZM218.215 116.982L215.722 117.135C215.679 116.922 215.588 116.73 215.447 116.56C215.306 116.385 215.121 116.246 214.891 116.144C214.665 116.038 214.394 115.984 214.079 115.984C213.657 115.984 213.301 116.074 213.012 116.253C212.722 116.428 212.577 116.662 212.577 116.956C212.577 117.19 212.671 117.388 212.858 117.55C213.046 117.712 213.367 117.842 213.823 117.94L215.6 118.298C216.555 118.494 217.267 118.81 217.735 119.244C218.204 119.679 218.438 120.25 218.438 120.957C218.438 121.601 218.249 122.165 217.869 122.651C217.494 123.137 216.979 123.516 216.323 123.789C215.671 124.058 214.919 124.192 214.066 124.192C212.767 124.192 211.731 123.921 210.96 123.38C210.193 122.835 209.743 122.093 209.611 121.156L212.289 121.015C212.37 121.411 212.566 121.714 212.877 121.923C213.188 122.127 213.587 122.229 214.073 122.229C214.55 122.229 214.933 122.138 215.223 121.955C215.517 121.767 215.666 121.526 215.671 121.232C215.666 120.985 215.562 120.783 215.357 120.625C215.153 120.463 214.838 120.339 214.411 120.254L212.711 119.915C211.752 119.724 211.039 119.391 210.57 118.918C210.105 118.445 209.873 117.842 209.873 117.109C209.873 116.479 210.044 115.935 210.384 115.479C210.73 115.023 211.213 114.672 211.835 114.425C212.462 114.178 213.195 114.054 214.034 114.054C215.274 114.054 216.25 114.316 216.962 114.84C217.678 115.364 218.095 116.078 218.215 116.982ZM225.433 114.182V116.227H219.373V114.182H225.433ZM220.76 124V113.472C220.76 112.761 220.899 112.17 221.176 111.702C221.457 111.233 221.841 110.881 222.326 110.647C222.812 110.413 223.364 110.295 223.982 110.295C224.4 110.295 224.781 110.327 225.126 110.391C225.475 110.455 225.735 110.513 225.906 110.564L225.42 112.609C225.314 112.575 225.181 112.543 225.024 112.513C224.87 112.484 224.713 112.469 224.551 112.469C224.15 112.469 223.871 112.562 223.713 112.75C223.556 112.933 223.477 113.191 223.477 113.523V124H220.76ZM233.393 119.82V114.182H236.116V124H233.501V122.217H233.399C233.177 122.792 232.809 123.254 232.293 123.604C231.782 123.953 231.157 124.128 230.42 124.128C229.764 124.128 229.187 123.979 228.688 123.68C228.189 123.382 227.8 122.958 227.518 122.408C227.241 121.859 227.101 121.2 227.096 120.433V114.182H229.819V119.947C229.824 120.527 229.979 120.985 230.286 121.322C230.593 121.658 231.004 121.827 231.52 121.827C231.848 121.827 232.155 121.752 232.44 121.603C232.726 121.45 232.956 121.224 233.131 120.925C233.309 120.627 233.397 120.259 233.393 119.82ZM241.017 110.909V124H238.294V110.909H241.017Z" fill="#007438"/>
<defs>
<clipPath id="clip0_77_304">
<rect width="90" height="90" fill="white" transform="translate(115)"/>
</clipPath>
</defs>
</svg>
