<svg width="28" height="25" viewBox="0 0 28 25" fill="none" xmlns="http://www.w3.org/2000/svg">
<g clip-path="url(#clip0_343_2303)">
<path d="M6.09411 16.6183C8.72417 19.5659 11.8902 21.8867 15.5037 23.5288C16.8795 24.1401 18.7195 24.8653 20.7694 24.9896C20.8965 24.9948 21.018 25 21.1451 25C22.5209 25 23.626 24.5545 24.5266 23.6376C24.5321 23.6324 24.5432 23.622 24.5487 23.6117C24.8692 23.2491 25.2338 22.9227 25.6151 22.5756C25.8748 22.3425 26.14 22.099 26.3941 21.8504C27.571 20.7004 27.571 19.2395 26.3831 18.1258L23.0624 15.0124C22.4988 14.4633 21.8247 14.1732 21.1175 14.1732C20.4102 14.1732 19.7306 14.4633 19.1505 15.0073L17.1724 16.8618C16.99 16.7634 16.8022 16.6753 16.6254 16.5924C16.4044 16.4888 16.1999 16.3904 16.0176 16.2816C14.2163 15.2093 12.5808 13.8106 11.0172 12.0131C10.2271 11.0754 9.69663 10.288 9.32643 9.48508C9.84581 9.04476 10.332 8.58371 10.8017 8.13303C10.9674 7.97244 11.1387 7.81185 11.31 7.65126C11.9068 7.09179 12.2272 6.44426 12.2272 5.78637C12.2272 5.12847 11.9123 4.48094 11.31 3.92147L9.66347 2.37775C9.47009 2.19644 9.28775 2.02031 9.09989 1.839C8.73522 1.48674 8.35397 1.12412 7.97825 0.797762C7.40914 0.274554 6.74058 0 6.03334 0C5.33162 0 4.65753 0.274555 4.06632 0.802942L1.99985 2.74036C1.24841 3.44488 0.822957 4.29963 0.734552 5.28906C0.629571 6.52714 0.872685 7.84293 1.50257 9.43328C2.4695 11.8939 3.92819 14.1784 6.09411 16.6183ZM2.08273 5.39784C2.14903 4.70887 2.43083 4.13386 2.96126 3.63655L5.01668 1.70949C5.33715 1.41939 5.69077 1.26917 6.03334 1.26917C6.37038 1.26917 6.71295 1.41939 7.02789 1.71985C7.39809 2.04103 7.74619 2.37775 8.12191 2.73518C8.30977 2.91649 8.50316 3.0978 8.69654 3.28429L10.3431 4.82801C10.6857 5.14919 10.8625 5.47555 10.8625 5.79673C10.8625 6.1179 10.6857 6.44426 10.3431 6.76544C10.1718 6.92603 10.0005 7.09179 9.82923 7.25238C9.31538 7.73933 8.83467 8.20037 8.30424 8.6407C8.29319 8.65106 8.28767 8.65624 8.27662 8.6666C7.81802 9.09656 7.88984 9.5058 8.00035 9.81662C8.00588 9.83216 8.0114 9.84252 8.01693 9.85806C8.44238 10.8164 9.03359 11.7281 9.95632 12.816C11.6139 14.7327 13.3599 16.2194 15.2827 17.3643C15.5203 17.5093 15.7745 17.6233 16.0121 17.7373C16.2331 17.8409 16.4375 17.9393 16.6199 18.0481C16.642 18.0584 16.6585 18.0688 16.6806 18.0792C16.863 18.1672 17.0398 18.2087 17.2166 18.2087C17.6586 18.2087 17.9459 17.9445 18.0399 17.8564L20.1063 15.919C20.4268 15.6185 20.7749 15.4579 21.1175 15.4579C21.5374 15.4579 21.88 15.7014 22.0954 15.919L25.4272 19.0375C26.0903 19.6591 26.0847 20.3326 25.4106 20.9905C25.1786 21.2236 24.9355 21.4463 24.6758 21.6794C24.289 22.0317 23.8857 22.3943 23.521 22.8036C22.8856 23.4459 22.1286 23.7464 21.1506 23.7464C21.0567 23.7464 20.9572 23.7412 20.8633 23.736C19.051 23.6272 17.3658 22.9642 16.1005 22.3995C12.6637 20.8402 9.6469 18.6283 7.14393 15.8206C5.08298 13.4946 3.69613 11.3293 2.77892 9.0085C2.20981 7.58392 1.99433 6.43908 2.08273 5.39784Z" fill="#007438"/>
</g>
<defs>
<clipPath id="clip0_343_2303">
<rect width="26.6652" height="25" fill="white" transform="translate(0.660156)"/>
</clipPath>
</defs>
</svg>
