<svg width="338" height="228" viewBox="0 0 338 228" fill="none" xmlns="http://www.w3.org/2000/svg">
<g filter="url(#filter0_d_1_18)">
<rect x="17" y="13" width="304" height="194" rx="10" fill="white"/>
</g>
<path d="M29.523 78V57.555H37.614C39.818 57.555 41.5 58.0673 42.66 59.092C43.8393 60.1167 44.429 61.5763 44.429 63.471C44.429 64.979 44.0133 66.2163 43.182 67.183C42.37 68.1497 41.21 68.778 39.702 69.068C40.5913 69.3773 41.355 70.1313 41.993 71.33L45.589 78H42.979L39.441 71.446C38.9963 70.634 38.484 70.083 37.904 69.793C37.324 69.503 36.5603 69.358 35.613 69.358H31.901V78H29.523ZM31.901 67.473H37.266C40.4753 67.473 42.08 66.139 42.08 63.471C42.08 60.8417 40.4753 59.527 37.266 59.527H31.901V67.473ZM53.0762 78.261C51.9742 78.261 50.9302 78.1063 49.9442 77.797C48.9582 77.4877 48.1462 77.0527 47.5082 76.492L48.2622 74.839C48.9582 75.3997 49.7219 75.8153 50.5532 76.086C51.4039 76.3373 52.2642 76.463 53.1342 76.463C54.2362 76.463 55.0675 76.26 55.6282 75.854C56.1889 75.448 56.4692 74.897 56.4692 74.201C56.4692 73.6597 56.2855 73.2343 55.9182 72.925C55.5509 72.5963 54.9709 72.345 54.1782 72.171L51.5392 71.591C49.1419 71.069 47.9432 69.8317 47.9432 67.879C47.9432 66.603 48.4459 65.5783 49.4512 64.805C50.4759 64.0317 51.8099 63.645 53.4532 63.645C54.4199 63.645 55.3382 63.7997 56.2082 64.109C57.0975 64.399 57.8322 64.834 58.4122 65.414L57.6292 67.067C57.0685 66.545 56.4112 66.1487 55.6572 65.878C54.9225 65.588 54.1879 65.443 53.4532 65.443C52.3705 65.443 51.5489 65.6557 50.9882 66.081C50.4275 66.5063 50.1472 67.067 50.1472 67.763C50.1472 68.8457 50.8625 69.5417 52.2932 69.851L54.9322 70.402C56.1695 70.6727 57.1072 71.1077 57.7452 71.707C58.3832 72.287 58.7022 73.0797 58.7022 74.085C58.7022 75.3803 58.1899 76.405 57.1652 77.159C56.1405 77.8937 54.7775 78.261 53.0762 78.261ZM61.7635 78V75.042H64.7215V78H61.7635ZM82.6834 78.261C80.3441 78.261 78.5654 77.362 77.3474 75.564C76.1294 73.766 75.5204 71.1657 75.5204 67.763C75.5204 64.341 76.1294 61.7407 77.3474 59.962C78.5654 58.1833 80.3441 57.294 82.6834 57.294C85.0421 57.294 86.8207 58.1833 88.0194 59.962C89.2374 61.7213 89.8464 64.312 89.8464 67.734C89.8464 71.156 89.2277 73.766 87.9904 75.564C86.7724 77.362 85.0034 78.261 82.6834 78.261ZM82.6834 76.202C84.3074 76.202 85.5061 75.5157 86.2794 74.143C87.0721 72.7703 87.4684 70.634 87.4684 67.734C87.4684 64.834 87.0817 62.717 86.3084 61.383C85.5351 60.0297 84.3267 59.353 82.6834 59.353C81.0594 59.353 79.8511 60.0297 79.0584 61.383C78.2851 62.7363 77.8984 64.8533 77.8984 67.734C77.8984 70.634 78.2851 72.7703 79.0584 74.143C79.8511 75.5157 81.0594 76.202 82.6834 76.202ZM93.1991 78V75.042H96.1571V78H93.1991ZM106.439 78.261C105.085 78.261 103.8 78.058 102.582 77.652C101.364 77.2267 100.339 76.6177 99.5077 75.825L100.378 73.94C101.325 74.7133 102.282 75.274 103.249 75.622C104.215 75.97 105.259 76.144 106.381 76.144C107.85 76.144 108.971 75.825 109.745 75.187C110.537 74.5297 110.934 73.5727 110.934 72.316C110.934 71.1173 110.537 70.2087 109.745 69.59C108.952 68.9713 107.802 68.662 106.294 68.662H103.278V66.603H106.091C107.405 66.603 108.44 66.2647 109.194 65.588C109.967 64.892 110.354 63.9447 110.354 62.746C110.354 61.6827 109.996 60.861 109.281 60.281C108.585 59.701 107.589 59.411 106.294 59.411C104.167 59.411 102.311 60.1843 100.726 61.731L99.8557 59.875C100.61 59.063 101.567 58.4347 102.727 57.99C103.906 57.526 105.143 57.294 106.439 57.294C108.411 57.294 109.948 57.758 111.05 58.686C112.171 59.614 112.732 60.8997 112.732 62.543C112.732 63.6837 112.442 64.689 111.862 65.559C111.282 66.4097 110.479 67.0283 109.455 67.415C110.673 67.7437 111.62 68.3527 112.297 69.242C112.973 70.112 113.312 71.1947 113.312 72.49C113.312 74.2493 112.693 75.651 111.456 76.695C110.238 77.739 108.565 78.261 106.439 78.261ZM124.755 78.261C122.339 78.261 120.473 77.391 119.158 75.651C117.863 73.8917 117.215 71.4363 117.215 68.285C117.215 64.747 117.94 62.0307 119.39 60.136C120.84 58.2413 122.87 57.294 125.48 57.294C126.524 57.294 127.568 57.5163 128.612 57.961C129.676 58.4057 130.546 59.005 131.222 59.759L130.352 61.615C129.637 60.8803 128.854 60.3293 128.003 59.962C127.172 59.5947 126.312 59.411 125.422 59.411C123.528 59.411 122.068 60.1167 121.043 61.528C120.038 62.9393 119.535 65.037 119.535 67.821V69.242C119.903 67.966 120.579 66.9703 121.565 66.255C122.571 65.5397 123.75 65.182 125.103 65.182C126.302 65.182 127.365 65.4623 128.293 66.023C129.221 66.5643 129.946 67.3183 130.468 68.285C130.99 69.2517 131.251 70.3633 131.251 71.62C131.251 72.9153 130.971 74.0657 130.41 75.071C129.869 76.057 129.105 76.84 128.119 77.42C127.153 77.9807 126.031 78.261 124.755 78.261ZM124.61 76.231C125.906 76.231 126.95 75.8153 127.742 74.984C128.554 74.1527 128.96 73.0603 128.96 71.707C128.96 70.373 128.554 69.2903 127.742 68.459C126.95 67.6083 125.906 67.183 124.61 67.183C123.315 67.183 122.261 67.6083 121.449 68.459C120.657 69.2903 120.26 70.373 120.26 71.707C120.26 73.0603 120.657 74.1527 121.449 74.984C122.261 75.8153 123.315 76.231 124.61 76.231Z" fill="#2D2D2D"/>
<path d="M28.2015 40V30.4825H29.133L32.7915 37.354L36.423 30.4825H37.3545V40H36.3285V32.5615L33.156 38.5285H32.427L29.214 32.575V40H28.2015ZM40.3308 42.43L41.4513 39.892L38.6838 33.439H39.8718L42.0453 38.758L44.2323 33.439H45.3798L41.4783 42.43H40.3308ZM52.6902 40L49.3557 30.4825H50.5167L53.2032 38.38L55.9572 30.4825H56.8482L59.5752 38.4475L62.3157 30.4825H63.4227L60.0882 40H59.1027L56.3892 32.17L53.6487 40H52.6902ZM66.1354 40.1215C65.6854 40.1215 65.2804 40.036 64.9204 39.865C64.5694 39.685 64.2904 39.442 64.0834 39.136C63.8764 38.83 63.7729 38.488 63.7729 38.11C63.7729 37.633 63.8944 37.255 64.1374 36.976C64.3894 36.697 64.7989 36.499 65.3659 36.382C65.9419 36.256 66.7249 36.193 67.7149 36.193H68.1469V35.7745C68.1469 35.2165 68.0299 34.816 67.7959 34.573C67.5709 34.321 67.2064 34.195 66.7024 34.195C66.3064 34.195 65.9239 34.2535 65.5549 34.3705C65.1859 34.4785 64.8079 34.6585 64.4209 34.9105L64.0429 34.114C64.3849 33.871 64.7989 33.6775 65.2849 33.5335C65.7799 33.3895 66.2524 33.3175 66.7024 33.3175C67.5484 33.3175 68.1739 33.5245 68.5789 33.9385C68.9929 34.3525 69.1999 34.996 69.1999 35.869V40H68.1739V38.866C68.0029 39.253 67.7374 39.559 67.3774 39.784C67.0264 40.009 66.6124 40.1215 66.1354 40.1215ZM66.3109 39.298C66.8509 39.298 67.2919 39.1135 67.6339 38.7445C67.9759 38.3665 68.1469 37.8895 68.1469 37.3135V36.9085H67.7284C66.9994 36.9085 66.4234 36.9445 66.0004 37.0165C65.5864 37.0795 65.2939 37.1965 65.1229 37.3675C64.9609 37.5295 64.8799 37.7545 64.8799 38.0425C64.8799 38.4115 65.0059 38.713 65.2579 38.947C65.5189 39.181 65.8699 39.298 66.3109 39.298ZM73.2401 40.1215C72.5741 40.1215 72.0701 39.928 71.7281 39.541C71.3951 39.145 71.2286 38.5735 71.2286 37.8265V30.4825H72.3221V37.7455C72.3221 38.7085 72.7046 39.19 73.4696 39.19C73.6946 39.19 73.8971 39.163 74.0771 39.109L74.0501 40.027C73.7711 40.09 73.5011 40.1215 73.2401 40.1215ZM77.2348 40.1215C76.5688 40.1215 76.0648 39.928 75.7228 39.541C75.3898 39.145 75.2233 38.5735 75.2233 37.8265V30.4825H76.3168V37.7455C76.3168 38.7085 76.6993 39.19 77.4643 39.19C77.6893 39.19 77.8918 39.163 78.0718 39.109L78.0448 40.027C77.7658 40.09 77.4958 40.1215 77.2348 40.1215ZM82.1085 40.1215C81.0735 40.1215 80.2545 39.82 79.6515 39.217C79.0485 38.605 78.747 37.777 78.747 36.733C78.747 36.058 78.882 35.464 79.152 34.951C79.422 34.429 79.791 34.0285 80.259 33.7495C80.736 33.4615 81.285 33.3175 81.906 33.3175C82.797 33.3175 83.4945 33.6055 83.9985 34.1815C84.5025 34.7485 84.7545 35.5315 84.7545 36.5305V36.949H79.8135C79.8495 37.696 80.0655 38.2675 80.4615 38.6635C80.8575 39.0505 81.4065 39.244 82.1085 39.244C82.5045 39.244 82.8825 39.1855 83.2425 39.0685C83.6025 38.9425 83.9445 38.74 84.2685 38.461L84.6465 39.2305C84.3495 39.5095 83.9715 39.73 83.5125 39.892C83.0535 40.045 82.5855 40.1215 82.1085 40.1215ZM81.933 34.1275C81.312 34.1275 80.8215 34.321 80.4615 34.708C80.1015 35.095 79.89 35.6035 79.827 36.2335H83.8095C83.7825 35.5675 83.607 35.05 83.283 34.681C82.968 34.312 82.518 34.1275 81.933 34.1275ZM88.9695 40.1215C88.1955 40.1215 87.615 39.919 87.228 39.514C86.841 39.1 86.6475 38.506 86.6475 37.732V34.2895H85.365V33.439H86.6475V31.4275H87.741V33.439H89.82V34.2895H87.741V37.624C87.741 38.137 87.849 38.5285 88.065 38.7985C88.281 39.0595 88.632 39.19 89.118 39.19C89.262 39.19 89.406 39.172 89.55 39.136C89.694 39.1 89.8245 39.064 89.9415 39.028L90.1305 39.865C90.0135 39.928 89.8425 39.9865 89.6175 40.0405C89.3925 40.0945 89.1765 40.1215 88.9695 40.1215Z" fill="#858585"/>
<path d="M257.73 175V168.343H255.042V167.597H261.29V168.343H258.602V175H257.73ZM263.436 175.095C262.939 175.095 262.508 174.986 262.144 174.769C261.78 174.552 261.497 174.247 261.294 173.855C261.098 173.456 261 172.987 261 172.448C261 171.909 261.098 171.444 261.294 171.052C261.497 170.653 261.78 170.345 262.144 170.128C262.508 169.911 262.939 169.802 263.436 169.802C263.926 169.802 264.353 169.911 264.717 170.128C265.088 170.345 265.371 170.653 265.567 171.052C265.77 171.444 265.872 171.909 265.872 172.448C265.872 172.987 265.77 173.456 265.567 173.855C265.371 174.247 265.088 174.552 264.717 174.769C264.353 174.986 263.926 175.095 263.436 175.095ZM263.436 174.412C263.912 174.412 264.293 174.244 264.58 173.908C264.867 173.565 265.011 173.078 265.011 172.448C265.011 171.811 264.867 171.325 264.58 170.989C264.293 170.653 263.912 170.485 263.436 170.485C262.953 170.485 262.568 170.653 262.281 170.989C262.001 171.325 261.861 171.811 261.861 172.448C261.861 173.078 262.001 173.565 262.281 173.908C262.568 174.244 262.953 174.412 263.436 174.412ZM269.145 175.095C268.543 175.095 268.092 174.937 267.791 174.622C267.49 174.3 267.339 173.838 267.339 173.236V170.558H266.342V169.897H267.339V168.332H268.19V169.897H269.807V170.558H268.19V173.152C268.19 173.551 268.274 173.855 268.442 174.065C268.61 174.268 268.883 174.37 269.261 174.37C269.373 174.37 269.485 174.356 269.597 174.328C269.709 174.3 269.81 174.272 269.901 174.244L270.048 174.895C269.957 174.944 269.824 174.989 269.649 175.032C269.474 175.074 269.306 175.095 269.145 175.095ZM272.375 175.095C272.025 175.095 271.71 175.028 271.43 174.895C271.157 174.755 270.94 174.566 270.779 174.328C270.618 174.09 270.538 173.824 270.538 173.53C270.538 173.159 270.632 172.865 270.821 172.648C271.017 172.431 271.336 172.277 271.777 172.186C272.225 172.088 272.834 172.039 273.604 172.039H273.94V171.713C273.94 171.279 273.849 170.968 273.667 170.779C273.492 170.583 273.208 170.485 272.816 170.485C272.508 170.485 272.211 170.53 271.924 170.621C271.637 170.705 271.343 170.845 271.042 171.041L270.748 170.422C271.014 170.233 271.336 170.082 271.714 169.97C272.099 169.858 272.466 169.802 272.816 169.802C273.474 169.802 273.961 169.963 274.276 170.285C274.598 170.607 274.759 171.108 274.759 171.787V175H273.961V174.118C273.828 174.419 273.621 174.657 273.341 174.832C273.068 175.007 272.746 175.095 272.375 175.095ZM272.512 174.454C272.932 174.454 273.275 174.31 273.541 174.023C273.807 173.729 273.94 173.358 273.94 172.91V172.595H273.614C273.047 172.595 272.599 172.623 272.27 172.679C271.948 172.728 271.721 172.819 271.588 172.952C271.462 173.078 271.399 173.253 271.399 173.477C271.399 173.764 271.497 173.999 271.693 174.181C271.896 174.363 272.169 174.454 272.512 174.454ZM277.901 175.095C277.383 175.095 276.991 174.944 276.725 174.643C276.466 174.335 276.337 173.89 276.337 173.309V167.597H277.187V173.246C277.187 173.995 277.485 174.37 278.08 174.37C278.255 174.37 278.412 174.349 278.552 174.307L278.531 175.021C278.314 175.07 278.104 175.095 277.901 175.095ZM282.035 168.626V167.671H283.085V168.626H282.035ZM282.14 175V169.897H282.991V175H282.14ZM284.581 175V169.897H285.41V170.768C285.578 170.446 285.816 170.205 286.124 170.044C286.432 169.883 286.779 169.802 287.164 169.802C288.375 169.802 288.98 170.474 288.98 171.818V175H288.13V171.871C288.13 171.395 288.035 171.048 287.846 170.831C287.664 170.607 287.37 170.495 286.964 170.495C286.495 170.495 286.121 170.642 285.841 170.936C285.568 171.223 285.431 171.608 285.431 172.091V175H284.581ZM292.711 175.095C292.2 175.095 291.759 174.986 291.388 174.769C291.017 174.545 290.73 174.233 290.527 173.834C290.331 173.428 290.233 172.956 290.233 172.417C290.233 171.605 290.454 170.968 290.895 170.506C291.336 170.037 291.941 169.802 292.711 169.802C293.026 169.802 293.338 169.858 293.646 169.97C293.954 170.082 294.209 170.24 294.412 170.443L294.118 171.062C293.915 170.866 293.691 170.723 293.446 170.632C293.208 170.541 292.981 170.495 292.764 170.495C292.232 170.495 291.822 170.663 291.535 170.999C291.248 171.328 291.105 171.804 291.105 172.427C291.105 173.036 291.248 173.519 291.535 173.876C291.822 174.226 292.232 174.401 292.764 174.401C292.981 174.401 293.208 174.356 293.446 174.265C293.691 174.174 293.915 174.027 294.118 173.824L294.412 174.443C294.209 174.646 293.95 174.807 293.635 174.926C293.327 175.039 293.019 175.095 292.711 175.095ZM297.427 175.095C296.93 175.095 296.5 174.986 296.136 174.769C295.772 174.552 295.488 174.247 295.285 173.855C295.089 173.456 294.991 172.987 294.991 172.448C294.991 171.909 295.089 171.444 295.285 171.052C295.488 170.653 295.772 170.345 296.136 170.128C296.5 169.911 296.93 169.802 297.427 169.802C297.917 169.802 298.344 169.911 298.708 170.128C299.079 170.345 299.363 170.653 299.559 171.052C299.762 171.444 299.863 171.909 299.863 172.448C299.863 172.987 299.762 173.456 299.559 173.855C299.363 174.247 299.079 174.552 298.708 174.769C298.344 174.986 297.917 175.095 297.427 175.095ZM297.427 174.412C297.903 174.412 298.285 174.244 298.572 173.908C298.859 173.565 299.002 173.078 299.002 172.448C299.002 171.811 298.859 171.325 298.572 170.989C298.285 170.653 297.903 170.485 297.427 170.485C296.944 170.485 296.559 170.653 296.272 170.989C295.992 171.325 295.852 171.811 295.852 172.448C295.852 173.078 295.992 173.565 296.272 173.908C296.559 174.244 296.944 174.412 297.427 174.412ZM301.162 175V169.897H301.991V170.758C302.145 170.45 302.359 170.215 302.632 170.054C302.905 169.886 303.223 169.802 303.587 169.802C304.385 169.802 304.896 170.149 305.12 170.842C305.274 170.52 305.502 170.268 305.803 170.086C306.104 169.897 306.45 169.802 306.842 169.802C307.976 169.802 308.543 170.474 308.543 171.818V175H307.693V171.86C307.693 171.391 307.609 171.048 307.441 170.831C307.28 170.607 307.01 170.495 306.632 170.495C306.219 170.495 305.89 170.642 305.645 170.936C305.4 171.23 305.278 171.622 305.278 172.112V175H304.427V171.86C304.427 171.391 304.343 171.048 304.175 170.831C304.014 170.607 303.745 170.495 303.367 170.495C302.947 170.495 302.614 170.642 302.369 170.936C302.131 171.23 302.012 171.622 302.012 172.112V175H301.162ZM312.433 175.095C311.628 175.095 310.991 174.86 310.522 174.391C310.053 173.915 309.818 173.271 309.818 172.459C309.818 171.934 309.923 171.472 310.133 171.073C310.343 170.667 310.63 170.355 310.994 170.138C311.365 169.914 311.792 169.802 312.275 169.802C312.968 169.802 313.511 170.026 313.903 170.474C314.295 170.915 314.491 171.524 314.491 172.302V172.627H310.648C310.676 173.208 310.844 173.652 311.152 173.96C311.46 174.261 311.887 174.412 312.433 174.412C312.741 174.412 313.035 174.366 313.315 174.275C313.595 174.177 313.861 174.02 314.113 173.803L314.407 174.401C314.176 174.618 313.882 174.79 313.525 174.916C313.168 175.035 312.804 175.095 312.433 175.095ZM312.296 170.432C311.813 170.432 311.432 170.583 311.152 170.884C310.872 171.185 310.707 171.58 310.658 172.07H313.756C313.735 171.552 313.598 171.15 313.346 170.863C313.101 170.576 312.751 170.432 312.296 170.432Z" fill="#919191"/>
<path d="M24.73 175V168.343H22.042V167.597H28.2895V168.343H25.6015V175H24.73ZM30.4356 175.095C29.9386 175.095 29.5081 174.986 29.1441 174.769C28.7801 174.552 28.4966 174.247 28.2936 173.855C28.0976 173.456 27.9996 172.987 27.9996 172.448C27.9996 171.909 28.0976 171.444 28.2936 171.052C28.4966 170.653 28.7801 170.345 29.1441 170.128C29.5081 169.911 29.9386 169.802 30.4356 169.802C30.9256 169.802 31.3526 169.911 31.7166 170.128C32.0876 170.345 32.3711 170.653 32.5671 171.052C32.7701 171.444 32.8716 171.909 32.8716 172.448C32.8716 172.987 32.7701 173.456 32.5671 173.855C32.3711 174.247 32.0876 174.552 31.7166 174.769C31.3526 174.986 30.9256 175.095 30.4356 175.095ZM30.4356 174.412C30.9116 174.412 31.2931 174.244 31.5801 173.908C31.8671 173.565 32.0106 173.078 32.0106 172.448C32.0106 171.811 31.8671 171.325 31.5801 170.989C31.2931 170.653 30.9116 170.485 30.4356 170.485C29.9526 170.485 29.5676 170.653 29.2806 170.989C29.0006 171.325 28.8606 171.811 28.8606 172.448C28.8606 173.078 29.0006 173.565 29.2806 173.908C29.5676 174.244 29.9526 174.412 30.4356 174.412ZM36.1453 175.095C35.5433 175.095 35.0918 174.937 34.7908 174.622C34.4898 174.3 34.3393 173.838 34.3393 173.236V170.558H33.3418V169.897H34.3393V168.332H35.1898V169.897H36.8068V170.558H35.1898V173.152C35.1898 173.551 35.2738 173.855 35.4418 174.065C35.6098 174.268 35.8828 174.37 36.2608 174.37C36.3728 174.37 36.4848 174.356 36.5968 174.328C36.7088 174.3 36.8103 174.272 36.9013 174.244L37.0483 174.895C36.9573 174.944 36.8243 174.989 36.6493 175.032C36.4743 175.074 36.3063 175.095 36.1453 175.095ZM39.3752 175.095C39.0252 175.095 38.7102 175.028 38.4302 174.895C38.1572 174.755 37.9402 174.566 37.7792 174.328C37.6182 174.09 37.5377 173.824 37.5377 173.53C37.5377 173.159 37.6322 172.865 37.8212 172.648C38.0172 172.431 38.3357 172.277 38.7767 172.186C39.2247 172.088 39.8337 172.039 40.6037 172.039H40.9397V171.713C40.9397 171.279 40.8487 170.968 40.6667 170.779C40.4917 170.583 40.2082 170.485 39.8162 170.485C39.5082 170.485 39.2107 170.53 38.9237 170.621C38.6367 170.705 38.3427 170.845 38.0417 171.041L37.7477 170.422C38.0137 170.233 38.3357 170.082 38.7137 169.97C39.0987 169.858 39.4662 169.802 39.8162 169.802C40.4742 169.802 40.9607 169.963 41.2757 170.285C41.5977 170.607 41.7587 171.108 41.7587 171.787V175H40.9607V174.118C40.8277 174.419 40.6212 174.657 40.3412 174.832C40.0682 175.007 39.7462 175.095 39.3752 175.095ZM39.5117 174.454C39.9317 174.454 40.2747 174.31 40.5407 174.023C40.8067 173.729 40.9397 173.358 40.9397 172.91V172.595H40.6142C40.0472 172.595 39.5992 172.623 39.2702 172.679C38.9482 172.728 38.7207 172.819 38.5877 172.952C38.4617 173.078 38.3987 173.253 38.3987 173.477C38.3987 173.764 38.4967 173.999 38.6927 174.181C38.8957 174.363 39.1687 174.454 39.5117 174.454ZM44.9011 175.095C44.3831 175.095 43.9911 174.944 43.7251 174.643C43.4661 174.335 43.3366 173.89 43.3366 173.309V167.597H44.1871V173.246C44.1871 173.995 44.4846 174.37 45.0796 174.37C45.2546 174.37 45.4121 174.349 45.5521 174.307L45.5311 175.021C45.3141 175.07 45.1041 175.095 44.9011 175.095ZM50.8623 175.095C50.4633 175.095 50.0853 175.039 49.7283 174.926C49.3713 174.814 49.0773 174.657 48.8463 174.454L49.1193 173.855C49.3713 174.058 49.6478 174.209 49.9488 174.307C50.2568 174.398 50.5683 174.443 50.8833 174.443C51.2823 174.443 51.5833 174.37 51.7863 174.223C51.9893 174.076 52.0908 173.876 52.0908 173.624C52.0908 173.428 52.0243 173.274 51.8913 173.162C51.7583 173.043 51.5483 172.952 51.2613 172.889L50.3058 172.679C49.4378 172.49 49.0038 172.042 49.0038 171.335C49.0038 170.873 49.1858 170.502 49.5498 170.222C49.9208 169.942 50.4038 169.802 50.9988 169.802C51.3488 169.802 51.6813 169.858 51.9963 169.97C52.3183 170.075 52.5843 170.233 52.7943 170.443L52.5108 171.041C52.3078 170.852 52.0698 170.709 51.7968 170.611C51.5308 170.506 51.2648 170.453 50.9988 170.453C50.6068 170.453 50.3093 170.53 50.1063 170.684C49.9033 170.838 49.8018 171.041 49.8018 171.293C49.8018 171.685 50.0608 171.937 50.5788 172.049L51.5343 172.249C51.9823 172.347 52.3218 172.504 52.5528 172.721C52.7838 172.931 52.8993 173.218 52.8993 173.582C52.8993 174.051 52.7138 174.422 52.3428 174.695C51.9718 174.962 51.4783 175.095 50.8623 175.095ZM54.1955 176.89V169.897H55.025V170.81C55.179 170.495 55.4065 170.25 55.7075 170.075C56.0155 169.893 56.3725 169.802 56.7785 169.802C57.2335 169.802 57.629 169.911 57.965 170.128C58.308 170.338 58.5705 170.642 58.7525 171.041C58.9415 171.433 59.036 171.902 59.036 172.448C59.036 172.987 58.9415 173.456 58.7525 173.855C58.5705 174.247 58.308 174.552 57.965 174.769C57.629 174.986 57.2335 175.095 56.7785 175.095C56.3865 175.095 56.0365 175.007 55.7285 174.832C55.4205 174.657 55.193 174.415 55.046 174.107V176.89H54.1955ZM56.6 174.412C57.076 174.412 57.4575 174.244 57.7445 173.908C58.0315 173.565 58.175 173.078 58.175 172.448C58.175 171.811 58.0315 171.325 57.7445 170.989C57.4575 170.653 57.076 170.485 56.6 170.485C56.124 170.485 55.7425 170.653 55.4555 170.989C55.1685 171.325 55.025 171.811 55.025 172.448C55.025 173.078 55.1685 173.565 55.4555 173.908C55.7425 174.244 56.124 174.412 56.6 174.412ZM62.6165 175.095C61.8115 175.095 61.1745 174.86 60.7055 174.391C60.2365 173.915 60.002 173.271 60.002 172.459C60.002 171.934 60.107 171.472 60.317 171.073C60.527 170.667 60.814 170.355 61.178 170.138C61.549 169.914 61.976 169.802 62.459 169.802C63.152 169.802 63.6945 170.026 64.0865 170.474C64.4785 170.915 64.6745 171.524 64.6745 172.302V172.627H60.8315C60.8595 173.208 61.0275 173.652 61.3355 173.96C61.6435 174.261 62.0705 174.412 62.6165 174.412C62.9245 174.412 63.2185 174.366 63.4985 174.275C63.7785 174.177 64.0445 174.02 64.2965 173.803L64.5905 174.401C64.3595 174.618 64.0655 174.79 63.7085 174.916C63.3515 175.035 62.9875 175.095 62.6165 175.095ZM62.48 170.432C61.997 170.432 61.6155 170.583 61.3355 170.884C61.0555 171.185 60.891 171.58 60.842 172.07H63.9395C63.9185 171.552 63.782 171.15 63.53 170.863C63.285 170.576 62.935 170.432 62.48 170.432ZM65.9054 175V169.897H66.7349V170.768C66.9029 170.446 67.1409 170.205 67.4489 170.044C67.7569 169.883 68.1034 169.802 68.4884 169.802C69.6994 169.802 70.3049 170.474 70.3049 171.818V175H69.4544V171.871C69.4544 171.395 69.3599 171.048 69.1709 170.831C68.9889 170.607 68.6949 170.495 68.2889 170.495C67.8199 170.495 67.4454 170.642 67.1654 170.936C66.8924 171.223 66.7559 171.608 66.7559 172.091V175H65.9054ZM73.9207 175.095C73.3187 175.095 72.8672 174.937 72.5662 174.622C72.2652 174.3 72.1147 173.838 72.1147 173.236V170.558H71.1172V169.897H72.1147V168.332H72.9652V169.897H74.5822V170.558H72.9652V173.152C72.9652 173.551 73.0492 173.855 73.2172 174.065C73.3852 174.268 73.6582 174.37 74.0362 174.37C74.1482 174.37 74.2602 174.356 74.3722 174.328C74.4842 174.3 74.5857 174.272 74.6767 174.244L74.8237 174.895C74.7327 174.944 74.5997 174.989 74.4247 175.032C74.2497 175.074 74.0817 175.095 73.9207 175.095Z" fill="#949494"/>
<path d="M242.349 154V143.072H246.673C247.851 143.072 248.75 143.346 249.37 143.894C250 144.442 250.316 145.222 250.316 146.234C250.316 147.04 250.093 147.702 249.649 148.218C249.215 148.735 248.595 149.071 247.789 149.226C248.264 149.391 248.673 149.794 249.014 150.435L250.936 154H249.54L247.65 150.497C247.412 150.063 247.138 149.768 246.828 149.613C246.518 149.458 246.11 149.381 245.604 149.381H243.62V154H242.349ZM243.62 148.373H246.487C248.202 148.373 249.06 147.66 249.06 146.234C249.06 144.829 248.202 144.126 246.487 144.126H243.62V148.373ZM254.937 154.14C254.348 154.14 253.79 154.057 253.263 153.891C252.736 153.726 252.302 153.494 251.961 153.194L252.364 152.31C252.736 152.61 253.144 152.832 253.589 152.977C254.043 153.111 254.503 153.178 254.968 153.178C255.557 153.178 256.002 153.07 256.301 152.853C256.601 152.636 256.751 152.341 256.751 151.969C256.751 151.68 256.653 151.453 256.456 151.287C256.26 151.112 255.95 150.977 255.526 150.884L254.116 150.574C252.834 150.295 252.194 149.634 252.194 148.59C252.194 147.908 252.462 147.361 253 146.947C253.547 146.534 254.26 146.327 255.139 146.327C255.655 146.327 256.146 146.41 256.611 146.575C257.087 146.73 257.479 146.963 257.789 147.273L257.371 148.156C257.071 147.877 256.72 147.666 256.317 147.521C255.924 147.366 255.531 147.288 255.139 147.288C254.56 147.288 254.121 147.402 253.821 147.629C253.522 147.857 253.372 148.156 253.372 148.528C253.372 149.107 253.754 149.479 254.519 149.644L255.929 149.939C256.591 150.084 257.092 150.316 257.433 150.636C257.774 150.946 257.944 151.37 257.944 151.907C257.944 152.6 257.67 153.147 257.123 153.55C256.575 153.943 255.847 154.14 254.937 154.14ZM259.581 154V152.419H261.162V154H259.581ZM268.034 154V152.915H270.529V144.607L268.561 145.847L268.018 144.901L270.886 143.072H271.8V152.915H274.141V154H268.034ZM277.033 155.767L276.444 155.318C276.672 155.08 276.832 154.853 276.925 154.636C277.028 154.429 277.095 154.217 277.126 154H276.382V152.419H277.963V153.535C277.963 153.959 277.896 154.351 277.762 154.713C277.627 155.075 277.385 155.426 277.033 155.767ZM283.583 154.14C282.332 154.14 281.382 153.659 280.731 152.698C280.08 151.737 279.754 150.347 279.754 148.528C279.754 146.699 280.08 145.31 280.731 144.359C281.382 143.408 282.332 142.933 283.583 142.933C284.843 142.933 285.794 143.408 286.435 144.359C287.086 145.299 287.411 146.684 287.411 148.513C287.411 150.342 287.08 151.737 286.419 152.698C285.768 153.659 284.823 154.14 283.583 154.14ZM283.583 153.039C284.451 153.039 285.091 152.672 285.505 151.938C285.928 151.205 286.14 150.063 286.14 148.513C286.14 146.963 285.933 145.831 285.52 145.118C285.107 144.395 284.461 144.033 283.583 144.033C282.715 144.033 282.069 144.395 281.645 145.118C281.232 145.842 281.025 146.973 281.025 148.513C281.025 150.063 281.232 151.205 281.645 151.938C282.069 152.672 282.715 153.039 283.583 153.039ZM292.877 154.14C291.626 154.14 290.676 153.659 290.025 152.698C289.374 151.737 289.048 150.347 289.048 148.528C289.048 146.699 289.374 145.31 290.025 144.359C290.676 143.408 291.626 142.933 292.877 142.933C294.137 142.933 295.088 143.408 295.729 144.359C296.38 145.299 296.705 146.684 296.705 148.513C296.705 150.342 296.374 151.737 295.713 152.698C295.062 153.659 294.117 154.14 292.877 154.14ZM292.877 153.039C293.745 153.039 294.385 152.672 294.799 151.938C295.222 151.205 295.434 150.063 295.434 148.513C295.434 146.963 295.227 145.831 294.814 145.118C294.401 144.395 293.755 144.033 292.877 144.033C292.009 144.033 291.363 144.395 290.939 145.118C290.526 145.842 290.319 146.973 290.319 148.513C290.319 150.063 290.526 151.205 290.939 151.938C291.363 152.672 292.009 153.039 292.877 153.039ZM302.171 154.14C300.92 154.14 299.97 153.659 299.319 152.698C298.668 151.737 298.342 150.347 298.342 148.528C298.342 146.699 298.668 145.31 299.319 144.359C299.97 143.408 300.92 142.933 302.171 142.933C303.431 142.933 304.382 143.408 305.023 144.359C305.674 145.299 305.999 146.684 305.999 148.513C305.999 150.342 305.668 151.737 305.007 152.698C304.356 153.659 303.411 154.14 302.171 154.14ZM302.171 153.039C303.039 153.039 303.679 152.672 304.093 151.938C304.516 151.205 304.728 150.063 304.728 148.513C304.728 146.963 304.521 145.831 304.108 145.118C303.695 144.395 303.049 144.033 302.171 144.033C301.303 144.033 300.657 144.395 300.233 145.118C299.82 145.842 299.613 146.973 299.613 148.513C299.613 150.063 299.82 151.205 300.233 151.938C300.657 152.672 301.303 153.039 302.171 153.039Z" fill="#3F3F3F"/>
<path d="M24.4355 154V142.367H29.039C30.293 142.367 31.25 142.659 31.91 143.242C32.581 143.825 32.9165 144.655 32.9165 145.733C32.9165 146.591 32.68 147.295 32.207 147.845C31.745 148.395 31.085 148.753 30.227 148.918C30.733 149.094 31.1675 149.523 31.5305 150.205L33.5765 154H32.0915L30.0785 150.271C29.8255 149.809 29.534 149.495 29.204 149.33C28.874 149.165 28.4395 149.083 27.9005 149.083H25.7885V154H24.4355ZM25.7885 148.01H28.841C30.667 148.01 31.58 147.251 31.58 145.733C31.58 144.237 30.667 143.489 28.841 143.489H25.7885V148.01ZM37.8365 154.149C37.2095 154.149 36.6155 154.061 36.0545 153.884C35.4935 153.708 35.0315 153.461 34.6685 153.142L35.0975 152.201C35.4935 152.52 35.928 152.757 36.401 152.911C36.885 153.054 37.3745 153.125 37.8695 153.125C38.4965 153.125 38.9695 153.01 39.2885 152.779C39.6075 152.548 39.767 152.234 39.767 151.838C39.767 151.53 39.6625 151.288 39.4535 151.112C39.2445 150.925 38.9145 150.782 38.4635 150.683L36.962 150.353C35.598 150.056 34.916 149.352 34.916 148.241C34.916 147.515 35.202 146.932 35.774 146.492C36.357 146.052 37.116 145.832 38.051 145.832C38.601 145.832 39.1235 145.92 39.6185 146.096C40.1245 146.261 40.5425 146.509 40.8725 146.839L40.427 147.779C40.108 147.482 39.734 147.257 39.305 147.103C38.887 146.938 38.469 146.855 38.051 146.855C37.435 146.855 36.9675 146.976 36.6485 147.218C36.3295 147.46 36.17 147.779 36.17 148.175C36.17 148.791 36.577 149.187 37.391 149.363L38.8925 149.677C39.5965 149.831 40.13 150.078 40.493 150.419C40.856 150.749 41.0375 151.2 41.0375 151.772C41.0375 152.509 40.746 153.092 40.163 153.521C39.58 153.94 38.8045 154.149 37.8365 154.149ZM42.7792 154V152.317H44.4622V154H42.7792ZM51.7779 154V152.845H54.4344V144.001L52.3389 145.321L51.7614 144.314L54.8139 142.367H55.7874V152.845H58.2789V154H51.7779ZM61.358 155.881L60.731 155.403C60.973 155.15 61.1435 154.908 61.2425 154.677C61.3525 154.457 61.424 154.231 61.457 154H60.665V152.317H62.348V153.505C62.348 153.956 62.2765 154.374 62.1335 154.759C61.9905 155.144 61.732 155.518 61.358 155.881ZM68.3299 154.149C66.9989 154.149 65.9869 153.637 65.2939 152.614C64.6009 151.591 64.2544 150.111 64.2544 148.175C64.2544 146.228 64.6009 144.749 65.2939 143.737C65.9869 142.725 66.9989 142.219 68.3299 142.219C69.6719 142.219 70.6839 142.725 71.3659 143.737C72.0589 144.738 72.4054 146.212 72.4054 148.159C72.4054 150.106 72.0534 151.591 71.3494 152.614C70.6564 153.637 69.6499 154.149 68.3299 154.149ZM68.3299 152.977C69.2539 152.977 69.9359 152.586 70.3759 151.805C70.8269 151.024 71.0524 149.809 71.0524 148.159C71.0524 146.509 70.8324 145.304 70.3924 144.545C69.9524 143.775 69.2649 143.39 68.3299 143.39C67.4059 143.39 66.7184 143.775 66.2674 144.545C65.8274 145.315 65.6074 146.52 65.6074 148.159C65.6074 149.809 65.8274 151.024 66.2674 151.805C66.7184 152.586 67.4059 152.977 68.3299 152.977ZM79.4939 154V151.508H74.1314V150.485L79.7249 142.367H80.8634V150.353H82.5959V151.508H80.8634V154H79.4939ZM79.4939 150.353V144.595L75.5339 150.353H79.4939ZM88.117 154.149C86.808 154.149 85.7905 153.868 85.0645 153.307C84.3385 152.735 83.9755 151.937 83.9755 150.914C83.9755 150.199 84.168 149.589 84.553 149.083C84.949 148.577 85.4715 148.23 86.1205 148.043C85.5375 147.823 85.081 147.471 84.751 146.987C84.421 146.503 84.256 145.948 84.256 145.321C84.256 144.342 84.6025 143.583 85.2955 143.044C85.9995 142.494 86.94 142.219 88.117 142.219C89.294 142.219 90.2345 142.494 90.9385 143.044C91.6425 143.583 91.9945 144.342 91.9945 145.321C91.9945 145.948 91.824 146.509 91.483 147.004C91.153 147.488 90.702 147.834 90.13 148.043C90.779 148.23 91.296 148.577 91.681 149.083C92.066 149.589 92.2585 150.199 92.2585 150.914C92.2585 151.937 91.8955 152.735 91.1695 153.307C90.4435 153.868 89.426 154.149 88.117 154.149ZM88.117 147.548C88.92 147.548 89.547 147.361 89.998 146.987C90.46 146.602 90.691 146.085 90.691 145.436C90.691 144.776 90.46 144.265 89.998 143.902C89.547 143.528 88.92 143.341 88.117 143.341C87.314 143.341 86.687 143.528 86.236 143.902C85.785 144.265 85.5595 144.776 85.5595 145.436C85.5595 146.085 85.785 146.602 86.236 146.987C86.687 147.361 87.314 147.548 88.117 147.548ZM88.117 153.026C90.009 153.026 90.955 152.295 90.955 150.832C90.955 149.391 90.009 148.67 88.117 148.67C86.225 148.67 85.279 149.391 85.279 150.832C85.279 152.295 86.225 153.026 88.117 153.026Z" fill="#414141"/>
<path d="M242.51 126V117.441H239.054V116.482H247.087V117.441H243.631V126H242.51ZM248.147 126V116.482H249.241V120.519C249.457 120.123 249.758 119.826 250.145 119.628C250.541 119.421 250.982 119.317 251.468 119.317C253.025 119.317 253.804 120.181 253.804 121.909V126H252.71V121.977C252.71 121.365 252.589 120.919 252.346 120.64C252.112 120.352 251.734 120.208 251.212 120.208C250.609 120.208 250.127 120.397 249.767 120.775C249.416 121.144 249.241 121.639 249.241 122.26V126H248.147ZM255.685 117.805V116.577H257.035V117.805H255.685ZM255.82 126V119.439H256.913V126H255.82ZM261.172 126.122C260.659 126.122 260.173 126.05 259.714 125.905C259.255 125.761 258.877 125.559 258.58 125.298L258.931 124.528C259.255 124.789 259.61 124.983 259.997 125.109C260.393 125.226 260.794 125.284 261.199 125.284C261.712 125.284 262.099 125.19 262.36 125.001C262.621 124.812 262.751 124.555 262.751 124.231C262.751 123.979 262.666 123.781 262.495 123.637C262.324 123.484 262.054 123.367 261.685 123.286L260.456 123.016C259.34 122.773 258.782 122.197 258.782 121.288C258.782 120.694 259.016 120.217 259.484 119.857C259.961 119.497 260.582 119.317 261.347 119.317C261.797 119.317 262.225 119.389 262.63 119.533C263.044 119.668 263.386 119.871 263.656 120.141L263.291 120.91C263.03 120.667 262.724 120.483 262.373 120.357C262.031 120.222 261.689 120.154 261.347 120.154C260.843 120.154 260.461 120.253 260.2 120.451C259.939 120.649 259.808 120.91 259.808 121.234C259.808 121.738 260.141 122.062 260.807 122.206L262.036 122.463C262.612 122.589 263.048 122.791 263.345 123.07C263.642 123.34 263.791 123.709 263.791 124.177C263.791 124.78 263.552 125.257 263.075 125.608C262.598 125.951 261.964 126.122 261.172 126.122ZM268.951 126V119.439H270.018V120.546C270.216 120.15 270.49 119.848 270.841 119.641C271.192 119.425 271.602 119.317 272.07 119.317C273.096 119.317 273.753 119.763 274.041 120.654C274.239 120.24 274.531 119.916 274.918 119.682C275.305 119.439 275.751 119.317 276.255 119.317C277.713 119.317 278.442 120.181 278.442 121.909V126H277.348V121.963C277.348 121.36 277.24 120.919 277.024 120.64C276.817 120.352 276.471 120.208 275.985 120.208C275.454 120.208 275.031 120.397 274.716 120.775C274.401 121.153 274.243 121.657 274.243 122.287V126H273.15V121.963C273.15 121.36 273.042 120.919 272.826 120.64C272.619 120.352 272.272 120.208 271.786 120.208C271.246 120.208 270.819 120.397 270.504 120.775C270.198 121.153 270.045 121.657 270.045 122.287V126H268.951ZM283.213 126.122C282.574 126.122 282.021 125.982 281.553 125.703C281.085 125.424 280.72 125.032 280.459 124.528C280.207 124.015 280.081 123.412 280.081 122.719C280.081 122.026 280.207 121.428 280.459 120.924C280.72 120.411 281.085 120.015 281.553 119.736C282.021 119.457 282.574 119.317 283.213 119.317C283.843 119.317 284.392 119.457 284.86 119.736C285.337 120.015 285.702 120.411 285.954 120.924C286.215 121.428 286.345 122.026 286.345 122.719C286.345 123.412 286.215 124.015 285.954 124.528C285.702 125.032 285.337 125.424 284.86 125.703C284.392 125.982 283.843 126.122 283.213 126.122ZM283.213 125.244C283.825 125.244 284.316 125.028 284.685 124.596C285.054 124.155 285.238 123.529 285.238 122.719C285.238 121.9 285.054 121.275 284.685 120.843C284.316 120.411 283.825 120.195 283.213 120.195C282.592 120.195 282.097 120.411 281.728 120.843C281.368 121.275 281.188 121.9 281.188 122.719C281.188 123.529 281.368 124.155 281.728 124.596C282.097 125.028 282.592 125.244 283.213 125.244ZM287.988 126V119.439H289.054V120.559C289.27 120.145 289.576 119.835 289.972 119.628C290.368 119.421 290.814 119.317 291.309 119.317C292.866 119.317 293.644 120.181 293.644 121.909V126H292.551V121.977C292.551 121.365 292.429 120.919 292.186 120.64C291.952 120.352 291.574 120.208 291.052 120.208C290.449 120.208 289.968 120.397 289.608 120.775C289.257 121.144 289.081 121.639 289.081 122.26V126H287.988ZM298.293 126.122C297.519 126.122 296.939 125.919 296.552 125.514C296.165 125.1 295.971 124.506 295.971 123.732V120.289H294.689V119.439H295.971V117.427H297.065V119.439H299.144V120.289H297.065V123.624C297.065 124.137 297.173 124.528 297.389 124.798C297.605 125.059 297.956 125.19 298.442 125.19C298.586 125.19 298.73 125.172 298.874 125.136C299.018 125.1 299.148 125.064 299.265 125.028L299.454 125.865C299.337 125.928 299.166 125.986 298.941 126.041C298.716 126.095 298.5 126.122 298.293 126.122ZM300.38 126V116.482H301.474V120.519C301.69 120.123 301.991 119.826 302.378 119.628C302.774 119.421 303.215 119.317 303.701 119.317C305.258 119.317 306.037 120.181 306.037 121.909V126H304.943V121.977C304.943 121.365 304.822 120.919 304.579 120.64C304.345 120.352 303.967 120.208 303.445 120.208C302.842 120.208 302.36 120.397 302 120.775C301.649 121.144 301.474 121.639 301.474 122.26V126H300.38Z" fill="#007438"/>
<path d="M25.51 126V117.441H22.054V116.482H30.0865V117.441H26.6305V126H25.51ZM30.1188 126V119.439H31.1853V120.613C31.5363 119.821 32.2563 119.385 33.3453 119.304L33.7368 119.263L33.8178 120.208L33.1293 120.289C32.5083 120.343 32.0358 120.541 31.7118 120.883C31.3878 121.216 31.2258 121.675 31.2258 122.26V126H30.1188ZM36.9567 126.122C36.5067 126.122 36.1017 126.036 35.7417 125.865C35.3907 125.685 35.1117 125.442 34.9047 125.136C34.6977 124.83 34.5942 124.488 34.5942 124.11C34.5942 123.633 34.7157 123.255 34.9587 122.976C35.2107 122.697 35.6202 122.499 36.1872 122.382C36.7632 122.256 37.5462 122.193 38.5362 122.193H38.9682V121.774C38.9682 121.216 38.8512 120.816 38.6172 120.573C38.3922 120.321 38.0277 120.195 37.5237 120.195C37.1277 120.195 36.7452 120.253 36.3762 120.37C36.0072 120.478 35.6292 120.658 35.2422 120.91L34.8642 120.114C35.2062 119.871 35.6202 119.677 36.1062 119.533C36.6012 119.389 37.0737 119.317 37.5237 119.317C38.3697 119.317 38.9952 119.524 39.4002 119.938C39.8142 120.352 40.0212 120.996 40.0212 121.869V126H38.9952V124.866C38.8242 125.253 38.5587 125.559 38.1987 125.784C37.8477 126.009 37.4337 126.122 36.9567 126.122ZM37.1322 125.298C37.6722 125.298 38.1132 125.113 38.4552 124.744C38.7972 124.366 38.9682 123.889 38.9682 123.313V122.908H38.5497C37.8207 122.908 37.2447 122.944 36.8217 123.016C36.4077 123.079 36.1152 123.196 35.9442 123.367C35.7822 123.529 35.7012 123.754 35.7012 124.042C35.7012 124.411 35.8272 124.713 36.0792 124.947C36.3402 125.181 36.6912 125.298 37.1322 125.298ZM42.0499 126V119.439H43.1164V120.559C43.3324 120.145 43.6384 119.835 44.0344 119.628C44.4304 119.421 44.8759 119.317 45.3709 119.317C46.9279 119.317 47.7064 120.181 47.7064 121.909V126H46.6129V121.977C46.6129 121.365 46.4914 120.919 46.2484 120.64C46.0144 120.352 45.6364 120.208 45.1144 120.208C44.5114 120.208 44.0299 120.397 43.6699 120.775C43.3189 121.144 43.1434 121.639 43.1434 122.26V126H42.0499ZM51.9368 126.122C51.4238 126.122 50.9378 126.05 50.4788 125.905C50.0198 125.761 49.6418 125.559 49.3448 125.298L49.6958 124.528C50.0198 124.789 50.3753 124.983 50.7623 125.109C51.1583 125.226 51.5588 125.284 51.9638 125.284C52.4768 125.284 52.8638 125.19 53.1248 125.001C53.3858 124.812 53.5163 124.555 53.5163 124.231C53.5163 123.979 53.4308 123.781 53.2598 123.637C53.0888 123.484 52.8188 123.367 52.4498 123.286L51.2213 123.016C50.1053 122.773 49.5473 122.197 49.5473 121.288C49.5473 120.694 49.7813 120.217 50.2493 119.857C50.7263 119.497 51.3473 119.317 52.1123 119.317C52.5623 119.317 52.9898 119.389 53.3948 119.533C53.8088 119.668 54.1508 119.871 54.4208 120.141L54.0563 120.91C53.7953 120.667 53.4893 120.483 53.1383 120.357C52.7963 120.222 52.4543 120.154 52.1123 120.154C51.6083 120.154 51.2258 120.253 50.9648 120.451C50.7038 120.649 50.5733 120.91 50.5733 121.234C50.5733 121.738 50.9063 122.062 51.5723 122.206L52.8008 122.463C53.3768 122.589 53.8133 122.791 54.1103 123.07C54.4073 123.34 54.5558 123.709 54.5558 124.177C54.5558 124.78 54.3173 125.257 53.8403 125.608C53.3633 125.951 52.7288 126.122 51.9368 126.122ZM58.2878 126.122C57.8378 126.122 57.4328 126.036 57.0728 125.865C56.7218 125.685 56.4428 125.442 56.2358 125.136C56.0288 124.83 55.9253 124.488 55.9253 124.11C55.9253 123.633 56.0468 123.255 56.2898 122.976C56.5418 122.697 56.9513 122.499 57.5183 122.382C58.0943 122.256 58.8773 122.193 59.8673 122.193H60.2993V121.774C60.2993 121.216 60.1823 120.816 59.9483 120.573C59.7233 120.321 59.3588 120.195 58.8548 120.195C58.4588 120.195 58.0763 120.253 57.7073 120.37C57.3383 120.478 56.9603 120.658 56.5733 120.91L56.1953 120.114C56.5373 119.871 56.9513 119.677 57.4373 119.533C57.9323 119.389 58.4048 119.317 58.8548 119.317C59.7008 119.317 60.3263 119.524 60.7313 119.938C61.1453 120.352 61.3523 120.996 61.3523 121.869V126H60.3263V124.866C60.1553 125.253 59.8898 125.559 59.5298 125.784C59.1788 126.009 58.7648 126.122 58.2878 126.122ZM58.4633 125.298C59.0033 125.298 59.4443 125.113 59.7863 124.744C60.1283 124.366 60.2993 123.889 60.2993 123.313V122.908H59.8808C59.1518 122.908 58.5758 122.944 58.1528 123.016C57.7388 123.079 57.4463 123.196 57.2753 123.367C57.1133 123.529 57.0323 123.754 57.0323 124.042C57.0323 124.411 57.1583 124.713 57.4103 124.947C57.6713 125.181 58.0223 125.298 58.4633 125.298ZM66.162 126.122C65.505 126.122 64.938 125.982 64.461 125.703C63.984 125.415 63.615 125.014 63.354 124.501C63.102 123.979 62.976 123.372 62.976 122.679C62.976 121.635 63.2595 120.816 63.8265 120.222C64.3935 119.619 65.172 119.317 66.162 119.317C66.567 119.317 66.9675 119.389 67.3635 119.533C67.7595 119.677 68.088 119.88 68.349 120.141L67.971 120.937C67.71 120.685 67.422 120.501 67.107 120.384C66.801 120.267 66.5085 120.208 66.2295 120.208C65.5455 120.208 65.019 120.424 64.65 120.856C64.281 121.279 64.0965 121.891 64.0965 122.692C64.0965 123.475 64.281 124.096 64.65 124.555C65.019 125.005 65.5455 125.23 66.2295 125.23C66.5085 125.23 66.801 125.172 67.107 125.055C67.422 124.938 67.71 124.749 67.971 124.488L68.349 125.284C68.088 125.545 67.755 125.752 67.35 125.905C66.954 126.05 66.558 126.122 66.162 126.122ZM72.2625 126.122C71.4885 126.122 70.908 125.919 70.521 125.514C70.134 125.1 69.9405 124.506 69.9405 123.732V120.289H68.658V119.439H69.9405V117.427H71.034V119.439H73.113V120.289H71.034V123.624C71.034 124.137 71.142 124.528 71.358 124.798C71.574 125.059 71.925 125.19 72.411 125.19C72.555 125.19 72.699 125.172 72.843 125.136C72.987 125.1 73.1175 125.064 73.2345 125.028L73.4235 125.865C73.3065 125.928 73.1355 125.986 72.9105 126.041C72.6855 126.095 72.4695 126.122 72.2625 126.122ZM74.2147 117.805V116.577H75.5647V117.805H74.2147ZM74.3497 126V119.439H75.4432V126H74.3497ZM80.2144 126.122C79.5754 126.122 79.0219 125.982 78.5539 125.703C78.0859 125.424 77.7214 125.032 77.4604 124.528C77.2084 124.015 77.0824 123.412 77.0824 122.719C77.0824 122.026 77.2084 121.428 77.4604 120.924C77.7214 120.411 78.0859 120.015 78.5539 119.736C79.0219 119.457 79.5754 119.317 80.2144 119.317C80.8444 119.317 81.3934 119.457 81.8614 119.736C82.3384 120.015 82.7029 120.411 82.9549 120.924C83.2159 121.428 83.3464 122.026 83.3464 122.719C83.3464 123.412 83.2159 124.015 82.9549 124.528C82.7029 125.032 82.3384 125.424 81.8614 125.703C81.3934 125.982 80.8444 126.122 80.2144 126.122ZM80.2144 125.244C80.8264 125.244 81.3169 125.028 81.6859 124.596C82.0549 124.155 82.2394 123.529 82.2394 122.719C82.2394 121.9 82.0549 121.275 81.6859 120.843C81.3169 120.411 80.8264 120.195 80.2144 120.195C79.5934 120.195 79.0984 120.411 78.7294 120.843C78.3694 121.275 78.1894 121.9 78.1894 122.719C78.1894 123.529 78.3694 124.155 78.7294 124.596C79.0984 125.028 79.5934 125.244 80.2144 125.244ZM84.9889 126V119.439H86.0554V120.559C86.2714 120.145 86.5774 119.835 86.9734 119.628C87.3694 119.421 87.8149 119.317 88.3099 119.317C89.8669 119.317 90.6454 120.181 90.6454 121.909V126H89.5519V121.977C89.5519 121.365 89.4304 120.919 89.1874 120.64C88.9534 120.352 88.5754 120.208 88.0534 120.208C87.4504 120.208 86.9689 120.397 86.6089 120.775C86.2579 121.144 86.0824 121.639 86.0824 122.26V126H84.9889ZM94.8757 126.122C94.3627 126.122 93.8767 126.05 93.4177 125.905C92.9587 125.761 92.5807 125.559 92.2837 125.298L92.6347 124.528C92.9587 124.789 93.3142 124.983 93.7012 125.109C94.0972 125.226 94.4977 125.284 94.9027 125.284C95.4157 125.284 95.8027 125.19 96.0637 125.001C96.3247 124.812 96.4552 124.555 96.4552 124.231C96.4552 123.979 96.3697 123.781 96.1987 123.637C96.0277 123.484 95.7577 123.367 95.3887 123.286L94.1602 123.016C93.0442 122.773 92.4862 122.197 92.4862 121.288C92.4862 120.694 92.7202 120.217 93.1882 119.857C93.6652 119.497 94.2862 119.317 95.0512 119.317C95.5012 119.317 95.9287 119.389 96.3337 119.533C96.7477 119.668 97.0897 119.871 97.3597 120.141L96.9952 120.91C96.7342 120.667 96.4282 120.483 96.0772 120.357C95.7352 120.222 95.3932 120.154 95.0512 120.154C94.5472 120.154 94.1647 120.253 93.9037 120.451C93.6427 120.649 93.5122 120.91 93.5122 121.234C93.5122 121.738 93.8452 122.062 94.5112 122.206L95.7397 122.463C96.3157 122.589 96.7522 122.791 97.0492 123.07C97.3462 123.34 97.4947 123.709 97.4947 124.177C97.4947 124.78 97.2562 125.257 96.7792 125.608C96.3022 125.951 95.6677 126.122 94.8757 126.122Z" fill="#8F8F8F"/>
<path d="M90.5 170.5H84V174.5H90.5V176.5L96 172L90.5 168V170.5Z" fill="#F63E3D" stroke="#F3413F"/>
<path d="M242.5 174.5L249 174.5L249 170L242.5 170L242.5 168L237 172.5L242.5 176.5L242.5 174.5Z" fill="black"/>
<line x1="29" y1="98.5" x2="308" y2="98.5" stroke="#E6E6E6"/>
<path d="M279 35H299" stroke="#007438" stroke-width="3" stroke-linecap="round" stroke-linejoin="round"/>
<path d="M279 42H299" stroke="#007438" stroke-width="3" stroke-linecap="round" stroke-linejoin="round"/>
<path d="M285 49L299 49" stroke="#007438" stroke-width="3" stroke-linecap="round" stroke-linejoin="round"/>
<defs>
<filter id="filter0_d_1_18" x="0" y="0" width="338" height="228" filterUnits="userSpaceOnUse" color-interpolation-filters="sRGB">
<feFlood flood-opacity="0" result="BackgroundImageFix"/>
<feColorMatrix in="SourceAlpha" type="matrix" values="0 0 0 0 0 0 0 0 0 0 0 0 0 0 0 0 0 0 127 0" result="hardAlpha"/>
<feOffset dy="4"/>
<feGaussianBlur stdDeviation="8.5"/>
<feComposite in2="hardAlpha" operator="out"/>
<feColorMatrix type="matrix" values="0 0 0 0 0 0 0 0 0 0 0 0 0 0 0 0 0 0 0.16 0"/>
<feBlend mode="normal" in2="BackgroundImageFix" result="effect1_dropShadow_1_18"/>
<feBlend mode="normal" in="SourceGraphic" in2="effect1_dropShadow_1_18" result="shape"/>
</filter>
</defs>
</svg>
